<?xml version="1.0" standalone="no"?>
<!DOCTYPE svg PUBLIC "-//W3C//DTD SVG 1.1//EN" "http://www.w3.org/Graphics/SVG/1.1/DTD/svg11.dtd">
<svg viewBox="0 0 886.000000 896.000000" version="1.1" xmlns="http://www.w3.org/2000/svg" xmlns:xlink="http://www.w3.org/1999/xlink">
	<polyline fill="none" stroke="rgb(229,229,229)" stroke-width="1" stroke-opacity="1" points="86.000000,48.000000 86.000000,396.000000"/>
	<polyline fill="none" stroke="rgb(229,229,229)" stroke-width="1" stroke-opacity="1" points="113.678571,48.000000 113.678571,396.000000"/>
	<polyline fill="none" stroke="rgb(229,229,229)" stroke-width="1" stroke-opacity="1" points="141.357143,48.000000 141.357143,396.000000"/>
	<polyline fill="none" stroke="rgb(229,229,229)" stroke-width="1" stroke-opacity="1" points="169.035714,48.000000 169.035714,396.000000"/>
	<polyline fill="none" stroke="rgb(229,229,229)" stroke-width="1" stroke-opacity="1" points="196.714286,48.000000 196.714286,396.000000"/>
	<polyline fill="none" stroke="rgb(229,229,229)" stroke-width="1" stroke-opacity="1" points="224.392857,48.000000 224.392857,396.000000"/>
	<polyline fill="none" stroke="rgb(229,229,229)" stroke-width="1" stroke-opacity="1" points="252.071429,48.000000 252.071429,396.000000"/>
	<polyline fill="none" stroke="rgb(229,229,229)" stroke-width="1" stroke-opacity="1" points="279.750000,48.000000 279.750000,396.000000"/>
	<polyline fill="none" stroke="rgb(229,229,229)" stroke-width="1" stroke-opacity="1" points="307.428571,48.000000 307.428571,396.000000"/>
	<polyline fill="none" stroke="rgb(229,229,229)" stroke-width="1" stroke-opacity="1" points="335.107143,48.000000 335.107143,396.000000"/>
	<polyline fill="none" stroke="rgb(229,229,229)" stroke-width="1" stroke-opacity="1" points="362.785714,48.000000 362.785714,396.000000"/>
	<polyline fill="none" stroke="rgb(229,229,229)" stroke-width="1" stroke-opacity="1" points="390.464286,48.000000 390.464286,396.000000"/>
	<polyline fill="none" stroke="rgb(229,229,229)" stroke-width="1" stroke-opacity="1" points="418.142857,48.000000 418.142857,396.000000"/>
	<polyline fill="none" stroke="rgb(229,229,229)" stroke-width="1" stroke-opacity="1" points="445.821429,48.000000 445.821429,396.000000"/>
	<polyline fill="none" stroke="rgb(229,229,229)" stroke-width="1" stroke-opacity="1" points="473.500000,48.000000 473.500000,396.000000"/>
	<polyline fill="none" stroke="rgb(229,229,229)" stroke-width="1" stroke-opacity="1" points="501.178571,48.000000 501.178571,396.000000"/>
	<polyline fill="none" stroke="rgb(229,229,229)" stroke-width="1" stroke-opacity="1" points="528.857143,48.000000 528.857143,396.000000"/>
	<polyline fill="none" stroke="rgb(229,229,229)" stroke-width="1" stroke-opacity="1" points="556.535714,48.000000 556.535714,396.000000"/>
	<polyline fill="none" stroke="rgb(229,229,229)" stroke-width="1" stroke-opacity="1" points="584.214286,48.000000 584.214286,396.000000"/>
	<polyline fill="none" stroke="rgb(229,229,229)" stroke-width="1" stroke-opacity="1" points="611.892857,48.000000 611.892857,396.000000"/>
	<polyline fill="none" stroke="rgb(229,229,229)" stroke-width="1" stroke-opacity="1" points="639.571429,48.000000 639.571429,396.000000"/>
	<polyline fill="none" stroke="rgb(229,229,229)" stroke-width="1" stroke-opacity="1" points="667.250000,48.000000 667.250000,396.000000"/>
	<polyline fill="none" stroke="rgb(229,229,229)" stroke-width="1" stroke-opacity="1" points="694.928571,48.000000 694.928571,396.000000"/>
	<polyline fill="none" stroke="rgb(229,229,229)" stroke-width="1" stroke-opacity="1" points="722.607143,48.000000 722.607143,396.000000"/>
	<polyline fill="none" stroke="rgb(229,229,229)" stroke-width="1" stroke-opacity="1" points="750.285714,48.000000 750.285714,396.000000"/>
	<polyline fill="none" stroke="rgb(229,229,229)" stroke-width="1" stroke-opacity="1" points="777.964286,48.000000 777.964286,396.000000"/>
	<polyline fill="none" stroke="rgb(229,229,229)" stroke-width="1" stroke-opacity="1" points="805.642857,48.000000 805.642857,396.000000"/>
	<polyline fill="none" stroke="rgb(229,229,229)" stroke-width="1" stroke-opacity="1" points="833.321429,48.000000 833.321429,396.000000"/>
	<polyline fill="none" stroke="rgb(229,229,229)" stroke-width="1" stroke-opacity="1" points="861.000000,48.000000 861.000000,396.000000"/>
	<polyline fill="none" stroke="rgb(229,229,229)" stroke-width="1" stroke-opacity="1" points="86.000000,396.000000 861.000000,396.000000"/>
	<polyline fill="none" stroke="rgb(229,229,229)" stroke-width="1" stroke-opacity="1" points="86.000000,371.142857 861.000000,371.142857"/>
	<polyline fill="none" stroke="rgb(229,229,229)" stroke-width="1" stroke-opacity="1" points="86.000000,346.285714 861.000000,346.285714"/>
	<polyline fill="none" stroke="rgb(229,229,229)" stroke-width="1" stroke-opacity="1" points="86.000000,321.428571 861.000000,321.428571"/>
	<polyline fill="none" stroke="rgb(229,229,229)" stroke-width="1" stroke-opacity="1" points="86.000000,296.571429 861.000000,296.571429"/>
	<polyline fill="none" stroke="rgb(229,229,229)" stroke-width="1" stroke-opacity="1" points="86.000000,271.714286 861.000000,271.714286"/>
	<polyline fill="none" stroke="rgb(229,229,229)" stroke-width="1" stroke-opacity="1" points="86.000000,246.857143 861.000000,246.857143"/>
	<polyline fill="none" stroke="rgb(229,229,229)" stroke-width="1" stroke-opacity="1" points="86.000000,222.000000 861.000000,222.000000"/>
	<polyline fill="none" stroke="rgb(229,229,229)" stroke-width="1" stroke-opacity="1" points="86.000000,197.142857 861.000000,197.142857"/>
	<polyline fill="none" stroke="rgb(229,229,229)" stroke-width="1" stroke-opacity="1" points="86.000000,172.285714 861.000000,172.285714"/>
	<polyline fill="none" stroke="rgb(229,229,229)" stroke-width="1" stroke-opacity="1" points="86.000000,147.428571 861.000000,147.428571"/>
	<polyline fill="none" stroke="rgb(229,229,229)" stroke-width="1" stroke-opacity="1" points="86.000000,122.571429 861.000000,122.571429"/>
	<polyline fill="none" stroke="rgb(229,229,229)" stroke-width="1" stroke-opacity="1" points="86.000000,97.714286 861.000000,97.714286"/>
	<polyline fill="none" stroke="rgb(229,229,229)" stroke-width="1" stroke-opacity="1" points="86.000000,72.857143 861.000000,72.857143"/>
	<polyline fill="none" stroke="rgb(229,229,229)" stroke-width="1" stroke-opacity="1" points="86.000000,48.000000 861.000000,48.000000"/>
	<polyline fill="none" stroke="rgb(0,0,0)" stroke-width="1" stroke-opacity="1" points="86.000000,396.000000 861.000000,396.000000"/>
	<polyline fill="none" stroke="rgb(0,0,0)" stroke-width="1" stroke-opacity="1" points="861.000000,396.000000 861.000000,48.000000"/>
	<polyline fill="none" stroke="rgb(0,0,0)" stroke-width="1" stroke-opacity="1" points="861.000000,48.000000 86.000000,48.000000"/>
	<polyline fill="none" stroke="rgb(0,0,0)" stroke-width="1" stroke-opacity="1" points="86.000000,48.000000 86.000000,396.000000"/>
	<polyline fill="none" stroke="rgb(0,0,0)" stroke-width="1" stroke-opacity="1" points="86.000000,396.000000 86.000000,400.000000"/>
	<polyline fill="none" stroke="rgb(0,0,0)" stroke-width="1" stroke-opacity="1" points="113.678571,396.000000 113.678571,400.000000"/>
	<polyline fill="none" stroke="rgb(0,0,0)" stroke-width="1" stroke-opacity="1" points="141.357143,396.000000 141.357143,400.000000"/>
	<polyline fill="none" stroke="rgb(0,0,0)" stroke-width="1" stroke-opacity="1" points="169.035714,396.000000 169.035714,400.000000"/>
	<polyline fill="none" stroke="rgb(0,0,0)" stroke-width="1" stroke-opacity="1" points="196.714286,396.000000 196.714286,400.000000"/>
	<polyline fill="none" stroke="rgb(0,0,0)" stroke-width="1" stroke-opacity="1" points="224.392857,396.000000 224.392857,400.000000"/>
	<polyline fill="none" stroke="rgb(0,0,0)" stroke-width="1" stroke-opacity="1" points="252.071429,396.000000 252.071429,400.000000"/>
	<polyline fill="none" stroke="rgb(0,0,0)" stroke-width="1" stroke-opacity="1" points="279.750000,396.000000 279.750000,400.000000"/>
	<polyline fill="none" stroke="rgb(0,0,0)" stroke-width="1" stroke-opacity="1" points="307.428571,396.000000 307.428571,400.000000"/>
	<polyline fill="none" stroke="rgb(0,0,0)" stroke-width="1" stroke-opacity="1" points="335.107143,396.000000 335.107143,400.000000"/>
	<polyline fill="none" stroke="rgb(0,0,0)" stroke-width="1" stroke-opacity="1" points="362.785714,396.000000 362.785714,400.000000"/>
	<polyline fill="none" stroke="rgb(0,0,0)" stroke-width="1" stroke-opacity="1" points="390.464286,396.000000 390.464286,400.000000"/>
	<polyline fill="none" stroke="rgb(0,0,0)" stroke-width="1" stroke-opacity="1" points="418.142857,396.000000 418.142857,400.000000"/>
	<polyline fill="none" stroke="rgb(0,0,0)" stroke-width="1" stroke-opacity="1" points="445.821429,396.000000 445.821429,400.000000"/>
	<polyline fill="none" stroke="rgb(0,0,0)" stroke-width="1" stroke-opacity="1" points="473.500000,396.000000 473.500000,400.000000"/>
	<polyline fill="none" stroke="rgb(0,0,0)" stroke-width="1" stroke-opacity="1" points="501.178571,396.000000 501.178571,400.000000"/>
	<polyline fill="none" stroke="rgb(0,0,0)" stroke-width="1" stroke-opacity="1" points="528.857143,396.000000 528.857143,400.000000"/>
	<polyline fill="none" stroke="rgb(0,0,0)" stroke-width="1" stroke-opacity="1" points="556.535714,396.000000 556.535714,400.000000"/>
	<polyline fill="none" stroke="rgb(0,0,0)" stroke-width="1" stroke-opacity="1" points="584.214286,396.000000 584.214286,400.000000"/>
	<polyline fill="none" stroke="rgb(0,0,0)" stroke-width="1" stroke-opacity="1" points="611.892857,396.000000 611.892857,400.000000"/>
	<polyline fill="none" stroke="rgb(0,0,0)" stroke-width="1" stroke-opacity="1" points="639.571429,396.000000 639.571429,400.000000"/>
	<polyline fill="none" stroke="rgb(0,0,0)" stroke-width="1" stroke-opacity="1" points="667.250000,396.000000 667.250000,400.000000"/>
	<polyline fill="none" stroke="rgb(0,0,0)" stroke-width="1" stroke-opacity="1" points="694.928571,396.000000 694.928571,400.000000"/>
	<polyline fill="none" stroke="rgb(0,0,0)" stroke-width="1" stroke-opacity="1" points="722.607143,396.000000 722.607143,400.000000"/>
	<polyline fill="none" stroke="rgb(0,0,0)" stroke-width="1" stroke-opacity="1" points="750.285714,396.000000 750.285714,400.000000"/>
	<polyline fill="none" stroke="rgb(0,0,0)" stroke-width="1" stroke-opacity="1" points="777.964286,396.000000 777.964286,400.000000"/>
	<polyline fill="none" stroke="rgb(0,0,0)" stroke-width="1" stroke-opacity="1" points="805.642857,396.000000 805.642857,400.000000"/>
	<polyline fill="none" stroke="rgb(0,0,0)" stroke-width="1" stroke-opacity="1" points="833.321429,396.000000 833.321429,400.000000"/>
	<polyline fill="none" stroke="rgb(0,0,0)" stroke-width="1" stroke-opacity="1" points="861.000000,396.000000 861.000000,400.000000"/>
	<polyline fill="none" stroke="rgb(0,0,0)" stroke-width="1" stroke-opacity="1" points="86.000000,396.000000 86.000000,402.400000"/>
	<text x="86" y="411" fill="rgb(0,0,0)" dominant-baseline="central" font-size="11" font-family="Arial" text-anchor="middle">0.0</text>
	<polyline fill="none" stroke="rgb(0,0,0)" stroke-width="1" stroke-opacity="1" points="224.392857,396.000000 224.392857,402.400000"/>
	<text x="224.393" y="411" fill="rgb(0,0,0)" dominant-baseline="central" font-size="11" font-family="Arial" text-anchor="middle">2.5</text>
	<polyline fill="none" stroke="rgb(0,0,0)" stroke-width="1" stroke-opacity="1" points="362.785714,396.000000 362.785714,402.400000"/>
	<text x="362.786" y="411" fill="rgb(0,0,0)" dominant-baseline="central" font-size="11" font-family="Arial" text-anchor="middle">5.0</text>
	<polyline fill="none" stroke="rgb(0,0,0)" stroke-width="1" stroke-opacity="1" points="501.178571,396.000000 501.178571,402.400000"/>
	<text x="501.179" y="411" fill="rgb(0,0,0)" dominant-baseline="central" font-size="11" font-family="Arial" text-anchor="middle">7.5</text>
	<polyline fill="none" stroke="rgb(0,0,0)" stroke-width="1" stroke-opacity="1" points="639.571429,396.000000 639.571429,402.400000"/>
	<text x="639.571" y="411" fill="rgb(0,0,0)" dominant-baseline="central" font-size="11" font-family="Arial" text-anchor="middle">10.0</text>
	<polyline fill="none" stroke="rgb(0,0,0)" stroke-width="1" stroke-opacity="1" points="777.964286,396.000000 777.964286,402.400000"/>
	<text x="777.964" y="411" fill="rgb(0,0,0)" dominant-baseline="central" font-size="11" font-family="Arial" text-anchor="middle">12.5</text>
	<polyline fill="none" stroke="rgb(0,0,0)" stroke-width="1" stroke-opacity="1" points="82.000000,396.000000 86.000000,396.000000"/>
	<polyline fill="none" stroke="rgb(0,0,0)" stroke-width="1" stroke-opacity="1" points="82.000000,371.142857 86.000000,371.142857"/>
	<polyline fill="none" stroke="rgb(0,0,0)" stroke-width="1" stroke-opacity="1" points="82.000000,346.285714 86.000000,346.285714"/>
	<polyline fill="none" stroke="rgb(0,0,0)" stroke-width="1" stroke-opacity="1" points="82.000000,321.428571 86.000000,321.428571"/>
	<polyline fill="none" stroke="rgb(0,0,0)" stroke-width="1" stroke-opacity="1" points="82.000000,296.571429 86.000000,296.571429"/>
	<polyline fill="none" stroke="rgb(0,0,0)" stroke-width="1" stroke-opacity="1" points="82.000000,271.714286 86.000000,271.714286"/>
	<polyline fill="none" stroke="rgb(0,0,0)" stroke-width="1" stroke-opacity="1" points="82.000000,246.857143 86.000000,246.857143"/>
	<polyline fill="none" stroke="rgb(0,0,0)" stroke-width="1" stroke-opacity="1" points="82.000000,222.000000 86.000000,222.000000"/>
	<polyline fill="none" stroke="rgb(0,0,0)" stroke-width="1" stroke-opacity="1" points="82.000000,197.142857 86.000000,197.142857"/>
	<polyline fill="none" stroke="rgb(0,0,0)" stroke-width="1" stroke-opacity="1" points="82.000000,172.285714 86.000000,172.285714"/>
	<polyline fill="none" stroke="rgb(0,0,0)" stroke-width="1" stroke-opacity="1" points="82.000000,147.428571 86.000000,147.428571"/>
	<polyline fill="none" stroke="rgb(0,0,0)" stroke-width="1" stroke-opacity="1" points="82.000000,122.571429 86.000000,122.571429"/>
	<polyline fill="none" stroke="rgb(0,0,0)" stroke-width="1" stroke-opacity="1" points="82.000000,97.714286 86.000000,97.714286"/>
	<polyline fill="none" stroke="rgb(0,0,0)" stroke-width="1" stroke-opacity="1" points="82.000000,72.857143 86.000000,72.857143"/>
	<polyline fill="none" stroke="rgb(0,0,0)" stroke-width="1" stroke-opacity="1" points="82.000000,48.000000 86.000000,48.000000"/>
	<rect fill="none" stroke="none" stroke-dasharray="none" stroke-width="1" stroke-opacity="1" x="27" y="389" width="51" height="14"/>
	<polyline fill="none" stroke="rgb(0,0,0)" stroke-width="1" stroke-opacity="1" points="79.600000,396.000000 86.000000,396.000000"/>
	<text x="78" y="396" fill="rgb(0,0,0)" dominant-baseline="central" font-size="11" font-family="Arial" text-anchor="end">1.56E4</text>
	<polyline fill="none" stroke="rgb(0,0,0)" stroke-width="1" stroke-opacity="1" points="79.600000,346.285714 86.000000,346.285714"/>
	<text x="78" y="346.286" fill="rgb(0,0,0)" dominant-baseline="central" font-size="11" font-family="Arial" text-anchor="end">1.58E4</text>
	<polyline fill="none" stroke="rgb(0,0,0)" stroke-width="1" stroke-opacity="1" points="79.600000,296.571429 86.000000,296.571429"/>
	<text x="78" y="296.571" fill="rgb(0,0,0)" dominant-baseline="central" font-size="11" font-family="Arial" text-anchor="end">1.60E4</text>
	<polyline fill="none" stroke="rgb(0,0,0)" stroke-width="1" stroke-opacity="1" points="79.600000,246.857143 86.000000,246.857143"/>
	<text x="78" y="246.857" fill="rgb(0,0,0)" dominant-baseline="central" font-size="11" font-family="Arial" text-anchor="end">1.62E4</text>
	<polyline fill="none" stroke="rgb(0,0,0)" stroke-width="1" stroke-opacity="1" points="79.600000,197.142857 86.000000,197.142857"/>
	<text x="78" y="197.143" fill="rgb(0,0,0)" dominant-baseline="central" font-size="11" font-family="Arial" text-anchor="end">1.64E4</text>
	<polyline fill="none" stroke="rgb(0,0,0)" stroke-width="1" stroke-opacity="1" points="79.600000,147.428571 86.000000,147.428571"/>
	<text x="78" y="147.429" fill="rgb(0,0,0)" dominant-baseline="central" font-size="11" font-family="Arial" text-anchor="end">1.66E4</text>
	<polyline fill="none" stroke="rgb(0,0,0)" stroke-width="1" stroke-opacity="1" points="79.600000,97.714286 86.000000,97.714286"/>
	<text x="78" y="97.7143" fill="rgb(0,0,0)" dominant-baseline="central" font-size="11" font-family="Arial" text-anchor="end">1.68E4</text>
	<polyline fill="none" stroke="rgb(0,0,0)" stroke-width="1" stroke-opacity="1" points="79.600000,48.000000 86.000000,48.000000"/>
	<text x="78" y="48" fill="rgb(0,0,0)" dominant-baseline="central" font-size="11" font-family="Arial" text-anchor="end">1.70E4</text>
	<text x="25" y="222" fill="rgb(0,0,0)" dominant-baseline="central" transform="rotate(-90 25,222)" font-size="11" font-family="Arial" text-anchor="middle">OCI</text>
	<text x="473.5" y="430" fill="rgb(0,0,0)" dominant-baseline="central" font-size="11" font-family="Arial" text-anchor="middle">Days</text>
	<text x="473.5" y="12" fill="rgb(0,0,0)" dominant-baseline="central" font-size="11" font-family="Arial" text-anchor="middle">OCI for changes in Q_a and Q_r</text>
	<clipPath id="clipArea1">
		<rect x="86" y="48" width="775" height="348">
		</rect>
	</clipPath>
	<polyline fill="none" stroke="rgb(28,108,200)" stroke-width="1" stroke-opacity="1" clip-path="url(#clipArea1)" points="86.000000,231.339149 93.750000,232.063987 101.500000,233.279657 109.249999,234.491685 117.000000,235.036892 124.749999,235.821203 132.499999,236.756501 140.250001,237.584263 148.000000,238.504512 155.749999,239.854662 163.499999,241.246323 171.249998,241.981599 178.999997,242.828295 186.750003,243.850254 194.500002,244.780698 202.249995,245.747068 210.000001,247.093092 217.750006,248.517280 225.499999,249.450636 233.250005,250.395159 240.999997,251.551599 248.750003,252.608513 256.499996,253.685332 264.250002,255.088158 271.999994,256.623767 279.750000,257.788460 287.500006,258.756772 295.249998,259.950594 303.000004,261.106549 310.749997,262.194534 318.499989,263.603915 326.250008,265.150446 334.000001,266.451563 341.749994,267.497068 349.500013,268.765170 357.250005,270.021621 364.999998,271.243845 372.749990,272.729690 380.500010,274.334967 388.250002,275.857709 395.999995,277.156398 403.749987,278.610201 411.500006,280.087793 419.249999,281.532129 426.999992,283.076233 434.750011,284.790988 442.500003,286.470787 450.249996,287.846911 457.999988,289.357274 465.750007,290.920313 473.500000,292.418781 481.249993,293.922104 489.000012,295.637344 496.750004,297.344330 504.499997,298.560000 512.249989,299.928599 520.000008,301.394782 527.750001,302.768965 535.499994,304.197280 543.250013,305.932910 550.999979,307.694515 558.749998,308.963345 566.500017,310.296261 574.249983,311.747394 582.000002,313.119877 589.750021,314.506197 597.499987,316.171189 605.250006,317.890555 613.000025,319.231482 620.749992,320.566582 628.500011,322.054127 636.249977,323.455011 643.999996,324.861964 651.750015,326.512634 659.499981,328.263072 667.250000,329.721730 675.000019,331.015321 682.749985,332.475193 690.500004,333.896953 698.250023,335.256571 705.999989,336.862575 713.750008,338.573931 721.499975,340.087693 729.249994,341.387595 737.000013,342.856691 744.749979,344.310251 752.499998,345.729099 760.250017,347.354523 767.999983,349.073161 775.750002,350.723103 783.500021,352.186616 791.249987,353.769802 799.000006,355.368524 806.750025,356.935689 814.499992,358.579562 822.250011,360.360343 829.999977,362.110539 837.749996,363.608036 845.500015,365.209914 853.249981,366.851844 861.000000,368.436244 861.000000,368.436244"/>
	<polyline fill="none" stroke="rgb(238,46,47)" stroke-width="1" stroke-opacity="1" clip-path="url(#clipArea1)" points="86.000000,247.729328 93.750000,248.460477 101.500000,249.676875 109.249999,250.886961 117.000000,251.425371 124.749999,252.212595 132.499999,253.148379 140.250001,253.974442 148.000000,254.895176 155.749999,256.247754 163.499999,257.637472 171.249998,258.365223 178.999997,259.215561 186.750003,260.238005 194.500002,261.166992 202.249995,262.134333 210.000001,263.482299 217.750006,264.905516 225.499999,265.832076 233.250005,266.779026 240.999997,267.936922 248.750003,268.992380 256.499996,270.069685 264.250002,271.474696 271.999994,273.008848 279.750000,274.168200 287.500006,275.137726 295.249998,276.333491 303.000004,277.487988 310.749997,278.575974 318.499989,279.987539 326.250008,281.533828 334.000001,282.830818 341.749994,283.876565 349.500013,285.146610 357.250005,286.401847 364.999998,287.624314 372.749990,289.111858 380.500010,290.716649 388.250002,292.237207 395.999995,293.534439 403.749987,294.989213 411.500006,296.466077 419.249999,297.909927 426.999992,299.454275 434.750011,301.169515 442.500003,302.848100 450.249996,304.221311 457.999988,305.732888 465.750007,307.296169 473.500000,308.793666 481.249993,310.297232 489.000012,312.013443 496.750004,313.719701 504.499997,314.931487 512.249989,316.303242 520.000008,317.769425 527.750001,319.143608 535.499994,320.572893 543.250013,322.310951 550.999979,324.071342 558.749998,325.335318 566.500017,326.671632 574.249983,328.123979 582.000002,329.495977 589.750021,330.883753 597.499987,332.550686 605.250006,334.269325 613.000025,335.605639 620.749992,336.943652 628.500011,338.431682 636.249977,339.832567 643.999996,341.240491 651.750015,342.893588 659.499981,344.643055 667.250000,346.097829 675.000019,347.393119 682.749985,348.854933 690.500004,350.276208 698.250023,351.636311 705.999989,353.244501 713.750008,354.955614 721.499975,356.466462 729.249994,357.767335 737.000013,359.238131 744.749979,360.690963 752.499998,362.110296 760.250017,363.737176 767.999983,365.455815 775.750002,367.104300 783.500021,368.566842 791.249987,370.151242 799.000006,371.749478 806.750025,373.316401 814.499992,374.961002 822.250011,376.742026 829.999977,378.491493 837.749996,379.986805 845.500015,381.590140 853.249981,383.232070 861.000000,384.816228 861.000000,384.816228"/>
	<polyline fill="none" stroke="rgb(0,140,72)" stroke-width="1" stroke-opacity="1" clip-path="url(#clipArea1)" points="86.000000,77.267344 93.750000,78.096077 101.500000,79.587991 109.249999,81.109520 117.000000,81.830960 124.749999,82.776211 132.499999,83.927796 140.250001,84.954124 148.000000,86.062500 155.749999,87.678214 163.499999,89.378890 171.249998,90.335307 178.999997,91.327651 186.750003,92.552545 194.500002,93.682282 202.249995,94.822215 210.000001,96.417539 217.750006,98.131323 225.499999,99.298443 233.250005,100.394196 240.999997,101.754057 248.750003,103.018276 256.499996,104.286378 264.250002,105.915201 271.999994,107.744531 279.750000,109.173331 287.500006,110.281222 295.249998,111.668756 303.000004,113.027645 310.749997,114.288951 318.499989,115.915346 326.250008,117.735452 334.000001,119.301161 341.749994,120.493527 349.500013,121.950485 357.250005,123.415212 364.999998,124.823622 372.749990,126.532065 380.500010,128.405089 388.250002,130.198979 395.999995,131.693806 403.749987,133.360011 411.500006,135.069911 419.249999,136.731747 426.999992,138.497963 434.750011,140.478281 442.500003,142.431897 450.249996,144.011200 457.999988,145.724983 465.750007,147.514018 473.500000,149.227316 481.249993,150.928962 489.000012,152.884035 496.750004,154.852701 504.499997,156.234408 512.249989,157.755452 520.000008,159.411462 527.750001,160.963577 535.499994,162.559386 543.250013,164.519314 550.999979,166.537015 558.749998,167.996886 566.500017,169.462098 574.249983,171.088493 582.000002,172.631384 589.750021,174.167963 597.499987,176.040017 605.250006,177.997517 613.000025,179.533610 620.749992,180.999308 628.500011,182.656775 636.249977,184.230251 643.999996,185.795960 651.750015,187.633058 659.499981,189.623086 667.250000,191.297545 675.000019,192.707411 682.749985,194.325067 690.500004,195.913594 698.250023,197.414247 705.999989,199.196970 713.750008,201.130924 721.499975,202.859272 729.249994,204.277877 737.000013,205.898931 744.749979,207.520472 752.499998,209.088608 760.250017,210.893906 767.999983,212.830287 775.750002,214.700399 783.500021,216.320968 791.249987,218.075776 799.000006,219.862140 806.750025,221.604568 814.499992,223.428072 822.250011,225.424897 829.999977,227.398661 837.749996,229.058797 845.500015,230.824528 853.249981,232.649247 861.000000,234.406482 861.000000,234.406482"/>
	<rect fill="rgb(255,255,255)" stroke="none" stroke-opacity="0.7" x="86" y="23" width="329" height="17"/>
	<polyline fill="none" stroke="rgb(28,108,200)" stroke-width="1" stroke-opacity="1" points="86.000000,32.000000 116.000000,32.000000"/>
	<text x="121" y="32" fill="rgb(0,0,0)" dominant-baseline="central" font-size="11" font-family="Arial" text-anchor="start">Original values</text>
	<polyline fill="none" stroke="rgb(238,46,47)" stroke-width="1" stroke-opacity="1" points="202.000000,32.000000 232.000000,32.000000"/>
	<text x="237" y="32" fill="rgb(0,0,0)" dominant-baseline="central" font-size="11" font-family="Arial" text-anchor="start">Q_a = 38,737</text>
	<polyline fill="none" stroke="rgb(0,140,72)" stroke-width="1" stroke-opacity="1" points="312.000000,32.000000 342.000000,32.000000"/>
	<text x="347" y="32" fill="rgb(0,0,0)" dominant-baseline="central" font-size="11" font-family="Arial" text-anchor="start">Q_r = 12,912</text>
	<polyline fill="none" stroke="rgb(229,229,229)" stroke-width="1" stroke-opacity="1" points="86.000000,496.000000 86.000000,843.000000"/>
	<polyline fill="none" stroke="rgb(229,229,229)" stroke-width="1" stroke-opacity="1" points="113.678571,496.000000 113.678571,843.000000"/>
	<polyline fill="none" stroke="rgb(229,229,229)" stroke-width="1" stroke-opacity="1" points="141.357143,496.000000 141.357143,843.000000"/>
	<polyline fill="none" stroke="rgb(229,229,229)" stroke-width="1" stroke-opacity="1" points="169.035714,496.000000 169.035714,843.000000"/>
	<polyline fill="none" stroke="rgb(229,229,229)" stroke-width="1" stroke-opacity="1" points="196.714286,496.000000 196.714286,843.000000"/>
	<polyline fill="none" stroke="rgb(229,229,229)" stroke-width="1" stroke-opacity="1" points="224.392857,496.000000 224.392857,843.000000"/>
	<polyline fill="none" stroke="rgb(229,229,229)" stroke-width="1" stroke-opacity="1" points="252.071429,496.000000 252.071429,843.000000"/>
	<polyline fill="none" stroke="rgb(229,229,229)" stroke-width="1" stroke-opacity="1" points="279.750000,496.000000 279.750000,843.000000"/>
	<polyline fill="none" stroke="rgb(229,229,229)" stroke-width="1" stroke-opacity="1" points="307.428571,496.000000 307.428571,843.000000"/>
	<polyline fill="none" stroke="rgb(229,229,229)" stroke-width="1" stroke-opacity="1" points="335.107143,496.000000 335.107143,843.000000"/>
	<polyline fill="none" stroke="rgb(229,229,229)" stroke-width="1" stroke-opacity="1" points="362.785714,496.000000 362.785714,843.000000"/>
	<polyline fill="none" stroke="rgb(229,229,229)" stroke-width="1" stroke-opacity="1" points="390.464286,496.000000 390.464286,843.000000"/>
	<polyline fill="none" stroke="rgb(229,229,229)" stroke-width="1" stroke-opacity="1" points="418.142857,496.000000 418.142857,843.000000"/>
	<polyline fill="none" stroke="rgb(229,229,229)" stroke-width="1" stroke-opacity="1" points="445.821429,496.000000 445.821429,843.000000"/>
	<polyline fill="none" stroke="rgb(229,229,229)" stroke-width="1" stroke-opacity="1" points="473.500000,496.000000 473.500000,843.000000"/>
	<polyline fill="none" stroke="rgb(229,229,229)" stroke-width="1" stroke-opacity="1" points="501.178571,496.000000 501.178571,843.000000"/>
	<polyline fill="none" stroke="rgb(229,229,229)" stroke-width="1" stroke-opacity="1" points="528.857143,496.000000 528.857143,843.000000"/>
	<polyline fill="none" stroke="rgb(229,229,229)" stroke-width="1" stroke-opacity="1" points="556.535714,496.000000 556.535714,843.000000"/>
	<polyline fill="none" stroke="rgb(229,229,229)" stroke-width="1" stroke-opacity="1" points="584.214286,496.000000 584.214286,843.000000"/>
	<polyline fill="none" stroke="rgb(229,229,229)" stroke-width="1" stroke-opacity="1" points="611.892857,496.000000 611.892857,843.000000"/>
	<polyline fill="none" stroke="rgb(229,229,229)" stroke-width="1" stroke-opacity="1" points="639.571429,496.000000 639.571429,843.000000"/>
	<polyline fill="none" stroke="rgb(229,229,229)" stroke-width="1" stroke-opacity="1" points="667.250000,496.000000 667.250000,843.000000"/>
	<polyline fill="none" stroke="rgb(229,229,229)" stroke-width="1" stroke-opacity="1" points="694.928571,496.000000 694.928571,843.000000"/>
	<polyline fill="none" stroke="rgb(229,229,229)" stroke-width="1" stroke-opacity="1" points="722.607143,496.000000 722.607143,843.000000"/>
	<polyline fill="none" stroke="rgb(229,229,229)" stroke-width="1" stroke-opacity="1" points="750.285714,496.000000 750.285714,843.000000"/>
	<polyline fill="none" stroke="rgb(229,229,229)" stroke-width="1" stroke-opacity="1" points="777.964286,496.000000 777.964286,843.000000"/>
	<polyline fill="none" stroke="rgb(229,229,229)" stroke-width="1" stroke-opacity="1" points="805.642857,496.000000 805.642857,843.000000"/>
	<polyline fill="none" stroke="rgb(229,229,229)" stroke-width="1" stroke-opacity="1" points="833.321429,496.000000 833.321429,843.000000"/>
	<polyline fill="none" stroke="rgb(229,229,229)" stroke-width="1" stroke-opacity="1" points="861.000000,496.000000 861.000000,843.000000"/>
	<polyline fill="none" stroke="rgb(229,229,229)" stroke-width="1" stroke-opacity="1" points="86.000000,843.000000 861.000000,843.000000"/>
	<polyline fill="none" stroke="rgb(229,229,229)" stroke-width="1" stroke-opacity="1" points="86.000000,818.214286 861.000000,818.214286"/>
	<polyline fill="none" stroke="rgb(229,229,229)" stroke-width="1" stroke-opacity="1" points="86.000000,793.428571 861.000000,793.428571"/>
	<polyline fill="none" stroke="rgb(229,229,229)" stroke-width="1" stroke-opacity="1" points="86.000000,768.642857 861.000000,768.642857"/>
	<polyline fill="none" stroke="rgb(229,229,229)" stroke-width="1" stroke-opacity="1" points="86.000000,743.857143 861.000000,743.857143"/>
	<polyline fill="none" stroke="rgb(229,229,229)" stroke-width="1" stroke-opacity="1" points="86.000000,719.071429 861.000000,719.071429"/>
	<polyline fill="none" stroke="rgb(229,229,229)" stroke-width="1" stroke-opacity="1" points="86.000000,694.285714 861.000000,694.285714"/>
	<polyline fill="none" stroke="rgb(229,229,229)" stroke-width="1" stroke-opacity="1" points="86.000000,669.500000 861.000000,669.500000"/>
	<polyline fill="none" stroke="rgb(229,229,229)" stroke-width="1" stroke-opacity="1" points="86.000000,644.714286 861.000000,644.714286"/>
	<polyline fill="none" stroke="rgb(229,229,229)" stroke-width="1" stroke-opacity="1" points="86.000000,619.928571 861.000000,619.928571"/>
	<polyline fill="none" stroke="rgb(229,229,229)" stroke-width="1" stroke-opacity="1" points="86.000000,595.142857 861.000000,595.142857"/>
	<polyline fill="none" stroke="rgb(229,229,229)" stroke-width="1" stroke-opacity="1" points="86.000000,570.357143 861.000000,570.357143"/>
	<polyline fill="none" stroke="rgb(229,229,229)" stroke-width="1" stroke-opacity="1" points="86.000000,545.571429 861.000000,545.571429"/>
	<polyline fill="none" stroke="rgb(229,229,229)" stroke-width="1" stroke-opacity="1" points="86.000000,520.785714 861.000000,520.785714"/>
	<polyline fill="none" stroke="rgb(229,229,229)" stroke-width="1" stroke-opacity="1" points="86.000000,496.000000 861.000000,496.000000"/>
	<polyline fill="none" stroke="rgb(0,0,0)" stroke-width="1" stroke-opacity="1" points="86.000000,843.000000 861.000000,843.000000"/>
	<polyline fill="none" stroke="rgb(0,0,0)" stroke-width="1" stroke-opacity="1" points="861.000000,843.000000 861.000000,496.000000"/>
	<polyline fill="none" stroke="rgb(0,0,0)" stroke-width="1" stroke-opacity="1" points="861.000000,496.000000 86.000000,496.000000"/>
	<polyline fill="none" stroke="rgb(0,0,0)" stroke-width="1" stroke-opacity="1" points="86.000000,496.000000 86.000000,843.000000"/>
	<polyline fill="none" stroke="rgb(0,0,0)" stroke-width="1" stroke-opacity="1" points="86.000000,843.000000 86.000000,847.000000"/>
	<polyline fill="none" stroke="rgb(0,0,0)" stroke-width="1" stroke-opacity="1" points="113.678571,843.000000 113.678571,847.000000"/>
	<polyline fill="none" stroke="rgb(0,0,0)" stroke-width="1" stroke-opacity="1" points="141.357143,843.000000 141.357143,847.000000"/>
	<polyline fill="none" stroke="rgb(0,0,0)" stroke-width="1" stroke-opacity="1" points="169.035714,843.000000 169.035714,847.000000"/>
	<polyline fill="none" stroke="rgb(0,0,0)" stroke-width="1" stroke-opacity="1" points="196.714286,843.000000 196.714286,847.000000"/>
	<polyline fill="none" stroke="rgb(0,0,0)" stroke-width="1" stroke-opacity="1" points="224.392857,843.000000 224.392857,847.000000"/>
	<polyline fill="none" stroke="rgb(0,0,0)" stroke-width="1" stroke-opacity="1" points="252.071429,843.000000 252.071429,847.000000"/>
	<polyline fill="none" stroke="rgb(0,0,0)" stroke-width="1" stroke-opacity="1" points="279.750000,843.000000 279.750000,847.000000"/>
	<polyline fill="none" stroke="rgb(0,0,0)" stroke-width="1" stroke-opacity="1" points="307.428571,843.000000 307.428571,847.000000"/>
	<polyline fill="none" stroke="rgb(0,0,0)" stroke-width="1" stroke-opacity="1" points="335.107143,843.000000 335.107143,847.000000"/>
	<polyline fill="none" stroke="rgb(0,0,0)" stroke-width="1" stroke-opacity="1" points="362.785714,843.000000 362.785714,847.000000"/>
	<polyline fill="none" stroke="rgb(0,0,0)" stroke-width="1" stroke-opacity="1" points="390.464286,843.000000 390.464286,847.000000"/>
	<polyline fill="none" stroke="rgb(0,0,0)" stroke-width="1" stroke-opacity="1" points="418.142857,843.000000 418.142857,847.000000"/>
	<polyline fill="none" stroke="rgb(0,0,0)" stroke-width="1" stroke-opacity="1" points="445.821429,843.000000 445.821429,847.000000"/>
	<polyline fill="none" stroke="rgb(0,0,0)" stroke-width="1" stroke-opacity="1" points="473.500000,843.000000 473.500000,847.000000"/>
	<polyline fill="none" stroke="rgb(0,0,0)" stroke-width="1" stroke-opacity="1" points="501.178571,843.000000 501.178571,847.000000"/>
	<polyline fill="none" stroke="rgb(0,0,0)" stroke-width="1" stroke-opacity="1" points="528.857143,843.000000 528.857143,847.000000"/>
	<polyline fill="none" stroke="rgb(0,0,0)" stroke-width="1" stroke-opacity="1" points="556.535714,843.000000 556.535714,847.000000"/>
	<polyline fill="none" stroke="rgb(0,0,0)" stroke-width="1" stroke-opacity="1" points="584.214286,843.000000 584.214286,847.000000"/>
	<polyline fill="none" stroke="rgb(0,0,0)" stroke-width="1" stroke-opacity="1" points="611.892857,843.000000 611.892857,847.000000"/>
	<polyline fill="none" stroke="rgb(0,0,0)" stroke-width="1" stroke-opacity="1" points="639.571429,843.000000 639.571429,847.000000"/>
	<polyline fill="none" stroke="rgb(0,0,0)" stroke-width="1" stroke-opacity="1" points="667.250000,843.000000 667.250000,847.000000"/>
	<polyline fill="none" stroke="rgb(0,0,0)" stroke-width="1" stroke-opacity="1" points="694.928571,843.000000 694.928571,847.000000"/>
	<polyline fill="none" stroke="rgb(0,0,0)" stroke-width="1" stroke-opacity="1" points="722.607143,843.000000 722.607143,847.000000"/>
	<polyline fill="none" stroke="rgb(0,0,0)" stroke-width="1" stroke-opacity="1" points="750.285714,843.000000 750.285714,847.000000"/>
	<polyline fill="none" stroke="rgb(0,0,0)" stroke-width="1" stroke-opacity="1" points="777.964286,843.000000 777.964286,847.000000"/>
	<polyline fill="none" stroke="rgb(0,0,0)" stroke-width="1" stroke-opacity="1" points="805.642857,843.000000 805.642857,847.000000"/>
	<polyline fill="none" stroke="rgb(0,0,0)" stroke-width="1" stroke-opacity="1" points="833.321429,843.000000 833.321429,847.000000"/>
	<polyline fill="none" stroke="rgb(0,0,0)" stroke-width="1" stroke-opacity="1" points="861.000000,843.000000 861.000000,847.000000"/>
	<polyline fill="none" stroke="rgb(0,0,0)" stroke-width="1" stroke-opacity="1" points="86.000000,843.000000 86.000000,849.400000"/>
	<text x="86" y="858" fill="rgb(0,0,0)" dominant-baseline="central" font-size="11" font-family="Arial" text-anchor="middle">0.0</text>
	<polyline fill="none" stroke="rgb(0,0,0)" stroke-width="1" stroke-opacity="1" points="224.392857,843.000000 224.392857,849.400000"/>
	<text x="224.393" y="858" fill="rgb(0,0,0)" dominant-baseline="central" font-size="11" font-family="Arial" text-anchor="middle">2.5</text>
	<polyline fill="none" stroke="rgb(0,0,0)" stroke-width="1" stroke-opacity="1" points="362.785714,843.000000 362.785714,849.400000"/>
	<text x="362.786" y="858" fill="rgb(0,0,0)" dominant-baseline="central" font-size="11" font-family="Arial" text-anchor="middle">5.0</text>
	<polyline fill="none" stroke="rgb(0,0,0)" stroke-width="1" stroke-opacity="1" points="501.178571,843.000000 501.178571,849.400000"/>
	<text x="501.179" y="858" fill="rgb(0,0,0)" dominant-baseline="central" font-size="11" font-family="Arial" text-anchor="middle">7.5</text>
	<polyline fill="none" stroke="rgb(0,0,0)" stroke-width="1" stroke-opacity="1" points="639.571429,843.000000 639.571429,849.400000"/>
	<text x="639.571" y="858" fill="rgb(0,0,0)" dominant-baseline="central" font-size="11" font-family="Arial" text-anchor="middle">10.0</text>
	<polyline fill="none" stroke="rgb(0,0,0)" stroke-width="1" stroke-opacity="1" points="777.964286,843.000000 777.964286,849.400000"/>
	<text x="777.964" y="858" fill="rgb(0,0,0)" dominant-baseline="central" font-size="11" font-family="Arial" text-anchor="middle">12.5</text>
	<polyline fill="none" stroke="rgb(0,0,0)" stroke-width="1" stroke-opacity="1" points="82.000000,843.000000 86.000000,843.000000"/>
	<polyline fill="none" stroke="rgb(0,0,0)" stroke-width="1" stroke-opacity="1" points="82.000000,818.214286 86.000000,818.214286"/>
	<polyline fill="none" stroke="rgb(0,0,0)" stroke-width="1" stroke-opacity="1" points="82.000000,793.428571 86.000000,793.428571"/>
	<polyline fill="none" stroke="rgb(0,0,0)" stroke-width="1" stroke-opacity="1" points="82.000000,768.642857 86.000000,768.642857"/>
	<polyline fill="none" stroke="rgb(0,0,0)" stroke-width="1" stroke-opacity="1" points="82.000000,743.857143 86.000000,743.857143"/>
	<polyline fill="none" stroke="rgb(0,0,0)" stroke-width="1" stroke-opacity="1" points="82.000000,719.071429 86.000000,719.071429"/>
	<polyline fill="none" stroke="rgb(0,0,0)" stroke-width="1" stroke-opacity="1" points="82.000000,694.285714 86.000000,694.285714"/>
	<polyline fill="none" stroke="rgb(0,0,0)" stroke-width="1" stroke-opacity="1" points="82.000000,669.500000 86.000000,669.500000"/>
	<polyline fill="none" stroke="rgb(0,0,0)" stroke-width="1" stroke-opacity="1" points="82.000000,644.714286 86.000000,644.714286"/>
	<polyline fill="none" stroke="rgb(0,0,0)" stroke-width="1" stroke-opacity="1" points="82.000000,619.928571 86.000000,619.928571"/>
	<polyline fill="none" stroke="rgb(0,0,0)" stroke-width="1" stroke-opacity="1" points="82.000000,595.142857 86.000000,595.142857"/>
	<polyline fill="none" stroke="rgb(0,0,0)" stroke-width="1" stroke-opacity="1" points="82.000000,570.357143 86.000000,570.357143"/>
	<polyline fill="none" stroke="rgb(0,0,0)" stroke-width="1" stroke-opacity="1" points="82.000000,545.571429 86.000000,545.571429"/>
	<polyline fill="none" stroke="rgb(0,0,0)" stroke-width="1" stroke-opacity="1" points="82.000000,520.785714 86.000000,520.785714"/>
	<polyline fill="none" stroke="rgb(0,0,0)" stroke-width="1" stroke-opacity="1" points="82.000000,496.000000 86.000000,496.000000"/>
	<rect fill="none" stroke="none" stroke-dasharray="none" stroke-width="1" stroke-opacity="1" x="27" y="836" width="51" height="14"/>
	<polyline fill="none" stroke="rgb(0,0,0)" stroke-width="1" stroke-opacity="1" points="79.600000,843.000000 86.000000,843.000000"/>
	<text x="78" y="843" fill="rgb(0,0,0)" dominant-baseline="central" font-size="11" font-family="Arial" text-anchor="end">320</text>
	<polyline fill="none" stroke="rgb(0,0,0)" stroke-width="1" stroke-opacity="1" points="79.600000,793.428571 86.000000,793.428571"/>
	<text x="78" y="793.429" fill="rgb(0,0,0)" dominant-baseline="central" font-size="11" font-family="Arial" text-anchor="end">330</text>
	<polyline fill="none" stroke="rgb(0,0,0)" stroke-width="1" stroke-opacity="1" points="79.600000,743.857143 86.000000,743.857143"/>
	<text x="78" y="743.857" fill="rgb(0,0,0)" dominant-baseline="central" font-size="11" font-family="Arial" text-anchor="end">340</text>
	<polyline fill="none" stroke="rgb(0,0,0)" stroke-width="1" stroke-opacity="1" points="79.600000,694.285714 86.000000,694.285714"/>
	<text x="78" y="694.286" fill="rgb(0,0,0)" dominant-baseline="central" font-size="11" font-family="Arial" text-anchor="end">350</text>
	<polyline fill="none" stroke="rgb(0,0,0)" stroke-width="1" stroke-opacity="1" points="79.600000,644.714286 86.000000,644.714286"/>
	<text x="78" y="644.714" fill="rgb(0,0,0)" dominant-baseline="central" font-size="11" font-family="Arial" text-anchor="end">360</text>
	<polyline fill="none" stroke="rgb(0,0,0)" stroke-width="1" stroke-opacity="1" points="79.600000,595.142857 86.000000,595.142857"/>
	<text x="78" y="595.143" fill="rgb(0,0,0)" dominant-baseline="central" font-size="11" font-family="Arial" text-anchor="end">370</text>
	<polyline fill="none" stroke="rgb(0,0,0)" stroke-width="1" stroke-opacity="1" points="79.600000,545.571429 86.000000,545.571429"/>
	<text x="78" y="545.571" fill="rgb(0,0,0)" dominant-baseline="central" font-size="11" font-family="Arial" text-anchor="end">380</text>
	<polyline fill="none" stroke="rgb(0,0,0)" stroke-width="1" stroke-opacity="1" points="79.600000,496.000000 86.000000,496.000000"/>
	<text x="78" y="496" fill="rgb(0,0,0)" dominant-baseline="central" font-size="11" font-family="Arial" text-anchor="end">390</text>
	<text x="25" y="669.5" fill="rgb(0,0,0)" dominant-baseline="central" transform="rotate(-90 25,669.5)" font-size="11" font-family="Arial" text-anchor="middle">PE [kWh/d]</text>
	<text x="473.5" y="877" fill="rgb(0,0,0)" dominant-baseline="central" font-size="11" font-family="Arial" text-anchor="middle">Days</text>
	<text x="473.5" y="460" fill="rgb(0,0,0)" dominant-baseline="central" font-size="11" font-family="Arial" text-anchor="middle">PE for changes in Q_a and Q_r</text>
	<clipPath id="clipArea2">
		<rect x="86" y="496" width="775" height="347">
		</rect>
	</clipPath>
	<polyline fill="none" stroke="rgb(28,108,200)" stroke-width="1" stroke-opacity="1" clip-path="url(#clipArea2)" points="86.000000,505.090869 93.750000,505.090869 101.500000,505.090869 109.249999,505.090717 117.000000,505.090717 124.749999,505.090717 132.499999,505.090717 140.250001,505.090717 148.000000,505.090717 155.749999,505.090566 163.499999,505.090566 171.249998,505.090566 178.999997,505.090566 186.750003,505.090566 194.500002,505.090566 202.249995,505.090415 210.000001,505.090415 217.750006,505.090415 225.499999,505.090415 233.250005,505.090415 240.999997,505.090415 248.750003,505.090264 256.499996,505.090264 264.250002,505.090264 271.999994,505.090264 279.750000,505.090264 287.500006,505.090264 295.249998,505.090112 303.000004,505.090112 310.749997,505.090112 318.499989,505.090112 326.250008,505.090112 334.000001,505.090112 341.749994,505.089961 349.500013,505.089961 357.250005,505.089961 364.999998,505.089961 372.749990,505.089961 380.500010,505.089961 388.250002,505.089810 395.999995,505.089810 403.749987,505.089810 411.500006,505.089810 419.249999,505.089810 426.999992,505.089810 434.750011,505.089658 442.500003,505.089658 450.249996,505.089658 457.999988,505.089658 465.750007,505.089658 473.500000,505.089658 481.249993,505.089507 489.000012,505.089507 496.750004,505.089507 504.499997,505.089507 512.249989,505.089507 520.000008,505.089507 527.750001,505.089507 535.499994,505.089356 543.250013,505.089356 550.999979,505.089356 558.749998,505.089356 566.500017,505.089356 574.249983,505.089356 582.000002,505.089356 589.750021,505.089205 597.499987,505.089205 605.250006,505.089205 613.000025,505.089205 620.749992,505.089205 628.500011,505.089205 636.249977,505.089053 643.999996,505.089053 651.750015,505.089053 659.499981,505.089053 667.250000,505.089053 675.000019,505.089053 682.749985,505.089053 690.500004,505.088902 698.250023,505.088902 705.999989,505.088902 713.750008,505.088902 721.499975,505.088902 729.249994,505.088902 737.000013,505.088902 744.749979,505.088751 752.499998,505.088751 760.250017,505.088751 767.999983,505.088751 775.750002,505.088751 783.500021,505.088751 791.249987,505.088751 799.000006,505.088600 806.750025,505.088600 814.499992,505.088600 822.250011,505.088600 829.999977,505.088600 837.749996,505.088600 845.500015,505.088600 853.249981,505.088448 861.000000,505.088448 861.000000,505.088448"/>
	<polyline fill="none" stroke="rgb(238,46,47)" stroke-width="1" stroke-opacity="1" clip-path="url(#clipArea2)" points="86.000000,834.261614 93.750000,834.261614 101.500000,834.261614 109.249999,834.261614 117.000000,834.261462 124.749999,834.261462 132.499999,834.261462 140.250001,834.261462 148.000000,834.261462 155.749999,834.261462 163.499999,834.261462 171.249998,834.261311 178.999997,834.261311 186.750003,834.261311 194.500002,834.261311 202.249995,834.261311 210.000001,834.261311 217.750006,834.261311 225.499999,834.261160 233.250005,834.261160 240.999997,834.261160 248.750003,834.261160 256.499996,834.261160 264.250002,834.261160 271.999994,834.261160 279.750000,834.261009 287.500006,834.261009 295.249998,834.261009 303.000004,834.261009 310.749997,834.261009 318.499989,834.261009 326.250008,834.261009 334.000001,834.260857 341.749994,834.260857 349.500013,834.260857 357.250005,834.260857 364.999998,834.260857 372.749990,834.260857 380.500010,834.260857 388.250002,834.260857 395.999995,834.260706 403.749987,834.260706 411.500006,834.260706 419.249999,834.260706 426.999992,834.260706 434.750011,834.260706 442.500003,834.260706 450.249996,834.260555 457.999988,834.260555 465.750007,834.260555 473.500000,834.260555 481.249993,834.260555 489.000012,834.260555 496.750004,834.260555 504.499997,834.260555 512.249989,834.260403 520.000008,834.260403 527.750001,834.260403 535.499994,834.260403 543.250013,834.260403 550.999979,834.260403 558.749998,834.260403 566.500017,834.260403 574.249983,834.260252 582.000002,834.260252 589.750021,834.260252 597.499987,834.260252 605.250006,834.260252 613.000025,834.260252 620.749992,834.260252 628.500011,834.260252 636.249977,834.260101 643.999996,834.260101 651.750015,834.260101 659.499981,834.260101 667.250000,834.260101 675.000019,834.260101 682.749985,834.260101 690.500004,834.260101 698.250023,834.260101 705.999989,834.259950 713.750008,834.259950 721.499975,834.259950 729.249994,834.259950 737.000013,834.259950 744.749979,834.259950 752.499998,834.259950 760.250017,834.259950 767.999983,834.259798 775.750002,834.259798 783.500021,834.259798 791.249987,834.259798 799.000006,834.259798 806.750025,834.259798 814.499992,834.259798 822.250011,834.259798 829.999977,834.259798 837.749996,834.259647 845.500015,834.259647 853.249981,834.259647 861.000000,834.259647 861.000000,834.259647"/>
	<polyline fill="none" stroke="rgb(0,140,72)" stroke-width="1" stroke-opacity="1" clip-path="url(#clipArea2)" points="86.000000,724.551244 93.750000,724.551244 101.500000,724.551244 109.249999,724.551244 117.000000,724.551093 124.749999,724.551093 132.499999,724.551093 140.250001,724.551093 148.000000,724.551093 155.749999,724.551093 163.499999,724.550941 171.249998,724.550941 178.999997,724.550941 186.750003,724.550941 194.500002,724.550941 202.249995,724.550941 210.000001,724.550941 217.750006,724.550790 225.499999,724.550790 233.250005,724.550790 240.999997,724.550790 248.750003,724.550790 256.499996,724.550790 264.250002,724.550639 271.999994,724.550639 279.750000,724.550639 287.500006,724.550639 295.249998,724.550639 303.000004,724.550639 310.749997,724.550639 318.499989,724.550487 326.250008,724.550487 334.000001,724.550487 341.749994,724.550487 349.500013,724.550487 357.250005,724.550487 364.999998,724.550487 372.749990,724.550336 380.500010,724.550336 388.250002,724.550336 395.999995,724.550336 403.749987,724.550336 411.500006,724.550336 419.249999,724.550336 426.999992,724.550185 434.750011,724.550185 442.500003,724.550185 450.249996,724.550185 457.999988,724.550185 465.750007,724.550185 473.500000,724.550185 481.249993,724.550034 489.000012,724.550034 496.750004,724.550034 504.499997,724.550034 512.249989,724.550034 520.000008,724.550034 527.750001,724.550034 535.499994,724.550034 543.250013,724.549882 550.999979,724.549882 558.749998,724.549882 566.500017,724.549882 574.249983,724.549882 582.000002,724.549882 589.750021,724.549882 597.499987,724.549731 605.250006,724.549731 613.000025,724.549731 620.749992,724.549731 628.500011,724.549731 636.249977,724.549731 643.999996,724.549731 651.750015,724.549731 659.499981,724.549580 667.250000,724.549580 675.000019,724.549580 682.749985,724.549580 690.500004,724.549580 698.250023,724.549580 705.999989,724.549580 713.750008,724.549580 721.499975,724.549428 729.249994,724.549428 737.000013,724.549428 744.749979,724.549428 752.499998,724.549428 760.250017,724.549428 767.999983,724.549428 775.750002,724.549428 783.500021,724.549277 791.249987,724.549277 799.000006,724.549277 806.750025,724.549277 814.499992,724.549277 822.250011,724.549277 829.999977,724.549277 837.749996,724.549277 845.500015,724.549126 853.249981,724.549126 861.000000,724.549126 861.000000,724.549126"/>
	<rect fill="rgb(255,255,255)" stroke="none" stroke-opacity="0.7" x="86" y="471" width="329" height="17"/>
	<polyline fill="none" stroke="rgb(28,108,200)" stroke-width="1" stroke-opacity="1" points="86.000000,480.000000 116.000000,480.000000"/>
	<text x="121" y="480" fill="rgb(0,0,0)" dominant-baseline="central" font-size="11" font-family="Arial" text-anchor="start">Original values</text>
	<polyline fill="none" stroke="rgb(238,46,47)" stroke-width="1" stroke-opacity="1" points="202.000000,480.000000 232.000000,480.000000"/>
	<text x="237" y="480" fill="rgb(0,0,0)" dominant-baseline="central" font-size="11" font-family="Arial" text-anchor="start">Q_a = 38,737</text>
	<polyline fill="none" stroke="rgb(0,140,72)" stroke-width="1" stroke-opacity="1" points="312.000000,480.000000 342.000000,480.000000"/>
	<text x="347" y="480" fill="rgb(0,0,0)" dominant-baseline="central" font-size="11" font-family="Arial" text-anchor="start">Q_r = 12,912</text>
</svg>
