<?xml version="1.0" standalone="no"?>
<!DOCTYPE svg PUBLIC "-//W3C//DTD SVG 1.1//EN" "http://www.w3.org/Graphics/SVG/1.1/DTD/svg11.dtd">
<svg viewBox="0 0 814.000000 905.000000" version="1.1" xmlns="http://www.w3.org/2000/svg" xmlns:xlink="http://www.w3.org/1999/xlink">
	<polyline fill="none" stroke="rgb(229,229,229)" stroke-width="1" stroke-opacity="1" points="86.000000,48.000000 86.000000,396.000000"/>
	<polyline fill="none" stroke="rgb(229,229,229)" stroke-width="1" stroke-opacity="1" points="111.107143,48.000000 111.107143,396.000000"/>
	<polyline fill="none" stroke="rgb(229,229,229)" stroke-width="1" stroke-opacity="1" points="136.214286,48.000000 136.214286,396.000000"/>
	<polyline fill="none" stroke="rgb(229,229,229)" stroke-width="1" stroke-opacity="1" points="161.321429,48.000000 161.321429,396.000000"/>
	<polyline fill="none" stroke="rgb(229,229,229)" stroke-width="1" stroke-opacity="1" points="186.428571,48.000000 186.428571,396.000000"/>
	<polyline fill="none" stroke="rgb(229,229,229)" stroke-width="1" stroke-opacity="1" points="211.535714,48.000000 211.535714,396.000000"/>
	<polyline fill="none" stroke="rgb(229,229,229)" stroke-width="1" stroke-opacity="1" points="236.642857,48.000000 236.642857,396.000000"/>
	<polyline fill="none" stroke="rgb(229,229,229)" stroke-width="1" stroke-opacity="1" points="261.750000,48.000000 261.750000,396.000000"/>
	<polyline fill="none" stroke="rgb(229,229,229)" stroke-width="1" stroke-opacity="1" points="286.857143,48.000000 286.857143,396.000000"/>
	<polyline fill="none" stroke="rgb(229,229,229)" stroke-width="1" stroke-opacity="1" points="311.964286,48.000000 311.964286,396.000000"/>
	<polyline fill="none" stroke="rgb(229,229,229)" stroke-width="1" stroke-opacity="1" points="337.071429,48.000000 337.071429,396.000000"/>
	<polyline fill="none" stroke="rgb(229,229,229)" stroke-width="1" stroke-opacity="1" points="362.178571,48.000000 362.178571,396.000000"/>
	<polyline fill="none" stroke="rgb(229,229,229)" stroke-width="1" stroke-opacity="1" points="387.285714,48.000000 387.285714,396.000000"/>
	<polyline fill="none" stroke="rgb(229,229,229)" stroke-width="1" stroke-opacity="1" points="412.392857,48.000000 412.392857,396.000000"/>
	<polyline fill="none" stroke="rgb(229,229,229)" stroke-width="1" stroke-opacity="1" points="437.500000,48.000000 437.500000,396.000000"/>
	<polyline fill="none" stroke="rgb(229,229,229)" stroke-width="1" stroke-opacity="1" points="462.607143,48.000000 462.607143,396.000000"/>
	<polyline fill="none" stroke="rgb(229,229,229)" stroke-width="1" stroke-opacity="1" points="487.714286,48.000000 487.714286,396.000000"/>
	<polyline fill="none" stroke="rgb(229,229,229)" stroke-width="1" stroke-opacity="1" points="512.821429,48.000000 512.821429,396.000000"/>
	<polyline fill="none" stroke="rgb(229,229,229)" stroke-width="1" stroke-opacity="1" points="537.928571,48.000000 537.928571,396.000000"/>
	<polyline fill="none" stroke="rgb(229,229,229)" stroke-width="1" stroke-opacity="1" points="563.035714,48.000000 563.035714,396.000000"/>
	<polyline fill="none" stroke="rgb(229,229,229)" stroke-width="1" stroke-opacity="1" points="588.142857,48.000000 588.142857,396.000000"/>
	<polyline fill="none" stroke="rgb(229,229,229)" stroke-width="1" stroke-opacity="1" points="613.250000,48.000000 613.250000,396.000000"/>
	<polyline fill="none" stroke="rgb(229,229,229)" stroke-width="1" stroke-opacity="1" points="638.357143,48.000000 638.357143,396.000000"/>
	<polyline fill="none" stroke="rgb(229,229,229)" stroke-width="1" stroke-opacity="1" points="663.464286,48.000000 663.464286,396.000000"/>
	<polyline fill="none" stroke="rgb(229,229,229)" stroke-width="1" stroke-opacity="1" points="688.571429,48.000000 688.571429,396.000000"/>
	<polyline fill="none" stroke="rgb(229,229,229)" stroke-width="1" stroke-opacity="1" points="713.678571,48.000000 713.678571,396.000000"/>
	<polyline fill="none" stroke="rgb(229,229,229)" stroke-width="1" stroke-opacity="1" points="738.785714,48.000000 738.785714,396.000000"/>
	<polyline fill="none" stroke="rgb(229,229,229)" stroke-width="1" stroke-opacity="1" points="763.892857,48.000000 763.892857,396.000000"/>
	<polyline fill="none" stroke="rgb(229,229,229)" stroke-width="1" stroke-opacity="1" points="789.000000,48.000000 789.000000,396.000000"/>
	<polyline fill="none" stroke="rgb(229,229,229)" stroke-width="1" stroke-opacity="1" points="86.000000,396.000000 789.000000,396.000000"/>
	<polyline fill="none" stroke="rgb(229,229,229)" stroke-width="1" stroke-opacity="1" points="86.000000,371.142857 789.000000,371.142857"/>
	<polyline fill="none" stroke="rgb(229,229,229)" stroke-width="1" stroke-opacity="1" points="86.000000,346.285714 789.000000,346.285714"/>
	<polyline fill="none" stroke="rgb(229,229,229)" stroke-width="1" stroke-opacity="1" points="86.000000,321.428571 789.000000,321.428571"/>
	<polyline fill="none" stroke="rgb(229,229,229)" stroke-width="1" stroke-opacity="1" points="86.000000,296.571429 789.000000,296.571429"/>
	<polyline fill="none" stroke="rgb(229,229,229)" stroke-width="1" stroke-opacity="1" points="86.000000,271.714286 789.000000,271.714286"/>
	<polyline fill="none" stroke="rgb(229,229,229)" stroke-width="1" stroke-opacity="1" points="86.000000,246.857143 789.000000,246.857143"/>
	<polyline fill="none" stroke="rgb(229,229,229)" stroke-width="1" stroke-opacity="1" points="86.000000,222.000000 789.000000,222.000000"/>
	<polyline fill="none" stroke="rgb(229,229,229)" stroke-width="1" stroke-opacity="1" points="86.000000,197.142857 789.000000,197.142857"/>
	<polyline fill="none" stroke="rgb(229,229,229)" stroke-width="1" stroke-opacity="1" points="86.000000,172.285714 789.000000,172.285714"/>
	<polyline fill="none" stroke="rgb(229,229,229)" stroke-width="1" stroke-opacity="1" points="86.000000,147.428571 789.000000,147.428571"/>
	<polyline fill="none" stroke="rgb(229,229,229)" stroke-width="1" stroke-opacity="1" points="86.000000,122.571429 789.000000,122.571429"/>
	<polyline fill="none" stroke="rgb(229,229,229)" stroke-width="1" stroke-opacity="1" points="86.000000,97.714286 789.000000,97.714286"/>
	<polyline fill="none" stroke="rgb(229,229,229)" stroke-width="1" stroke-opacity="1" points="86.000000,72.857143 789.000000,72.857143"/>
	<polyline fill="none" stroke="rgb(229,229,229)" stroke-width="1" stroke-opacity="1" points="86.000000,48.000000 789.000000,48.000000"/>
	<polyline fill="none" stroke="rgb(0,0,0)" stroke-width="1" stroke-opacity="1" points="86.000000,396.000000 789.000000,396.000000"/>
	<polyline fill="none" stroke="rgb(0,0,0)" stroke-width="1" stroke-opacity="1" points="789.000000,396.000000 789.000000,48.000000"/>
	<polyline fill="none" stroke="rgb(0,0,0)" stroke-width="1" stroke-opacity="1" points="789.000000,48.000000 86.000000,48.000000"/>
	<polyline fill="none" stroke="rgb(0,0,0)" stroke-width="1" stroke-opacity="1" points="86.000000,48.000000 86.000000,396.000000"/>
	<polyline fill="none" stroke="rgb(0,0,0)" stroke-width="1" stroke-opacity="1" points="86.000000,396.000000 86.000000,400.000000"/>
	<polyline fill="none" stroke="rgb(0,0,0)" stroke-width="1" stroke-opacity="1" points="111.107143,396.000000 111.107143,400.000000"/>
	<polyline fill="none" stroke="rgb(0,0,0)" stroke-width="1" stroke-opacity="1" points="136.214286,396.000000 136.214286,400.000000"/>
	<polyline fill="none" stroke="rgb(0,0,0)" stroke-width="1" stroke-opacity="1" points="161.321429,396.000000 161.321429,400.000000"/>
	<polyline fill="none" stroke="rgb(0,0,0)" stroke-width="1" stroke-opacity="1" points="186.428571,396.000000 186.428571,400.000000"/>
	<polyline fill="none" stroke="rgb(0,0,0)" stroke-width="1" stroke-opacity="1" points="211.535714,396.000000 211.535714,400.000000"/>
	<polyline fill="none" stroke="rgb(0,0,0)" stroke-width="1" stroke-opacity="1" points="236.642857,396.000000 236.642857,400.000000"/>
	<polyline fill="none" stroke="rgb(0,0,0)" stroke-width="1" stroke-opacity="1" points="261.750000,396.000000 261.750000,400.000000"/>
	<polyline fill="none" stroke="rgb(0,0,0)" stroke-width="1" stroke-opacity="1" points="286.857143,396.000000 286.857143,400.000000"/>
	<polyline fill="none" stroke="rgb(0,0,0)" stroke-width="1" stroke-opacity="1" points="311.964286,396.000000 311.964286,400.000000"/>
	<polyline fill="none" stroke="rgb(0,0,0)" stroke-width="1" stroke-opacity="1" points="337.071429,396.000000 337.071429,400.000000"/>
	<polyline fill="none" stroke="rgb(0,0,0)" stroke-width="1" stroke-opacity="1" points="362.178571,396.000000 362.178571,400.000000"/>
	<polyline fill="none" stroke="rgb(0,0,0)" stroke-width="1" stroke-opacity="1" points="387.285714,396.000000 387.285714,400.000000"/>
	<polyline fill="none" stroke="rgb(0,0,0)" stroke-width="1" stroke-opacity="1" points="412.392857,396.000000 412.392857,400.000000"/>
	<polyline fill="none" stroke="rgb(0,0,0)" stroke-width="1" stroke-opacity="1" points="437.500000,396.000000 437.500000,400.000000"/>
	<polyline fill="none" stroke="rgb(0,0,0)" stroke-width="1" stroke-opacity="1" points="462.607143,396.000000 462.607143,400.000000"/>
	<polyline fill="none" stroke="rgb(0,0,0)" stroke-width="1" stroke-opacity="1" points="487.714286,396.000000 487.714286,400.000000"/>
	<polyline fill="none" stroke="rgb(0,0,0)" stroke-width="1" stroke-opacity="1" points="512.821429,396.000000 512.821429,400.000000"/>
	<polyline fill="none" stroke="rgb(0,0,0)" stroke-width="1" stroke-opacity="1" points="537.928571,396.000000 537.928571,400.000000"/>
	<polyline fill="none" stroke="rgb(0,0,0)" stroke-width="1" stroke-opacity="1" points="563.035714,396.000000 563.035714,400.000000"/>
	<polyline fill="none" stroke="rgb(0,0,0)" stroke-width="1" stroke-opacity="1" points="588.142857,396.000000 588.142857,400.000000"/>
	<polyline fill="none" stroke="rgb(0,0,0)" stroke-width="1" stroke-opacity="1" points="613.250000,396.000000 613.250000,400.000000"/>
	<polyline fill="none" stroke="rgb(0,0,0)" stroke-width="1" stroke-opacity="1" points="638.357143,396.000000 638.357143,400.000000"/>
	<polyline fill="none" stroke="rgb(0,0,0)" stroke-width="1" stroke-opacity="1" points="663.464286,396.000000 663.464286,400.000000"/>
	<polyline fill="none" stroke="rgb(0,0,0)" stroke-width="1" stroke-opacity="1" points="688.571429,396.000000 688.571429,400.000000"/>
	<polyline fill="none" stroke="rgb(0,0,0)" stroke-width="1" stroke-opacity="1" points="713.678571,396.000000 713.678571,400.000000"/>
	<polyline fill="none" stroke="rgb(0,0,0)" stroke-width="1" stroke-opacity="1" points="738.785714,396.000000 738.785714,400.000000"/>
	<polyline fill="none" stroke="rgb(0,0,0)" stroke-width="1" stroke-opacity="1" points="763.892857,396.000000 763.892857,400.000000"/>
	<polyline fill="none" stroke="rgb(0,0,0)" stroke-width="1" stroke-opacity="1" points="789.000000,396.000000 789.000000,400.000000"/>
	<polyline fill="none" stroke="rgb(0,0,0)" stroke-width="1" stroke-opacity="1" points="86.000000,396.000000 86.000000,402.400000"/>
	<text x="86" y="411" fill="rgb(0,0,0)" dominant-baseline="central" font-size="11" font-family="Arial" text-anchor="middle">0.0</text>
	<polyline fill="none" stroke="rgb(0,0,0)" stroke-width="1" stroke-opacity="1" points="211.535714,396.000000 211.535714,402.400000"/>
	<text x="211.536" y="411" fill="rgb(0,0,0)" dominant-baseline="central" font-size="11" font-family="Arial" text-anchor="middle">2.5</text>
	<polyline fill="none" stroke="rgb(0,0,0)" stroke-width="1" stroke-opacity="1" points="337.071429,396.000000 337.071429,402.400000"/>
	<text x="337.071" y="411" fill="rgb(0,0,0)" dominant-baseline="central" font-size="11" font-family="Arial" text-anchor="middle">5.0</text>
	<polyline fill="none" stroke="rgb(0,0,0)" stroke-width="1" stroke-opacity="1" points="462.607143,396.000000 462.607143,402.400000"/>
	<text x="462.607" y="411" fill="rgb(0,0,0)" dominant-baseline="central" font-size="11" font-family="Arial" text-anchor="middle">7.5</text>
	<polyline fill="none" stroke="rgb(0,0,0)" stroke-width="1" stroke-opacity="1" points="588.142857,396.000000 588.142857,402.400000"/>
	<text x="588.143" y="411" fill="rgb(0,0,0)" dominant-baseline="central" font-size="11" font-family="Arial" text-anchor="middle">10.0</text>
	<polyline fill="none" stroke="rgb(0,0,0)" stroke-width="1" stroke-opacity="1" points="713.678571,396.000000 713.678571,402.400000"/>
	<text x="713.679" y="411" fill="rgb(0,0,0)" dominant-baseline="central" font-size="11" font-family="Arial" text-anchor="middle">12.5</text>
	<polyline fill="none" stroke="rgb(0,0,0)" stroke-width="1" stroke-opacity="1" points="82.000000,396.000000 86.000000,396.000000"/>
	<polyline fill="none" stroke="rgb(0,0,0)" stroke-width="1" stroke-opacity="1" points="82.000000,371.142857 86.000000,371.142857"/>
	<polyline fill="none" stroke="rgb(0,0,0)" stroke-width="1" stroke-opacity="1" points="82.000000,346.285714 86.000000,346.285714"/>
	<polyline fill="none" stroke="rgb(0,0,0)" stroke-width="1" stroke-opacity="1" points="82.000000,321.428571 86.000000,321.428571"/>
	<polyline fill="none" stroke="rgb(0,0,0)" stroke-width="1" stroke-opacity="1" points="82.000000,296.571429 86.000000,296.571429"/>
	<polyline fill="none" stroke="rgb(0,0,0)" stroke-width="1" stroke-opacity="1" points="82.000000,271.714286 86.000000,271.714286"/>
	<polyline fill="none" stroke="rgb(0,0,0)" stroke-width="1" stroke-opacity="1" points="82.000000,246.857143 86.000000,246.857143"/>
	<polyline fill="none" stroke="rgb(0,0,0)" stroke-width="1" stroke-opacity="1" points="82.000000,222.000000 86.000000,222.000000"/>
	<polyline fill="none" stroke="rgb(0,0,0)" stroke-width="1" stroke-opacity="1" points="82.000000,197.142857 86.000000,197.142857"/>
	<polyline fill="none" stroke="rgb(0,0,0)" stroke-width="1" stroke-opacity="1" points="82.000000,172.285714 86.000000,172.285714"/>
	<polyline fill="none" stroke="rgb(0,0,0)" stroke-width="1" stroke-opacity="1" points="82.000000,147.428571 86.000000,147.428571"/>
	<polyline fill="none" stroke="rgb(0,0,0)" stroke-width="1" stroke-opacity="1" points="82.000000,122.571429 86.000000,122.571429"/>
	<polyline fill="none" stroke="rgb(0,0,0)" stroke-width="1" stroke-opacity="1" points="82.000000,97.714286 86.000000,97.714286"/>
	<polyline fill="none" stroke="rgb(0,0,0)" stroke-width="1" stroke-opacity="1" points="82.000000,72.857143 86.000000,72.857143"/>
	<polyline fill="none" stroke="rgb(0,0,0)" stroke-width="1" stroke-opacity="1" points="82.000000,48.000000 86.000000,48.000000"/>
	<rect fill="none" stroke="none" stroke-dasharray="none" stroke-width="1" stroke-opacity="1" x="27" y="389" width="51" height="14"/>
	<polyline fill="none" stroke="rgb(0,0,0)" stroke-width="1" stroke-opacity="1" points="79.600000,396.000000 86.000000,396.000000"/>
	<text x="78" y="396" fill="rgb(0,0,0)" dominant-baseline="central" font-size="11" font-family="Arial" text-anchor="end">1.56E4</text>
	<polyline fill="none" stroke="rgb(0,0,0)" stroke-width="1" stroke-opacity="1" points="79.600000,346.285714 86.000000,346.285714"/>
	<text x="78" y="346.286" fill="rgb(0,0,0)" dominant-baseline="central" font-size="11" font-family="Arial" text-anchor="end">1.58E4</text>
	<polyline fill="none" stroke="rgb(0,0,0)" stroke-width="1" stroke-opacity="1" points="79.600000,296.571429 86.000000,296.571429"/>
	<text x="78" y="296.571" fill="rgb(0,0,0)" dominant-baseline="central" font-size="11" font-family="Arial" text-anchor="end">1.60E4</text>
	<polyline fill="none" stroke="rgb(0,0,0)" stroke-width="1" stroke-opacity="1" points="79.600000,246.857143 86.000000,246.857143"/>
	<text x="78" y="246.857" fill="rgb(0,0,0)" dominant-baseline="central" font-size="11" font-family="Arial" text-anchor="end">1.62E4</text>
	<polyline fill="none" stroke="rgb(0,0,0)" stroke-width="1" stroke-opacity="1" points="79.600000,197.142857 86.000000,197.142857"/>
	<text x="78" y="197.143" fill="rgb(0,0,0)" dominant-baseline="central" font-size="11" font-family="Arial" text-anchor="end">1.64E4</text>
	<polyline fill="none" stroke="rgb(0,0,0)" stroke-width="1" stroke-opacity="1" points="79.600000,147.428571 86.000000,147.428571"/>
	<text x="78" y="147.429" fill="rgb(0,0,0)" dominant-baseline="central" font-size="11" font-family="Arial" text-anchor="end">1.66E4</text>
	<polyline fill="none" stroke="rgb(0,0,0)" stroke-width="1" stroke-opacity="1" points="79.600000,97.714286 86.000000,97.714286"/>
	<text x="78" y="97.7143" fill="rgb(0,0,0)" dominant-baseline="central" font-size="11" font-family="Arial" text-anchor="end">1.68E4</text>
	<polyline fill="none" stroke="rgb(0,0,0)" stroke-width="1" stroke-opacity="1" points="79.600000,48.000000 86.000000,48.000000"/>
	<text x="78" y="48" fill="rgb(0,0,0)" dominant-baseline="central" font-size="11" font-family="Arial" text-anchor="end">1.70E4</text>
	<text x="25" y="222" fill="rgb(0,0,0)" dominant-baseline="central" transform="rotate(-90 25,222)" font-size="11" font-family="Arial" text-anchor="middle">OCI</text>
	<text x="437.5" y="430" fill="rgb(0,0,0)" dominant-baseline="central" font-size="11" font-family="Arial" text-anchor="middle">Days</text>
	<text x="437.5" y="12" fill="rgb(0,0,0)" dominant-baseline="central" font-size="11" font-family="Arial" text-anchor="middle">OCI for changes in Q_a and Q_r</text>
	<clipPath id="clipArea1">
		<rect x="86" y="48" width="703" height="348">
		</rect>
	</clipPath>
	<polyline fill="none" stroke="rgb(238,46,47)" stroke-width="1" stroke-opacity="1" clip-path="url(#clipArea1)" points="86.000000,247.729328 93.030000,248.460477 100.060000,249.676875 107.089999,250.886961 114.120000,251.425371 121.149999,252.212595 128.179999,253.148379 135.210001,253.974442 142.240000,254.895176 149.270000,256.247754 156.299999,257.637472 163.329998,258.365223 170.359997,259.215561 177.390003,260.238005 184.420002,261.166992 191.449995,262.134333 198.480000,263.482299 205.510006,264.905516 212.539999,265.832076 219.570004,266.779026 226.599998,267.936922 233.630003,268.992380 240.659996,270.069685 247.690001,271.474696 254.719995,273.008848 261.750000,274.168200 268.780005,275.137726 275.809999,276.333491 282.840004,277.487988 289.869997,278.575974 296.899990,279.987539 303.930008,281.533828 310.960001,282.830818 317.989994,283.876565 325.020011,285.146610 332.050005,286.401847 339.079998,287.624314 346.109991,289.111858 353.140009,290.716649 360.170002,292.237207 367.199995,293.534439 374.229989,294.989213 381.260006,296.466077 388.289999,297.909927 395.319992,299.454275 402.350010,301.169515 409.380003,302.848100 416.409996,304.221311 423.439989,305.732888 430.470007,307.296169 437.500000,308.793666 444.529993,310.297232 451.560011,312.013443 458.590004,313.719701 465.619997,314.931487 472.649990,316.303242 479.680008,317.769425 486.710001,319.143608 493.739994,320.572893 500.770011,322.310951 507.799981,324.071342 514.829998,325.335318 521.860015,326.671632 528.889985,328.123979 535.920002,329.495977 542.950019,330.883753 549.979989,332.550686 557.010006,334.269325 564.040023,335.605639 571.069992,336.943652 578.100010,338.431682 585.129979,339.832567 592.159996,341.240491 599.190013,342.893588 606.219983,344.643055 613.250000,346.097829 620.280017,347.393119 627.309987,348.854933 634.340004,350.276208 641.370021,351.636311 648.399990,353.244501 655.430008,354.955614 662.459977,356.466462 669.489994,357.767335 676.520011,359.238131 683.549981,360.690963 690.579998,362.110296 697.610015,363.737176 704.639985,365.455815 711.670002,367.104300 718.700019,368.566842 725.729989,370.151242 732.760006,371.749478 739.790023,373.316401 746.819992,374.961002 753.850010,376.742026 760.879979,378.491493 767.909996,379.986805 774.940013,381.590140 781.969983,383.232070 789.000000,384.816228 789.000000,384.816228"/>
	<polyline fill="none" stroke="rgb(28,108,200)" stroke-width="1" stroke-opacity="1" clip-path="url(#clipArea1)" points="86.000000,231.339149 93.030000,232.063987 100.060000,233.279657 107.089999,234.491685 114.120000,235.036892 121.149999,235.821203 128.179999,236.756501 135.210001,237.584263 142.240000,238.504512 149.270000,239.854662 156.299999,241.246323 163.329998,241.981599 170.359997,242.828295 177.390003,243.850254 184.420002,244.780698 191.449995,245.747068 198.480000,247.093092 205.510006,248.517280 212.539999,249.450636 219.570004,250.395159 226.599998,251.551599 233.630003,252.608513 240.659996,253.685332 247.690001,255.088158 254.719995,256.623767 261.750000,257.788460 268.780005,258.756772 275.809999,259.950594 282.840004,261.106549 289.869997,262.194534 296.899990,263.603915 303.930008,265.150446 310.960001,266.451563 317.989994,267.497068 325.020011,268.765170 332.050005,270.021621 339.079998,271.243845 346.109991,272.729690 353.140009,274.334967 360.170002,275.857709 367.199995,277.156398 374.229989,278.610201 381.260006,280.087793 388.289999,281.532129 395.319992,283.076233 402.350010,284.790988 409.380003,286.470787 416.409996,287.846911 423.439989,289.357274 430.470007,290.920313 437.500000,292.418781 444.529993,293.922104 451.560011,295.637344 458.590004,297.344330 465.619997,298.560000 472.649990,299.928599 479.680008,301.394782 486.710001,302.768965 493.739994,304.197280 500.770011,305.932910 507.799981,307.694515 514.829998,308.963345 521.860015,310.296261 528.889985,311.747394 535.920002,313.119877 542.950019,314.506197 549.979989,316.171189 557.010006,317.890555 564.040023,319.231482 571.069992,320.566582 578.100010,322.054127 585.129979,323.455011 592.159996,324.861964 599.190013,326.512634 606.219983,328.263072 613.250000,329.721730 620.280017,331.015321 627.309987,332.475193 634.340004,333.896953 641.370021,335.256571 648.399990,336.862575 655.430008,338.573931 662.459977,340.087693 669.489994,341.387595 676.520011,342.856691 683.549981,344.310251 690.579998,345.729099 697.610015,347.354523 704.639985,349.073161 711.670002,350.723103 718.700019,352.186616 725.729989,353.769802 732.760006,355.368524 739.790023,356.935689 746.819992,358.579562 753.850010,360.360343 760.879979,362.110539 767.909996,363.608036 774.940013,365.209914 781.969983,366.851844 789.000000,368.436244 789.000000,368.436244"/>
	<polyline fill="none" stroke="rgb(0,140,72)" stroke-width="1" stroke-opacity="1" clip-path="url(#clipArea1)" points="86.000000,77.267344 93.030000,78.096077 100.060000,79.587991 107.089999,81.109520 114.120000,81.830960 121.149999,82.776211 128.179999,83.927796 135.210001,84.954124 142.240000,86.062500 149.270000,87.678214 156.299999,89.378890 163.329998,90.335307 170.359997,91.327651 177.390003,92.552545 184.420002,93.682282 191.449995,94.822215 198.480000,96.417539 205.510006,98.131323 212.539999,99.298443 219.570004,100.394196 226.599998,101.754057 233.630003,103.018276 240.659996,104.286378 247.690001,105.915201 254.719995,107.744531 261.750000,109.173331 268.780005,110.281222 275.809999,111.668756 282.840004,113.027645 289.869997,114.288951 296.899990,115.915346 303.930008,117.735452 310.960001,119.301161 317.989994,120.493527 325.020011,121.950485 332.050005,123.415212 339.079998,124.823622 346.109991,126.532065 353.140009,128.405089 360.170002,130.198979 367.199995,131.693806 374.229989,133.360011 381.260006,135.069911 388.289999,136.731747 395.319992,138.497963 402.350010,140.478281 409.380003,142.431897 416.409996,144.011200 423.439989,145.724983 430.470007,147.514018 437.500000,149.227316 444.529993,150.928962 451.560011,152.884035 458.590004,154.852701 465.619997,156.234408 472.649990,157.755452 479.680008,159.411462 486.710001,160.963577 493.739994,162.559386 500.770011,164.519314 507.799981,166.537015 514.829998,167.996886 521.860015,169.462098 528.889985,171.088493 535.920002,172.631384 542.950019,174.167963 549.979989,176.040017 557.010006,177.997517 564.040023,179.533610 571.069992,180.999308 578.100010,182.656775 585.129979,184.230251 592.159996,185.795960 599.190013,187.633058 606.219983,189.623086 613.250000,191.297545 620.280017,192.707411 627.309987,194.325067 634.340004,195.913594 641.370021,197.414247 648.399990,199.196970 655.430008,201.130924 662.459977,202.859272 669.489994,204.277877 676.520011,205.898931 683.549981,207.520472 690.579998,209.088608 697.610015,210.893906 704.639985,212.830287 711.670002,214.700399 718.700019,216.320968 725.729989,218.075776 732.760006,219.862140 739.790023,221.604568 746.819992,223.428072 753.850010,225.424897 760.879979,227.398661 767.909996,229.058797 774.940013,230.824528 781.969983,232.649247 789.000000,234.406482 789.000000,234.406482"/>
	<rect fill="rgb(255,255,255)" stroke="none" stroke-opacity="0.7" x="86" y="23" width="329" height="17"/>
	<polyline fill="none" stroke="rgb(238,46,47)" stroke-width="1" stroke-opacity="1" points="86.000000,32.000000 116.000000,32.000000"/>
	<text x="121" y="32" fill="rgb(0,0,0)" dominant-baseline="central" font-size="11" font-family="Arial" text-anchor="start">Original values</text>
	<polyline fill="none" stroke="rgb(28,108,200)" stroke-width="1" stroke-opacity="1" points="202.000000,32.000000 232.000000,32.000000"/>
	<text x="237" y="32" fill="rgb(0,0,0)" dominant-baseline="central" font-size="11" font-family="Arial" text-anchor="start">Q_a = 38,737</text>
	<polyline fill="none" stroke="rgb(0,140,72)" stroke-width="1" stroke-opacity="1" points="312.000000,32.000000 342.000000,32.000000"/>
	<text x="347" y="32" fill="rgb(0,0,0)" dominant-baseline="central" font-size="11" font-family="Arial" text-anchor="start">Q_r = 12,912</text>
	<polyline fill="none" stroke="rgb(229,229,229)" stroke-width="1" stroke-opacity="1" points="86.000000,500.000000 86.000000,856.000000"/>
	<polyline fill="none" stroke="rgb(229,229,229)" stroke-width="1" stroke-opacity="1" points="111.107143,500.000000 111.107143,856.000000"/>
	<polyline fill="none" stroke="rgb(229,229,229)" stroke-width="1" stroke-opacity="1" points="136.214286,500.000000 136.214286,856.000000"/>
	<polyline fill="none" stroke="rgb(229,229,229)" stroke-width="1" stroke-opacity="1" points="161.321429,500.000000 161.321429,856.000000"/>
	<polyline fill="none" stroke="rgb(229,229,229)" stroke-width="1" stroke-opacity="1" points="186.428571,500.000000 186.428571,856.000000"/>
	<polyline fill="none" stroke="rgb(229,229,229)" stroke-width="1" stroke-opacity="1" points="211.535714,500.000000 211.535714,856.000000"/>
	<polyline fill="none" stroke="rgb(229,229,229)" stroke-width="1" stroke-opacity="1" points="236.642857,500.000000 236.642857,856.000000"/>
	<polyline fill="none" stroke="rgb(229,229,229)" stroke-width="1" stroke-opacity="1" points="261.750000,500.000000 261.750000,856.000000"/>
	<polyline fill="none" stroke="rgb(229,229,229)" stroke-width="1" stroke-opacity="1" points="286.857143,500.000000 286.857143,856.000000"/>
	<polyline fill="none" stroke="rgb(229,229,229)" stroke-width="1" stroke-opacity="1" points="311.964286,500.000000 311.964286,856.000000"/>
	<polyline fill="none" stroke="rgb(229,229,229)" stroke-width="1" stroke-opacity="1" points="337.071429,500.000000 337.071429,856.000000"/>
	<polyline fill="none" stroke="rgb(229,229,229)" stroke-width="1" stroke-opacity="1" points="362.178571,500.000000 362.178571,856.000000"/>
	<polyline fill="none" stroke="rgb(229,229,229)" stroke-width="1" stroke-opacity="1" points="387.285714,500.000000 387.285714,856.000000"/>
	<polyline fill="none" stroke="rgb(229,229,229)" stroke-width="1" stroke-opacity="1" points="412.392857,500.000000 412.392857,856.000000"/>
	<polyline fill="none" stroke="rgb(229,229,229)" stroke-width="1" stroke-opacity="1" points="437.500000,500.000000 437.500000,856.000000"/>
	<polyline fill="none" stroke="rgb(229,229,229)" stroke-width="1" stroke-opacity="1" points="462.607143,500.000000 462.607143,856.000000"/>
	<polyline fill="none" stroke="rgb(229,229,229)" stroke-width="1" stroke-opacity="1" points="487.714286,500.000000 487.714286,856.000000"/>
	<polyline fill="none" stroke="rgb(229,229,229)" stroke-width="1" stroke-opacity="1" points="512.821429,500.000000 512.821429,856.000000"/>
	<polyline fill="none" stroke="rgb(229,229,229)" stroke-width="1" stroke-opacity="1" points="537.928571,500.000000 537.928571,856.000000"/>
	<polyline fill="none" stroke="rgb(229,229,229)" stroke-width="1" stroke-opacity="1" points="563.035714,500.000000 563.035714,856.000000"/>
	<polyline fill="none" stroke="rgb(229,229,229)" stroke-width="1" stroke-opacity="1" points="588.142857,500.000000 588.142857,856.000000"/>
	<polyline fill="none" stroke="rgb(229,229,229)" stroke-width="1" stroke-opacity="1" points="613.250000,500.000000 613.250000,856.000000"/>
	<polyline fill="none" stroke="rgb(229,229,229)" stroke-width="1" stroke-opacity="1" points="638.357143,500.000000 638.357143,856.000000"/>
	<polyline fill="none" stroke="rgb(229,229,229)" stroke-width="1" stroke-opacity="1" points="663.464286,500.000000 663.464286,856.000000"/>
	<polyline fill="none" stroke="rgb(229,229,229)" stroke-width="1" stroke-opacity="1" points="688.571429,500.000000 688.571429,856.000000"/>
	<polyline fill="none" stroke="rgb(229,229,229)" stroke-width="1" stroke-opacity="1" points="713.678571,500.000000 713.678571,856.000000"/>
	<polyline fill="none" stroke="rgb(229,229,229)" stroke-width="1" stroke-opacity="1" points="738.785714,500.000000 738.785714,856.000000"/>
	<polyline fill="none" stroke="rgb(229,229,229)" stroke-width="1" stroke-opacity="1" points="763.892857,500.000000 763.892857,856.000000"/>
	<polyline fill="none" stroke="rgb(229,229,229)" stroke-width="1" stroke-opacity="1" points="789.000000,500.000000 789.000000,856.000000"/>
	<polyline fill="none" stroke="rgb(229,229,229)" stroke-width="1" stroke-opacity="1" points="86.000000,856.000000 789.000000,856.000000"/>
	<polyline fill="none" stroke="rgb(229,229,229)" stroke-width="1" stroke-opacity="1" points="86.000000,811.500000 789.000000,811.500000"/>
	<polyline fill="none" stroke="rgb(229,229,229)" stroke-width="1" stroke-opacity="1" points="86.000000,767.000000 789.000000,767.000000"/>
	<polyline fill="none" stroke="rgb(229,229,229)" stroke-width="1" stroke-opacity="1" points="86.000000,722.500000 789.000000,722.500000"/>
	<polyline fill="none" stroke="rgb(229,229,229)" stroke-width="1" stroke-opacity="1" points="86.000000,678.000000 789.000000,678.000000"/>
	<polyline fill="none" stroke="rgb(229,229,229)" stroke-width="1" stroke-opacity="1" points="86.000000,633.500000 789.000000,633.500000"/>
	<polyline fill="none" stroke="rgb(229,229,229)" stroke-width="1" stroke-opacity="1" points="86.000000,589.000000 789.000000,589.000000"/>
	<polyline fill="none" stroke="rgb(229,229,229)" stroke-width="1" stroke-opacity="1" points="86.000000,544.500000 789.000000,544.500000"/>
	<polyline fill="none" stroke="rgb(229,229,229)" stroke-width="1" stroke-opacity="1" points="86.000000,500.000000 789.000000,500.000000"/>
	<polyline fill="none" stroke="rgb(0,0,0)" stroke-width="1" stroke-opacity="1" points="86.000000,856.000000 789.000000,856.000000"/>
	<polyline fill="none" stroke="rgb(0,0,0)" stroke-width="1" stroke-opacity="1" points="789.000000,856.000000 789.000000,500.000000"/>
	<polyline fill="none" stroke="rgb(0,0,0)" stroke-width="1" stroke-opacity="1" points="789.000000,500.000000 86.000000,500.000000"/>
	<polyline fill="none" stroke="rgb(0,0,0)" stroke-width="1" stroke-opacity="1" points="86.000000,500.000000 86.000000,856.000000"/>
	<polyline fill="none" stroke="rgb(0,0,0)" stroke-width="1" stroke-opacity="1" points="86.000000,856.000000 86.000000,860.000000"/>
	<polyline fill="none" stroke="rgb(0,0,0)" stroke-width="1" stroke-opacity="1" points="111.107143,856.000000 111.107143,860.000000"/>
	<polyline fill="none" stroke="rgb(0,0,0)" stroke-width="1" stroke-opacity="1" points="136.214286,856.000000 136.214286,860.000000"/>
	<polyline fill="none" stroke="rgb(0,0,0)" stroke-width="1" stroke-opacity="1" points="161.321429,856.000000 161.321429,860.000000"/>
	<polyline fill="none" stroke="rgb(0,0,0)" stroke-width="1" stroke-opacity="1" points="186.428571,856.000000 186.428571,860.000000"/>
	<polyline fill="none" stroke="rgb(0,0,0)" stroke-width="1" stroke-opacity="1" points="211.535714,856.000000 211.535714,860.000000"/>
	<polyline fill="none" stroke="rgb(0,0,0)" stroke-width="1" stroke-opacity="1" points="236.642857,856.000000 236.642857,860.000000"/>
	<polyline fill="none" stroke="rgb(0,0,0)" stroke-width="1" stroke-opacity="1" points="261.750000,856.000000 261.750000,860.000000"/>
	<polyline fill="none" stroke="rgb(0,0,0)" stroke-width="1" stroke-opacity="1" points="286.857143,856.000000 286.857143,860.000000"/>
	<polyline fill="none" stroke="rgb(0,0,0)" stroke-width="1" stroke-opacity="1" points="311.964286,856.000000 311.964286,860.000000"/>
	<polyline fill="none" stroke="rgb(0,0,0)" stroke-width="1" stroke-opacity="1" points="337.071429,856.000000 337.071429,860.000000"/>
	<polyline fill="none" stroke="rgb(0,0,0)" stroke-width="1" stroke-opacity="1" points="362.178571,856.000000 362.178571,860.000000"/>
	<polyline fill="none" stroke="rgb(0,0,0)" stroke-width="1" stroke-opacity="1" points="387.285714,856.000000 387.285714,860.000000"/>
	<polyline fill="none" stroke="rgb(0,0,0)" stroke-width="1" stroke-opacity="1" points="412.392857,856.000000 412.392857,860.000000"/>
	<polyline fill="none" stroke="rgb(0,0,0)" stroke-width="1" stroke-opacity="1" points="437.500000,856.000000 437.500000,860.000000"/>
	<polyline fill="none" stroke="rgb(0,0,0)" stroke-width="1" stroke-opacity="1" points="462.607143,856.000000 462.607143,860.000000"/>
	<polyline fill="none" stroke="rgb(0,0,0)" stroke-width="1" stroke-opacity="1" points="487.714286,856.000000 487.714286,860.000000"/>
	<polyline fill="none" stroke="rgb(0,0,0)" stroke-width="1" stroke-opacity="1" points="512.821429,856.000000 512.821429,860.000000"/>
	<polyline fill="none" stroke="rgb(0,0,0)" stroke-width="1" stroke-opacity="1" points="537.928571,856.000000 537.928571,860.000000"/>
	<polyline fill="none" stroke="rgb(0,0,0)" stroke-width="1" stroke-opacity="1" points="563.035714,856.000000 563.035714,860.000000"/>
	<polyline fill="none" stroke="rgb(0,0,0)" stroke-width="1" stroke-opacity="1" points="588.142857,856.000000 588.142857,860.000000"/>
	<polyline fill="none" stroke="rgb(0,0,0)" stroke-width="1" stroke-opacity="1" points="613.250000,856.000000 613.250000,860.000000"/>
	<polyline fill="none" stroke="rgb(0,0,0)" stroke-width="1" stroke-opacity="1" points="638.357143,856.000000 638.357143,860.000000"/>
	<polyline fill="none" stroke="rgb(0,0,0)" stroke-width="1" stroke-opacity="1" points="663.464286,856.000000 663.464286,860.000000"/>
	<polyline fill="none" stroke="rgb(0,0,0)" stroke-width="1" stroke-opacity="1" points="688.571429,856.000000 688.571429,860.000000"/>
	<polyline fill="none" stroke="rgb(0,0,0)" stroke-width="1" stroke-opacity="1" points="713.678571,856.000000 713.678571,860.000000"/>
	<polyline fill="none" stroke="rgb(0,0,0)" stroke-width="1" stroke-opacity="1" points="738.785714,856.000000 738.785714,860.000000"/>
	<polyline fill="none" stroke="rgb(0,0,0)" stroke-width="1" stroke-opacity="1" points="763.892857,856.000000 763.892857,860.000000"/>
	<polyline fill="none" stroke="rgb(0,0,0)" stroke-width="1" stroke-opacity="1" points="789.000000,856.000000 789.000000,860.000000"/>
	<polyline fill="none" stroke="rgb(0,0,0)" stroke-width="1" stroke-opacity="1" points="86.000000,856.000000 86.000000,862.400000"/>
	<text x="86" y="871" fill="rgb(0,0,0)" dominant-baseline="central" font-size="11" font-family="Arial" text-anchor="middle">0.0</text>
	<polyline fill="none" stroke="rgb(0,0,0)" stroke-width="1" stroke-opacity="1" points="211.535714,856.000000 211.535714,862.400000"/>
	<text x="211.536" y="871" fill="rgb(0,0,0)" dominant-baseline="central" font-size="11" font-family="Arial" text-anchor="middle">2.5</text>
	<polyline fill="none" stroke="rgb(0,0,0)" stroke-width="1" stroke-opacity="1" points="337.071429,856.000000 337.071429,862.400000"/>
	<text x="337.071" y="871" fill="rgb(0,0,0)" dominant-baseline="central" font-size="11" font-family="Arial" text-anchor="middle">5.0</text>
	<polyline fill="none" stroke="rgb(0,0,0)" stroke-width="1" stroke-opacity="1" points="462.607143,856.000000 462.607143,862.400000"/>
	<text x="462.607" y="871" fill="rgb(0,0,0)" dominant-baseline="central" font-size="11" font-family="Arial" text-anchor="middle">7.5</text>
	<polyline fill="none" stroke="rgb(0,0,0)" stroke-width="1" stroke-opacity="1" points="588.142857,856.000000 588.142857,862.400000"/>
	<text x="588.143" y="871" fill="rgb(0,0,0)" dominant-baseline="central" font-size="11" font-family="Arial" text-anchor="middle">10.0</text>
	<polyline fill="none" stroke="rgb(0,0,0)" stroke-width="1" stroke-opacity="1" points="713.678571,856.000000 713.678571,862.400000"/>
	<text x="713.679" y="871" fill="rgb(0,0,0)" dominant-baseline="central" font-size="11" font-family="Arial" text-anchor="middle">12.5</text>
	<polyline fill="none" stroke="rgb(0,0,0)" stroke-width="1" stroke-opacity="1" points="82.000000,856.000000 86.000000,856.000000"/>
	<polyline fill="none" stroke="rgb(0,0,0)" stroke-width="1" stroke-opacity="1" points="82.000000,811.500000 86.000000,811.500000"/>
	<polyline fill="none" stroke="rgb(0,0,0)" stroke-width="1" stroke-opacity="1" points="82.000000,767.000000 86.000000,767.000000"/>
	<polyline fill="none" stroke="rgb(0,0,0)" stroke-width="1" stroke-opacity="1" points="82.000000,722.500000 86.000000,722.500000"/>
	<polyline fill="none" stroke="rgb(0,0,0)" stroke-width="1" stroke-opacity="1" points="82.000000,678.000000 86.000000,678.000000"/>
	<polyline fill="none" stroke="rgb(0,0,0)" stroke-width="1" stroke-opacity="1" points="82.000000,633.500000 86.000000,633.500000"/>
	<polyline fill="none" stroke="rgb(0,0,0)" stroke-width="1" stroke-opacity="1" points="82.000000,589.000000 86.000000,589.000000"/>
	<polyline fill="none" stroke="rgb(0,0,0)" stroke-width="1" stroke-opacity="1" points="82.000000,544.500000 86.000000,544.500000"/>
	<polyline fill="none" stroke="rgb(0,0,0)" stroke-width="1" stroke-opacity="1" points="82.000000,500.000000 86.000000,500.000000"/>
	<rect fill="none" stroke="none" stroke-dasharray="none" stroke-width="1" stroke-opacity="1" x="27" y="849" width="51" height="14"/>
	<polyline fill="none" stroke="rgb(0,0,0)" stroke-width="1" stroke-opacity="1" points="79.600000,856.000000 86.000000,856.000000"/>
	<text x="78" y="856" fill="rgb(0,0,0)" dominant-baseline="central" font-size="11" font-family="Arial" text-anchor="end">320</text>
	<polyline fill="none" stroke="rgb(0,0,0)" stroke-width="1" stroke-opacity="1" points="79.600000,811.500000 86.000000,811.500000"/>
	<text x="78" y="811.5" fill="rgb(0,0,0)" dominant-baseline="central" font-size="11" font-family="Arial" text-anchor="end">330</text>
	<polyline fill="none" stroke="rgb(0,0,0)" stroke-width="1" stroke-opacity="1" points="79.600000,767.000000 86.000000,767.000000"/>
	<text x="78" y="767" fill="rgb(0,0,0)" dominant-baseline="central" font-size="11" font-family="Arial" text-anchor="end">340</text>
	<polyline fill="none" stroke="rgb(0,0,0)" stroke-width="1" stroke-opacity="1" points="79.600000,722.500000 86.000000,722.500000"/>
	<text x="78" y="722.5" fill="rgb(0,0,0)" dominant-baseline="central" font-size="11" font-family="Arial" text-anchor="end">350</text>
	<polyline fill="none" stroke="rgb(0,0,0)" stroke-width="1" stroke-opacity="1" points="79.600000,678.000000 86.000000,678.000000"/>
	<text x="78" y="678" fill="rgb(0,0,0)" dominant-baseline="central" font-size="11" font-family="Arial" text-anchor="end">360</text>
	<polyline fill="none" stroke="rgb(0,0,0)" stroke-width="1" stroke-opacity="1" points="79.600000,633.500000 86.000000,633.500000"/>
	<text x="78" y="633.5" fill="rgb(0,0,0)" dominant-baseline="central" font-size="11" font-family="Arial" text-anchor="end">370</text>
	<polyline fill="none" stroke="rgb(0,0,0)" stroke-width="1" stroke-opacity="1" points="79.600000,589.000000 86.000000,589.000000"/>
	<text x="78" y="589" fill="rgb(0,0,0)" dominant-baseline="central" font-size="11" font-family="Arial" text-anchor="end">380</text>
	<polyline fill="none" stroke="rgb(0,0,0)" stroke-width="1" stroke-opacity="1" points="79.600000,544.500000 86.000000,544.500000"/>
	<text x="78" y="544.5" fill="rgb(0,0,0)" dominant-baseline="central" font-size="11" font-family="Arial" text-anchor="end">390</text>
	<polyline fill="none" stroke="rgb(0,0,0)" stroke-width="1" stroke-opacity="1" points="79.600000,500.000000 86.000000,500.000000"/>
	<text x="78" y="500" fill="rgb(0,0,0)" dominant-baseline="central" font-size="11" font-family="Arial" text-anchor="end">400</text>
	<text x="25" y="678" fill="rgb(0,0,0)" dominant-baseline="central" transform="rotate(-90 25,678)" font-size="11" font-family="Arial" text-anchor="middle">PE [kWh/d]</text>
	<text x="437.5" y="890" fill="rgb(0,0,0)" dominant-baseline="central" font-size="11" font-family="Arial" text-anchor="middle">Days</text>
	<text x="437.5" y="464" fill="rgb(0,0,0)" dominant-baseline="central" font-size="11" font-family="Arial" text-anchor="middle">PE for changes in Q_a and Q_r</text>
	<clipPath id="clipArea2">
		<rect x="86" y="500" width="703" height="356">
		</rect>
	</clipPath>
	<polyline fill="none" stroke="rgb(28,108,200)" stroke-width="1" stroke-opacity="1" clip-path="url(#clipArea2)" points="86.000000,552.660823 93.030000,552.660823 100.060000,552.660823 107.089999,552.660687 114.120000,552.660687 121.149999,552.660687 128.179999,552.660687 135.210001,552.660687 142.240000,552.660687 149.270000,552.660551 156.299999,552.660551 163.329998,552.660551 170.359997,552.660551 177.390003,552.660551 184.420002,552.660551 191.449995,552.660416 198.480000,552.660416 205.510006,552.660416 212.539999,552.660416 219.570004,552.660416 226.599998,552.660416 233.630003,552.660280 240.659996,552.660280 247.690001,552.660280 254.719995,552.660280 261.750000,552.660280 268.780005,552.660280 275.809999,552.660144 282.840004,552.660144 289.869997,552.660144 296.899990,552.660144 303.930008,552.660144 310.960001,552.660144 317.989994,552.660008 325.020011,552.660008 332.050005,552.660008 339.079998,552.660008 346.109991,552.660008 353.140009,552.660008 360.170002,552.659872 367.199995,552.659872 374.229989,552.659872 381.260006,552.659872 388.289999,552.659872 395.319992,552.659872 402.350010,552.659737 409.380003,552.659737 416.409996,552.659737 423.439989,552.659737 430.470007,552.659737 437.500000,552.659737 444.529993,552.659601 451.560011,552.659601 458.590004,552.659601 465.619997,552.659601 472.649990,552.659601 479.680008,552.659601 486.710001,552.659601 493.739994,552.659465 500.770011,552.659465 507.799981,552.659465 514.829998,552.659465 521.860015,552.659465 528.889985,552.659465 535.920002,552.659465 542.950019,552.659329 549.979989,552.659329 557.010006,552.659329 564.040023,552.659329 571.069992,552.659329 578.100010,552.659329 585.129979,552.659193 592.159996,552.659193 599.190013,552.659193 606.219983,552.659193 613.250000,552.659193 620.280017,552.659193 627.309987,552.659193 634.340004,552.659058 641.370021,552.659058 648.399990,552.659058 655.430008,552.659058 662.459977,552.659058 669.489994,552.659058 676.520011,552.659058 683.549981,552.658922 690.579998,552.658922 697.610015,552.658922 704.639985,552.658922 711.670002,552.658922 718.700019,552.658922 725.729989,552.658922 732.760006,552.658786 739.790023,552.658786 746.819992,552.658786 753.850010,552.658786 760.879979,552.658786 767.909996,552.658786 774.940013,552.658786 781.969983,552.658650 789.000000,552.658650 789.000000,552.658650"/>
	<polyline fill="none" stroke="rgb(238,46,47)" stroke-width="1" stroke-opacity="1" clip-path="url(#clipArea2)" points="86.000000,848.155598 93.030000,848.155598 100.060000,848.155598 107.089999,848.155598 114.120000,848.155463 121.149999,848.155463 128.179999,848.155463 135.210001,848.155463 142.240000,848.155463 149.270000,848.155463 156.299999,848.155463 163.329998,848.155327 170.359997,848.155327 177.390003,848.155327 184.420002,848.155327 191.449995,848.155327 198.480000,848.155327 205.510006,848.155327 212.539999,848.155191 219.570004,848.155191 226.599998,848.155191 233.630003,848.155191 240.659996,848.155191 247.690001,848.155191 254.719995,848.155191 261.750000,848.155055 268.780005,848.155055 275.809999,848.155055 282.840004,848.155055 289.869997,848.155055 296.899990,848.155055 303.930008,848.155055 310.960001,848.154919 317.989994,848.154919 325.020011,848.154919 332.050005,848.154919 339.079998,848.154919 346.109991,848.154919 353.140009,848.154919 360.170002,848.154919 367.199995,848.154784 374.229989,848.154784 381.260006,848.154784 388.289999,848.154784 395.319992,848.154784 402.350010,848.154784 409.380003,848.154784 416.409996,848.154648 423.439989,848.154648 430.470007,848.154648 437.500000,848.154648 444.529993,848.154648 451.560011,848.154648 458.590004,848.154648 465.619997,848.154648 472.649990,848.154512 479.680008,848.154512 486.710001,848.154512 493.739994,848.154512 500.770011,848.154512 507.799981,848.154512 514.829998,848.154512 521.860015,848.154512 528.889985,848.154376 535.920002,848.154376 542.950019,848.154376 549.979989,848.154376 557.010006,848.154376 564.040023,848.154376 571.069992,848.154376 578.100010,848.154376 585.129979,848.154240 592.159996,848.154240 599.190013,848.154240 606.219983,848.154240 613.250000,848.154240 620.280017,848.154240 627.309987,848.154240 634.340004,848.154240 641.370021,848.154240 648.399990,848.154105 655.430008,848.154105 662.459977,848.154105 669.489994,848.154105 676.520011,848.154105 683.549981,848.154105 690.579998,848.154105 697.610015,848.154105 704.639985,848.153969 711.670002,848.153969 718.700019,848.153969 725.729989,848.153969 732.760006,848.153969 739.790023,848.153969 746.819992,848.153969 753.850010,848.153969 760.879979,848.153969 767.909996,848.153833 774.940013,848.153833 781.969983,848.153833 789.000000,848.153833 789.000000,848.153833"/>
	<polyline fill="none" stroke="rgb(0,140,72)" stroke-width="1" stroke-opacity="1" clip-path="url(#clipArea2)" points="86.000000,749.669200 93.030000,749.669200 100.060000,749.669200 107.089999,749.669200 114.120000,749.669064 121.149999,749.669064 128.179999,749.669064 135.210001,749.669064 142.240000,749.669064 149.270000,749.669064 156.299999,749.668929 163.329998,749.668929 170.359997,749.668929 177.390003,749.668929 184.420002,749.668929 191.449995,749.668929 198.480000,749.668929 205.510006,749.668793 212.539999,749.668793 219.570004,749.668793 226.599998,749.668793 233.630003,749.668793 240.659996,749.668793 247.690001,749.668657 254.719995,749.668657 261.750000,749.668657 268.780005,749.668657 275.809999,749.668657 282.840004,749.668657 289.869997,749.668657 296.899990,749.668521 303.930008,749.668521 310.960001,749.668521 317.989994,749.668521 325.020011,749.668521 332.050005,749.668521 339.079998,749.668521 346.109991,749.668385 353.140009,749.668385 360.170002,749.668385 367.199995,749.668385 374.229989,749.668385 381.260006,749.668385 388.289999,749.668385 395.319992,749.668250 402.350010,749.668250 409.380003,749.668250 416.409996,749.668250 423.439989,749.668250 430.470007,749.668250 437.500000,749.668250 444.529993,749.668114 451.560011,749.668114 458.590004,749.668114 465.619997,749.668114 472.649990,749.668114 479.680008,749.668114 486.710001,749.668114 493.739994,749.668114 500.770011,749.667978 507.799981,749.667978 514.829998,749.667978 521.860015,749.667978 528.889985,749.667978 535.920002,749.667978 542.950019,749.667978 549.979989,749.667842 557.010006,749.667842 564.040023,749.667842 571.069992,749.667842 578.100010,749.667842 585.129979,749.667842 592.159996,749.667842 599.190013,749.667842 606.219983,749.667706 613.250000,749.667706 620.280017,749.667706 627.309987,749.667706 634.340004,749.667706 641.370021,749.667706 648.399990,749.667706 655.430008,749.667706 662.459977,749.667570 669.489994,749.667570 676.520011,749.667570 683.549981,749.667570 690.579998,749.667570 697.610015,749.667570 704.639985,749.667570 711.670002,749.667570 718.700019,749.667435 725.729989,749.667435 732.760006,749.667435 739.790023,749.667435 746.819992,749.667435 753.850010,749.667435 760.879979,749.667435 767.909996,749.667435 774.940013,749.667299 781.969983,749.667299 789.000000,749.667299 789.000000,749.667299"/>
	<rect fill="rgb(255,255,255)" stroke="none" stroke-opacity="0.7" x="86" y="475" width="329" height="17"/>
	<polyline fill="none" stroke="rgb(28,108,200)" stroke-width="1" stroke-opacity="1" points="86.000000,484.000000 116.000000,484.000000"/>
	<text x="121" y="484" fill="rgb(0,0,0)" dominant-baseline="central" font-size="11" font-family="Arial" text-anchor="start">Original values</text>
	<polyline fill="none" stroke="rgb(238,46,47)" stroke-width="1" stroke-opacity="1" points="202.000000,484.000000 232.000000,484.000000"/>
	<text x="237" y="484" fill="rgb(0,0,0)" dominant-baseline="central" font-size="11" font-family="Arial" text-anchor="start">Q_a = 38,737</text>
	<polyline fill="none" stroke="rgb(0,140,72)" stroke-width="1" stroke-opacity="1" points="312.000000,484.000000 342.000000,484.000000"/>
	<text x="347" y="484" fill="rgb(0,0,0)" dominant-baseline="central" font-size="11" font-family="Arial" text-anchor="start">Q_r = 12,912</text>
</svg>
