<?xml version="1.0" standalone="no"?>
<!DOCTYPE svg PUBLIC "-//W3C//DTD SVG 1.1//EN" "http://www.w3.org/Graphics/SVG/1.1/DTD/svg11.dtd">
<svg viewBox="0 0 814.000000 905.000000" version="1.1" xmlns="http://www.w3.org/2000/svg" xmlns:xlink="http://www.w3.org/1999/xlink">
	<polyline fill="none" stroke="rgb(229,229,229)" stroke-width="1" stroke-opacity="1" points="86.000000,48.000000 86.000000,396.000000"/>
	<polyline fill="none" stroke="rgb(229,229,229)" stroke-width="1" stroke-opacity="1" points="111.107143,48.000000 111.107143,396.000000"/>
	<polyline fill="none" stroke="rgb(229,229,229)" stroke-width="1" stroke-opacity="1" points="136.214286,48.000000 136.214286,396.000000"/>
	<polyline fill="none" stroke="rgb(229,229,229)" stroke-width="1" stroke-opacity="1" points="161.321429,48.000000 161.321429,396.000000"/>
	<polyline fill="none" stroke="rgb(229,229,229)" stroke-width="1" stroke-opacity="1" points="186.428571,48.000000 186.428571,396.000000"/>
	<polyline fill="none" stroke="rgb(229,229,229)" stroke-width="1" stroke-opacity="1" points="211.535714,48.000000 211.535714,396.000000"/>
	<polyline fill="none" stroke="rgb(229,229,229)" stroke-width="1" stroke-opacity="1" points="236.642857,48.000000 236.642857,396.000000"/>
	<polyline fill="none" stroke="rgb(229,229,229)" stroke-width="1" stroke-opacity="1" points="261.750000,48.000000 261.750000,396.000000"/>
	<polyline fill="none" stroke="rgb(229,229,229)" stroke-width="1" stroke-opacity="1" points="286.857143,48.000000 286.857143,396.000000"/>
	<polyline fill="none" stroke="rgb(229,229,229)" stroke-width="1" stroke-opacity="1" points="311.964286,48.000000 311.964286,396.000000"/>
	<polyline fill="none" stroke="rgb(229,229,229)" stroke-width="1" stroke-opacity="1" points="337.071429,48.000000 337.071429,396.000000"/>
	<polyline fill="none" stroke="rgb(229,229,229)" stroke-width="1" stroke-opacity="1" points="362.178571,48.000000 362.178571,396.000000"/>
	<polyline fill="none" stroke="rgb(229,229,229)" stroke-width="1" stroke-opacity="1" points="387.285714,48.000000 387.285714,396.000000"/>
	<polyline fill="none" stroke="rgb(229,229,229)" stroke-width="1" stroke-opacity="1" points="412.392857,48.000000 412.392857,396.000000"/>
	<polyline fill="none" stroke="rgb(229,229,229)" stroke-width="1" stroke-opacity="1" points="437.500000,48.000000 437.500000,396.000000"/>
	<polyline fill="none" stroke="rgb(229,229,229)" stroke-width="1" stroke-opacity="1" points="462.607143,48.000000 462.607143,396.000000"/>
	<polyline fill="none" stroke="rgb(229,229,229)" stroke-width="1" stroke-opacity="1" points="487.714286,48.000000 487.714286,396.000000"/>
	<polyline fill="none" stroke="rgb(229,229,229)" stroke-width="1" stroke-opacity="1" points="512.821429,48.000000 512.821429,396.000000"/>
	<polyline fill="none" stroke="rgb(229,229,229)" stroke-width="1" stroke-opacity="1" points="537.928571,48.000000 537.928571,396.000000"/>
	<polyline fill="none" stroke="rgb(229,229,229)" stroke-width="1" stroke-opacity="1" points="563.035714,48.000000 563.035714,396.000000"/>
	<polyline fill="none" stroke="rgb(229,229,229)" stroke-width="1" stroke-opacity="1" points="588.142857,48.000000 588.142857,396.000000"/>
	<polyline fill="none" stroke="rgb(229,229,229)" stroke-width="1" stroke-opacity="1" points="613.250000,48.000000 613.250000,396.000000"/>
	<polyline fill="none" stroke="rgb(229,229,229)" stroke-width="1" stroke-opacity="1" points="638.357143,48.000000 638.357143,396.000000"/>
	<polyline fill="none" stroke="rgb(229,229,229)" stroke-width="1" stroke-opacity="1" points="663.464286,48.000000 663.464286,396.000000"/>
	<polyline fill="none" stroke="rgb(229,229,229)" stroke-width="1" stroke-opacity="1" points="688.571429,48.000000 688.571429,396.000000"/>
	<polyline fill="none" stroke="rgb(229,229,229)" stroke-width="1" stroke-opacity="1" points="713.678571,48.000000 713.678571,396.000000"/>
	<polyline fill="none" stroke="rgb(229,229,229)" stroke-width="1" stroke-opacity="1" points="738.785714,48.000000 738.785714,396.000000"/>
	<polyline fill="none" stroke="rgb(229,229,229)" stroke-width="1" stroke-opacity="1" points="763.892857,48.000000 763.892857,396.000000"/>
	<polyline fill="none" stroke="rgb(229,229,229)" stroke-width="1" stroke-opacity="1" points="789.000000,48.000000 789.000000,396.000000"/>
	<polyline fill="none" stroke="rgb(229,229,229)" stroke-width="1" stroke-opacity="1" points="86.000000,396.000000 789.000000,396.000000"/>
	<polyline fill="none" stroke="rgb(229,229,229)" stroke-width="1" stroke-opacity="1" points="86.000000,369.230769 789.000000,369.230769"/>
	<polyline fill="none" stroke="rgb(229,229,229)" stroke-width="1" stroke-opacity="1" points="86.000000,342.461538 789.000000,342.461538"/>
	<polyline fill="none" stroke="rgb(229,229,229)" stroke-width="1" stroke-opacity="1" points="86.000000,315.692308 789.000000,315.692308"/>
	<polyline fill="none" stroke="rgb(229,229,229)" stroke-width="1" stroke-opacity="1" points="86.000000,288.923077 789.000000,288.923077"/>
	<polyline fill="none" stroke="rgb(229,229,229)" stroke-width="1" stroke-opacity="1" points="86.000000,262.153846 789.000000,262.153846"/>
	<polyline fill="none" stroke="rgb(229,229,229)" stroke-width="1" stroke-opacity="1" points="86.000000,235.384615 789.000000,235.384615"/>
	<polyline fill="none" stroke="rgb(229,229,229)" stroke-width="1" stroke-opacity="1" points="86.000000,208.615385 789.000000,208.615385"/>
	<polyline fill="none" stroke="rgb(229,229,229)" stroke-width="1" stroke-opacity="1" points="86.000000,181.846154 789.000000,181.846154"/>
	<polyline fill="none" stroke="rgb(229,229,229)" stroke-width="1" stroke-opacity="1" points="86.000000,155.076923 789.000000,155.076923"/>
	<polyline fill="none" stroke="rgb(229,229,229)" stroke-width="1" stroke-opacity="1" points="86.000000,128.307692 789.000000,128.307692"/>
	<polyline fill="none" stroke="rgb(229,229,229)" stroke-width="1" stroke-opacity="1" points="86.000000,101.538462 789.000000,101.538462"/>
	<polyline fill="none" stroke="rgb(229,229,229)" stroke-width="1" stroke-opacity="1" points="86.000000,74.769231 789.000000,74.769231"/>
	<polyline fill="none" stroke="rgb(229,229,229)" stroke-width="1" stroke-opacity="1" points="86.000000,48.000000 789.000000,48.000000"/>
	<polyline fill="none" stroke="rgb(0,0,0)" stroke-width="1" stroke-opacity="1" points="86.000000,396.000000 789.000000,396.000000"/>
	<polyline fill="none" stroke="rgb(0,0,0)" stroke-width="1" stroke-opacity="1" points="789.000000,396.000000 789.000000,48.000000"/>
	<polyline fill="none" stroke="rgb(0,0,0)" stroke-width="1" stroke-opacity="1" points="789.000000,48.000000 86.000000,48.000000"/>
	<polyline fill="none" stroke="rgb(0,0,0)" stroke-width="1" stroke-opacity="1" points="86.000000,48.000000 86.000000,396.000000"/>
	<polyline fill="none" stroke="rgb(0,0,0)" stroke-width="1" stroke-opacity="1" points="86.000000,396.000000 86.000000,400.000000"/>
	<polyline fill="none" stroke="rgb(0,0,0)" stroke-width="1" stroke-opacity="1" points="111.107143,396.000000 111.107143,400.000000"/>
	<polyline fill="none" stroke="rgb(0,0,0)" stroke-width="1" stroke-opacity="1" points="136.214286,396.000000 136.214286,400.000000"/>
	<polyline fill="none" stroke="rgb(0,0,0)" stroke-width="1" stroke-opacity="1" points="161.321429,396.000000 161.321429,400.000000"/>
	<polyline fill="none" stroke="rgb(0,0,0)" stroke-width="1" stroke-opacity="1" points="186.428571,396.000000 186.428571,400.000000"/>
	<polyline fill="none" stroke="rgb(0,0,0)" stroke-width="1" stroke-opacity="1" points="211.535714,396.000000 211.535714,400.000000"/>
	<polyline fill="none" stroke="rgb(0,0,0)" stroke-width="1" stroke-opacity="1" points="236.642857,396.000000 236.642857,400.000000"/>
	<polyline fill="none" stroke="rgb(0,0,0)" stroke-width="1" stroke-opacity="1" points="261.750000,396.000000 261.750000,400.000000"/>
	<polyline fill="none" stroke="rgb(0,0,0)" stroke-width="1" stroke-opacity="1" points="286.857143,396.000000 286.857143,400.000000"/>
	<polyline fill="none" stroke="rgb(0,0,0)" stroke-width="1" stroke-opacity="1" points="311.964286,396.000000 311.964286,400.000000"/>
	<polyline fill="none" stroke="rgb(0,0,0)" stroke-width="1" stroke-opacity="1" points="337.071429,396.000000 337.071429,400.000000"/>
	<polyline fill="none" stroke="rgb(0,0,0)" stroke-width="1" stroke-opacity="1" points="362.178571,396.000000 362.178571,400.000000"/>
	<polyline fill="none" stroke="rgb(0,0,0)" stroke-width="1" stroke-opacity="1" points="387.285714,396.000000 387.285714,400.000000"/>
	<polyline fill="none" stroke="rgb(0,0,0)" stroke-width="1" stroke-opacity="1" points="412.392857,396.000000 412.392857,400.000000"/>
	<polyline fill="none" stroke="rgb(0,0,0)" stroke-width="1" stroke-opacity="1" points="437.500000,396.000000 437.500000,400.000000"/>
	<polyline fill="none" stroke="rgb(0,0,0)" stroke-width="1" stroke-opacity="1" points="462.607143,396.000000 462.607143,400.000000"/>
	<polyline fill="none" stroke="rgb(0,0,0)" stroke-width="1" stroke-opacity="1" points="487.714286,396.000000 487.714286,400.000000"/>
	<polyline fill="none" stroke="rgb(0,0,0)" stroke-width="1" stroke-opacity="1" points="512.821429,396.000000 512.821429,400.000000"/>
	<polyline fill="none" stroke="rgb(0,0,0)" stroke-width="1" stroke-opacity="1" points="537.928571,396.000000 537.928571,400.000000"/>
	<polyline fill="none" stroke="rgb(0,0,0)" stroke-width="1" stroke-opacity="1" points="563.035714,396.000000 563.035714,400.000000"/>
	<polyline fill="none" stroke="rgb(0,0,0)" stroke-width="1" stroke-opacity="1" points="588.142857,396.000000 588.142857,400.000000"/>
	<polyline fill="none" stroke="rgb(0,0,0)" stroke-width="1" stroke-opacity="1" points="613.250000,396.000000 613.250000,400.000000"/>
	<polyline fill="none" stroke="rgb(0,0,0)" stroke-width="1" stroke-opacity="1" points="638.357143,396.000000 638.357143,400.000000"/>
	<polyline fill="none" stroke="rgb(0,0,0)" stroke-width="1" stroke-opacity="1" points="663.464286,396.000000 663.464286,400.000000"/>
	<polyline fill="none" stroke="rgb(0,0,0)" stroke-width="1" stroke-opacity="1" points="688.571429,396.000000 688.571429,400.000000"/>
	<polyline fill="none" stroke="rgb(0,0,0)" stroke-width="1" stroke-opacity="1" points="713.678571,396.000000 713.678571,400.000000"/>
	<polyline fill="none" stroke="rgb(0,0,0)" stroke-width="1" stroke-opacity="1" points="738.785714,396.000000 738.785714,400.000000"/>
	<polyline fill="none" stroke="rgb(0,0,0)" stroke-width="1" stroke-opacity="1" points="763.892857,396.000000 763.892857,400.000000"/>
	<polyline fill="none" stroke="rgb(0,0,0)" stroke-width="1" stroke-opacity="1" points="789.000000,396.000000 789.000000,400.000000"/>
	<polyline fill="none" stroke="rgb(0,0,0)" stroke-width="1" stroke-opacity="1" points="86.000000,396.000000 86.000000,402.400000"/>
	<text x="86" y="411" fill="rgb(0,0,0)" dominant-baseline="central" font-size="11" font-family="Arial" text-anchor="middle">0.0</text>
	<polyline fill="none" stroke="rgb(0,0,0)" stroke-width="1" stroke-opacity="1" points="211.535714,396.000000 211.535714,402.400000"/>
	<text x="211.536" y="411" fill="rgb(0,0,0)" dominant-baseline="central" font-size="11" font-family="Arial" text-anchor="middle">2.5</text>
	<polyline fill="none" stroke="rgb(0,0,0)" stroke-width="1" stroke-opacity="1" points="337.071429,396.000000 337.071429,402.400000"/>
	<text x="337.071" y="411" fill="rgb(0,0,0)" dominant-baseline="central" font-size="11" font-family="Arial" text-anchor="middle">5.0</text>
	<polyline fill="none" stroke="rgb(0,0,0)" stroke-width="1" stroke-opacity="1" points="462.607143,396.000000 462.607143,402.400000"/>
	<text x="462.607" y="411" fill="rgb(0,0,0)" dominant-baseline="central" font-size="11" font-family="Arial" text-anchor="middle">7.5</text>
	<polyline fill="none" stroke="rgb(0,0,0)" stroke-width="1" stroke-opacity="1" points="588.142857,396.000000 588.142857,402.400000"/>
	<text x="588.143" y="411" fill="rgb(0,0,0)" dominant-baseline="central" font-size="11" font-family="Arial" text-anchor="middle">10.0</text>
	<polyline fill="none" stroke="rgb(0,0,0)" stroke-width="1" stroke-opacity="1" points="713.678571,396.000000 713.678571,402.400000"/>
	<text x="713.679" y="411" fill="rgb(0,0,0)" dominant-baseline="central" font-size="11" font-family="Arial" text-anchor="middle">12.5</text>
	<polyline fill="none" stroke="rgb(0,0,0)" stroke-width="1" stroke-opacity="1" points="82.000000,396.000000 86.000000,396.000000"/>
	<polyline fill="none" stroke="rgb(0,0,0)" stroke-width="1" stroke-opacity="1" points="82.000000,369.230769 86.000000,369.230769"/>
	<polyline fill="none" stroke="rgb(0,0,0)" stroke-width="1" stroke-opacity="1" points="82.000000,342.461538 86.000000,342.461538"/>
	<polyline fill="none" stroke="rgb(0,0,0)" stroke-width="1" stroke-opacity="1" points="82.000000,315.692308 86.000000,315.692308"/>
	<polyline fill="none" stroke="rgb(0,0,0)" stroke-width="1" stroke-opacity="1" points="82.000000,288.923077 86.000000,288.923077"/>
	<polyline fill="none" stroke="rgb(0,0,0)" stroke-width="1" stroke-opacity="1" points="82.000000,262.153846 86.000000,262.153846"/>
	<polyline fill="none" stroke="rgb(0,0,0)" stroke-width="1" stroke-opacity="1" points="82.000000,235.384615 86.000000,235.384615"/>
	<polyline fill="none" stroke="rgb(0,0,0)" stroke-width="1" stroke-opacity="1" points="82.000000,208.615385 86.000000,208.615385"/>
	<polyline fill="none" stroke="rgb(0,0,0)" stroke-width="1" stroke-opacity="1" points="82.000000,181.846154 86.000000,181.846154"/>
	<polyline fill="none" stroke="rgb(0,0,0)" stroke-width="1" stroke-opacity="1" points="82.000000,155.076923 86.000000,155.076923"/>
	<polyline fill="none" stroke="rgb(0,0,0)" stroke-width="1" stroke-opacity="1" points="82.000000,128.307692 86.000000,128.307692"/>
	<polyline fill="none" stroke="rgb(0,0,0)" stroke-width="1" stroke-opacity="1" points="82.000000,101.538462 86.000000,101.538462"/>
	<polyline fill="none" stroke="rgb(0,0,0)" stroke-width="1" stroke-opacity="1" points="82.000000,74.769231 86.000000,74.769231"/>
	<polyline fill="none" stroke="rgb(0,0,0)" stroke-width="1" stroke-opacity="1" points="82.000000,48.000000 86.000000,48.000000"/>
	<rect fill="none" stroke="none" stroke-dasharray="none" stroke-width="1" stroke-opacity="1" x="27" y="362.231" width="51" height="14"/>
	<polyline fill="none" stroke="rgb(0,0,0)" stroke-width="1" stroke-opacity="1" points="79.600000,369.230769 86.000000,369.230769"/>
	<text x="78" y="369.231" fill="rgb(0,0,0)" dominant-baseline="central" font-size="11" font-family="Arial" text-anchor="end">2360</text>
	<polyline fill="none" stroke="rgb(0,0,0)" stroke-width="1" stroke-opacity="1" points="79.600000,315.692308 86.000000,315.692308"/>
	<text x="78" y="315.692" fill="rgb(0,0,0)" dominant-baseline="central" font-size="11" font-family="Arial" text-anchor="end">2400</text>
	<polyline fill="none" stroke="rgb(0,0,0)" stroke-width="1" stroke-opacity="1" points="79.600000,262.153846 86.000000,262.153846"/>
	<text x="78" y="262.154" fill="rgb(0,0,0)" dominant-baseline="central" font-size="11" font-family="Arial" text-anchor="end">2440</text>
	<polyline fill="none" stroke="rgb(0,0,0)" stroke-width="1" stroke-opacity="1" points="79.600000,208.615385 86.000000,208.615385"/>
	<text x="78" y="208.615" fill="rgb(0,0,0)" dominant-baseline="central" font-size="11" font-family="Arial" text-anchor="end">2480</text>
	<polyline fill="none" stroke="rgb(0,0,0)" stroke-width="1" stroke-opacity="1" points="79.600000,155.076923 86.000000,155.076923"/>
	<text x="78" y="155.077" fill="rgb(0,0,0)" dominant-baseline="central" font-size="11" font-family="Arial" text-anchor="end">2520</text>
	<polyline fill="none" stroke="rgb(0,0,0)" stroke-width="1" stroke-opacity="1" points="79.600000,101.538462 86.000000,101.538462"/>
	<text x="78" y="101.538" fill="rgb(0,0,0)" dominant-baseline="central" font-size="11" font-family="Arial" text-anchor="end">2560</text>
	<polyline fill="none" stroke="rgb(0,0,0)" stroke-width="1" stroke-opacity="1" points="79.600000,48.000000 86.000000,48.000000"/>
	<text x="78" y="48" fill="rgb(0,0,0)" dominant-baseline="central" font-size="11" font-family="Arial" text-anchor="end">2600</text>
	<text x="25" y="222" fill="rgb(0,0,0)" dominant-baseline="central" transform="rotate(-90 25,222)" font-size="11" font-family="Arial" text-anchor="middle">SP [kg/d]</text>
	<text x="437.5" y="430" fill="rgb(0,0,0)" dominant-baseline="central" font-size="11" font-family="Arial" text-anchor="middle">Days</text>
	<text x="437.5" y="12" fill="rgb(0,0,0)" dominant-baseline="central" font-size="11" font-family="Arial" text-anchor="middle">SP for changes in Q_a and Q_r</text>
	<clipPath id="clipArea1">
		<rect x="86" y="48" width="703" height="348">
		</rect>
	</clipPath>
	<polyline fill="none" stroke="rgb(28,108,200)" stroke-width="1" stroke-opacity="1" clip-path="url(#clipArea1)" points="86.000000,237.282185 93.030000,238.062519 100.060000,239.371898 107.089999,240.677355 114.120000,241.264239 121.149999,242.108947 128.179999,243.116061 135.210001,244.007497 142.240000,244.998926 149.270000,246.452738 156.299999,247.951318 163.329998,248.743416 170.359997,249.655439 177.390003,250.755683 184.420002,251.757895 191.449995,252.798667 198.480000,254.247904 205.510006,255.782103 212.539999,256.787256 219.570004,257.804173 226.599998,259.049504 233.630003,260.187654 240.659996,261.347698 247.690001,262.858368 254.719995,264.511839 261.750000,265.766320 268.780005,266.809052 275.809999,268.094903 282.840004,269.339581 289.869997,270.511388 296.899990,272.029248 303.930008,273.694809 310.960001,275.096011 317.989994,276.222070 325.020011,277.587654 332.050005,278.940494 339.079998,280.257061 346.109991,281.857268 353.140009,283.585896 360.170002,285.225642 367.199995,286.624230 374.229989,288.190125 381.260006,289.781182 388.289999,291.336621 395.319992,292.999568 402.350010,294.846161 409.380003,296.655176 416.409996,298.137417 423.439989,299.763766 430.470007,301.447299 437.500000,303.060904 444.529993,304.679736 451.560011,306.526983 458.590004,308.365407 465.619997,309.674459 472.649990,311.148531 479.680008,312.727171 486.710001,314.207452 493.739994,315.745572 500.770011,317.614712 507.799981,319.511629 514.829998,320.878193 521.860015,322.313706 528.889985,323.876660 535.920002,325.354327 542.950019,326.847679 549.979989,328.640355 557.010006,330.492176 564.040023,331.936185 571.069992,333.373986 578.100010,334.976153 585.129979,336.484537 592.159996,338.000109 599.190013,339.777753 606.219983,341.662579 613.250000,343.233703 620.280017,344.626735 627.309987,346.198839 634.340004,347.730097 641.370021,349.194366 648.399990,350.923975 655.430008,352.766973 662.459977,354.396916 669.489994,355.797138 676.520011,357.379045 683.549981,358.944287 690.579998,360.472277 697.610015,362.222799 704.639985,364.073640 711.670002,365.850631 718.700019,367.426656 725.729989,369.131757 732.760006,370.853523 739.790023,372.541305 746.819992,374.311433 753.850010,376.229263 760.879979,378.114089 767.909996,379.726713 774.940013,381.452073 781.969983,383.220241 789.000000,384.926322 789.000000,384.926322"/>
	<polyline fill="none" stroke="rgb(238,46,47)" stroke-width="1" stroke-opacity="1" clip-path="url(#clipArea1)" points="86.000000,237.157358 93.030000,237.944881 100.060000,239.254913 107.089999,240.558083 114.120000,241.137778 121.149999,241.985753 128.179999,242.993521 135.210001,243.882997 142.240000,244.874752 149.270000,246.331179 156.299999,247.827798 163.329998,248.611726 170.359997,249.527344 177.390003,250.628568 184.420002,251.628820 191.449995,252.670898 198.480000,254.122423 205.510006,255.654988 212.539999,256.652952 219.570004,257.672810 226.599998,258.919449 233.630003,260.056291 240.659996,261.216662 247.690001,262.729620 254.719995,264.381783 261.750000,265.630382 268.780005,266.674422 275.809999,267.962233 282.840004,269.205604 289.869997,270.377085 296.899990,271.897559 303.930008,273.562793 310.960001,274.959420 317.989994,276.085806 325.020011,277.453350 332.050005,278.805210 339.079998,280.121777 346.109991,281.723618 353.140009,283.451919 360.170002,285.089705 367.199995,286.486659 374.229989,288.053208 381.260006,289.643611 388.289999,291.198723 395.319992,292.861997 402.350010,294.708917 409.380003,296.516624 416.409996,297.995598 423.439989,299.623580 430.470007,301.306787 437.500000,302.919738 444.529993,304.538897 451.560011,306.387124 458.590004,308.224568 465.619997,309.529699 472.649990,311.007039 479.680008,312.586005 486.710001,314.065959 493.739994,315.605059 500.770011,317.476814 507.799981,319.372750 514.829998,320.733759 521.860015,322.173193 528.889985,323.737128 535.920002,325.214468 542.950019,326.709127 549.979989,328.504417 557.010006,330.355258 564.040023,331.794366 571.069992,333.235434 578.100010,334.837928 585.129979,336.346638 592.159996,337.862864 599.190013,339.642796 606.219983,341.526968 613.250000,343.093517 620.280017,344.488510 627.309987,346.062902 634.340004,347.593506 641.370021,349.058102 648.399990,350.789998 655.430008,352.632997 662.459977,354.259998 669.489994,355.660874 676.520011,357.244742 683.549981,358.809657 690.579998,360.337973 697.610015,362.090129 704.639985,363.940971 711.670002,365.716327 718.700019,367.291372 725.729989,368.997453 732.760006,370.718893 739.790023,372.406348 746.819992,374.177130 753.850010,376.095613 760.879979,377.979458 767.909996,379.589795 774.940013,381.316463 781.969983,383.084630 789.000000,384.790711 789.000000,384.790711"/>
	<polyline fill="none" stroke="rgb(0,140,72)" stroke-width="1" stroke-opacity="1" clip-path="url(#clipArea1)" points="86.000000,59.507305 93.030000,60.400049 100.060000,62.006791 107.089999,63.644903 114.120000,64.421969 121.149999,65.439866 128.179999,66.680296 135.210001,67.785442 142.240000,68.979143 149.270000,70.719535 156.299999,72.551097 163.329998,73.580758 170.359997,74.649305 177.390003,75.968814 184.420002,77.185389 191.449995,78.412748 198.480000,80.130919 205.510006,81.976206 212.539999,83.233301 219.570004,84.413604 226.599998,85.878200 233.630003,87.239536 240.659996,88.605119 247.690001,90.359236 254.719995,92.329023 261.750000,93.868123 268.780005,95.061170 275.809999,96.555503 282.840004,98.019118 289.869997,99.377513 296.899990,101.129015 303.930008,103.088999 310.960001,104.774820 317.989994,106.059364 325.020011,107.627873 332.050005,109.205533 339.079998,110.722085 346.109991,112.562143 353.140009,114.579312 360.170002,116.511193 367.199995,118.120876 374.229989,119.915512 381.260006,121.756550 388.289999,123.546612 395.319992,125.448757 402.350010,127.581276 409.380003,129.685693 416.409996,131.386219 423.439989,133.231505 430.470007,135.158485 437.500000,137.003117 444.529993,138.836313 451.560011,140.941710 458.590004,143.061813 465.619997,144.549609 472.649990,146.187722 479.680008,147.971248 486.710001,149.643018 493.739994,151.361516 500.770011,153.471815 507.799981,155.644854 514.829998,157.216958 521.860015,158.795271 528.889985,160.546120 535.920002,162.208087 542.950019,163.862864 549.979989,165.879053 557.010006,167.987064 564.040023,169.641515 571.069992,171.219828 578.100010,173.004661 585.129979,174.698978 592.159996,176.385453 599.190013,178.363736 606.219983,180.507039 613.250000,182.310171 620.280017,183.828358 627.309987,185.570711 634.340004,187.281366 641.370021,188.897585 648.399990,190.817375 655.430008,192.900225 662.459977,194.761197 669.489994,196.289186 676.520011,198.034807 683.549981,199.781081 690.579998,201.469843 697.610015,203.414141 704.639985,205.499279 711.670002,207.513180 718.700019,209.258800 725.729989,211.148528 732.760006,213.072239 739.790023,214.948569 746.819992,216.912474 753.850010,219.062966 760.879979,221.188623 767.909996,222.976397 774.940013,224.877888 781.969983,226.843100 789.000000,228.735442 789.000000,228.735442"/>
	<rect fill="rgb(255,255,255)" stroke="none" stroke-opacity="0.7" x="86" y="23" width="329" height="17"/>
	<polyline fill="none" stroke="rgb(28,108,200)" stroke-width="1" stroke-opacity="1" points="86.000000,32.000000 116.000000,32.000000"/>
	<text x="121" y="32" fill="rgb(0,0,0)" dominant-baseline="central" font-size="11" font-family="Arial" text-anchor="start">Original values</text>
	<polyline fill="none" stroke="rgb(238,46,47)" stroke-width="1" stroke-opacity="1" points="202.000000,32.000000 232.000000,32.000000"/>
	<text x="237" y="32" fill="rgb(0,0,0)" dominant-baseline="central" font-size="11" font-family="Arial" text-anchor="start">Q_a = 38,727</text>
	<polyline fill="none" stroke="rgb(0,140,72)" stroke-width="1" stroke-opacity="1" points="312.000000,32.000000 342.000000,32.000000"/>
	<text x="347" y="32" fill="rgb(0,0,0)" dominant-baseline="central" font-size="11" font-family="Arial" text-anchor="start">Q_r = 12,912</text>
	<polyline fill="none" stroke="rgb(229,229,229)" stroke-width="1" stroke-opacity="1" points="86.000000,500.000000 86.000000,856.000000"/>
	<polyline fill="none" stroke="rgb(229,229,229)" stroke-width="1" stroke-opacity="1" points="111.107143,500.000000 111.107143,856.000000"/>
	<polyline fill="none" stroke="rgb(229,229,229)" stroke-width="1" stroke-opacity="1" points="136.214286,500.000000 136.214286,856.000000"/>
	<polyline fill="none" stroke="rgb(229,229,229)" stroke-width="1" stroke-opacity="1" points="161.321429,500.000000 161.321429,856.000000"/>
	<polyline fill="none" stroke="rgb(229,229,229)" stroke-width="1" stroke-opacity="1" points="186.428571,500.000000 186.428571,856.000000"/>
	<polyline fill="none" stroke="rgb(229,229,229)" stroke-width="1" stroke-opacity="1" points="211.535714,500.000000 211.535714,856.000000"/>
	<polyline fill="none" stroke="rgb(229,229,229)" stroke-width="1" stroke-opacity="1" points="236.642857,500.000000 236.642857,856.000000"/>
	<polyline fill="none" stroke="rgb(229,229,229)" stroke-width="1" stroke-opacity="1" points="261.750000,500.000000 261.750000,856.000000"/>
	<polyline fill="none" stroke="rgb(229,229,229)" stroke-width="1" stroke-opacity="1" points="286.857143,500.000000 286.857143,856.000000"/>
	<polyline fill="none" stroke="rgb(229,229,229)" stroke-width="1" stroke-opacity="1" points="311.964286,500.000000 311.964286,856.000000"/>
	<polyline fill="none" stroke="rgb(229,229,229)" stroke-width="1" stroke-opacity="1" points="337.071429,500.000000 337.071429,856.000000"/>
	<polyline fill="none" stroke="rgb(229,229,229)" stroke-width="1" stroke-opacity="1" points="362.178571,500.000000 362.178571,856.000000"/>
	<polyline fill="none" stroke="rgb(229,229,229)" stroke-width="1" stroke-opacity="1" points="387.285714,500.000000 387.285714,856.000000"/>
	<polyline fill="none" stroke="rgb(229,229,229)" stroke-width="1" stroke-opacity="1" points="412.392857,500.000000 412.392857,856.000000"/>
	<polyline fill="none" stroke="rgb(229,229,229)" stroke-width="1" stroke-opacity="1" points="437.500000,500.000000 437.500000,856.000000"/>
	<polyline fill="none" stroke="rgb(229,229,229)" stroke-width="1" stroke-opacity="1" points="462.607143,500.000000 462.607143,856.000000"/>
	<polyline fill="none" stroke="rgb(229,229,229)" stroke-width="1" stroke-opacity="1" points="487.714286,500.000000 487.714286,856.000000"/>
	<polyline fill="none" stroke="rgb(229,229,229)" stroke-width="1" stroke-opacity="1" points="512.821429,500.000000 512.821429,856.000000"/>
	<polyline fill="none" stroke="rgb(229,229,229)" stroke-width="1" stroke-opacity="1" points="537.928571,500.000000 537.928571,856.000000"/>
	<polyline fill="none" stroke="rgb(229,229,229)" stroke-width="1" stroke-opacity="1" points="563.035714,500.000000 563.035714,856.000000"/>
	<polyline fill="none" stroke="rgb(229,229,229)" stroke-width="1" stroke-opacity="1" points="588.142857,500.000000 588.142857,856.000000"/>
	<polyline fill="none" stroke="rgb(229,229,229)" stroke-width="1" stroke-opacity="1" points="613.250000,500.000000 613.250000,856.000000"/>
	<polyline fill="none" stroke="rgb(229,229,229)" stroke-width="1" stroke-opacity="1" points="638.357143,500.000000 638.357143,856.000000"/>
	<polyline fill="none" stroke="rgb(229,229,229)" stroke-width="1" stroke-opacity="1" points="663.464286,500.000000 663.464286,856.000000"/>
	<polyline fill="none" stroke="rgb(229,229,229)" stroke-width="1" stroke-opacity="1" points="688.571429,500.000000 688.571429,856.000000"/>
	<polyline fill="none" stroke="rgb(229,229,229)" stroke-width="1" stroke-opacity="1" points="713.678571,500.000000 713.678571,856.000000"/>
	<polyline fill="none" stroke="rgb(229,229,229)" stroke-width="1" stroke-opacity="1" points="738.785714,500.000000 738.785714,856.000000"/>
	<polyline fill="none" stroke="rgb(229,229,229)" stroke-width="1" stroke-opacity="1" points="763.892857,500.000000 763.892857,856.000000"/>
	<polyline fill="none" stroke="rgb(229,229,229)" stroke-width="1" stroke-opacity="1" points="789.000000,500.000000 789.000000,856.000000"/>
	<polyline fill="none" stroke="rgb(229,229,229)" stroke-width="1" stroke-opacity="1" points="86.000000,856.000000 789.000000,856.000000"/>
	<polyline fill="none" stroke="rgb(229,229,229)" stroke-width="1" stroke-opacity="1" points="86.000000,811.500000 789.000000,811.500000"/>
	<polyline fill="none" stroke="rgb(229,229,229)" stroke-width="1" stroke-opacity="1" points="86.000000,767.000000 789.000000,767.000000"/>
	<polyline fill="none" stroke="rgb(229,229,229)" stroke-width="1" stroke-opacity="1" points="86.000000,722.500000 789.000000,722.500000"/>
	<polyline fill="none" stroke="rgb(229,229,229)" stroke-width="1" stroke-opacity="1" points="86.000000,678.000000 789.000000,678.000000"/>
	<polyline fill="none" stroke="rgb(229,229,229)" stroke-width="1" stroke-opacity="1" points="86.000000,633.500000 789.000000,633.500000"/>
	<polyline fill="none" stroke="rgb(229,229,229)" stroke-width="1" stroke-opacity="1" points="86.000000,589.000000 789.000000,589.000000"/>
	<polyline fill="none" stroke="rgb(229,229,229)" stroke-width="1" stroke-opacity="1" points="86.000000,544.500000 789.000000,544.500000"/>
	<polyline fill="none" stroke="rgb(229,229,229)" stroke-width="1" stroke-opacity="1" points="86.000000,500.000000 789.000000,500.000000"/>
	<polyline fill="none" stroke="rgb(0,0,0)" stroke-width="1" stroke-opacity="1" points="86.000000,856.000000 789.000000,856.000000"/>
	<polyline fill="none" stroke="rgb(0,0,0)" stroke-width="1" stroke-opacity="1" points="789.000000,856.000000 789.000000,500.000000"/>
	<polyline fill="none" stroke="rgb(0,0,0)" stroke-width="1" stroke-opacity="1" points="789.000000,500.000000 86.000000,500.000000"/>
	<polyline fill="none" stroke="rgb(0,0,0)" stroke-width="1" stroke-opacity="1" points="86.000000,500.000000 86.000000,856.000000"/>
	<polyline fill="none" stroke="rgb(0,0,0)" stroke-width="1" stroke-opacity="1" points="86.000000,856.000000 86.000000,860.000000"/>
	<polyline fill="none" stroke="rgb(0,0,0)" stroke-width="1" stroke-opacity="1" points="111.107143,856.000000 111.107143,860.000000"/>
	<polyline fill="none" stroke="rgb(0,0,0)" stroke-width="1" stroke-opacity="1" points="136.214286,856.000000 136.214286,860.000000"/>
	<polyline fill="none" stroke="rgb(0,0,0)" stroke-width="1" stroke-opacity="1" points="161.321429,856.000000 161.321429,860.000000"/>
	<polyline fill="none" stroke="rgb(0,0,0)" stroke-width="1" stroke-opacity="1" points="186.428571,856.000000 186.428571,860.000000"/>
	<polyline fill="none" stroke="rgb(0,0,0)" stroke-width="1" stroke-opacity="1" points="211.535714,856.000000 211.535714,860.000000"/>
	<polyline fill="none" stroke="rgb(0,0,0)" stroke-width="1" stroke-opacity="1" points="236.642857,856.000000 236.642857,860.000000"/>
	<polyline fill="none" stroke="rgb(0,0,0)" stroke-width="1" stroke-opacity="1" points="261.750000,856.000000 261.750000,860.000000"/>
	<polyline fill="none" stroke="rgb(0,0,0)" stroke-width="1" stroke-opacity="1" points="286.857143,856.000000 286.857143,860.000000"/>
	<polyline fill="none" stroke="rgb(0,0,0)" stroke-width="1" stroke-opacity="1" points="311.964286,856.000000 311.964286,860.000000"/>
	<polyline fill="none" stroke="rgb(0,0,0)" stroke-width="1" stroke-opacity="1" points="337.071429,856.000000 337.071429,860.000000"/>
	<polyline fill="none" stroke="rgb(0,0,0)" stroke-width="1" stroke-opacity="1" points="362.178571,856.000000 362.178571,860.000000"/>
	<polyline fill="none" stroke="rgb(0,0,0)" stroke-width="1" stroke-opacity="1" points="387.285714,856.000000 387.285714,860.000000"/>
	<polyline fill="none" stroke="rgb(0,0,0)" stroke-width="1" stroke-opacity="1" points="412.392857,856.000000 412.392857,860.000000"/>
	<polyline fill="none" stroke="rgb(0,0,0)" stroke-width="1" stroke-opacity="1" points="437.500000,856.000000 437.500000,860.000000"/>
	<polyline fill="none" stroke="rgb(0,0,0)" stroke-width="1" stroke-opacity="1" points="462.607143,856.000000 462.607143,860.000000"/>
	<polyline fill="none" stroke="rgb(0,0,0)" stroke-width="1" stroke-opacity="1" points="487.714286,856.000000 487.714286,860.000000"/>
	<polyline fill="none" stroke="rgb(0,0,0)" stroke-width="1" stroke-opacity="1" points="512.821429,856.000000 512.821429,860.000000"/>
	<polyline fill="none" stroke="rgb(0,0,0)" stroke-width="1" stroke-opacity="1" points="537.928571,856.000000 537.928571,860.000000"/>
	<polyline fill="none" stroke="rgb(0,0,0)" stroke-width="1" stroke-opacity="1" points="563.035714,856.000000 563.035714,860.000000"/>
	<polyline fill="none" stroke="rgb(0,0,0)" stroke-width="1" stroke-opacity="1" points="588.142857,856.000000 588.142857,860.000000"/>
	<polyline fill="none" stroke="rgb(0,0,0)" stroke-width="1" stroke-opacity="1" points="613.250000,856.000000 613.250000,860.000000"/>
	<polyline fill="none" stroke="rgb(0,0,0)" stroke-width="1" stroke-opacity="1" points="638.357143,856.000000 638.357143,860.000000"/>
	<polyline fill="none" stroke="rgb(0,0,0)" stroke-width="1" stroke-opacity="1" points="663.464286,856.000000 663.464286,860.000000"/>
	<polyline fill="none" stroke="rgb(0,0,0)" stroke-width="1" stroke-opacity="1" points="688.571429,856.000000 688.571429,860.000000"/>
	<polyline fill="none" stroke="rgb(0,0,0)" stroke-width="1" stroke-opacity="1" points="713.678571,856.000000 713.678571,860.000000"/>
	<polyline fill="none" stroke="rgb(0,0,0)" stroke-width="1" stroke-opacity="1" points="738.785714,856.000000 738.785714,860.000000"/>
	<polyline fill="none" stroke="rgb(0,0,0)" stroke-width="1" stroke-opacity="1" points="763.892857,856.000000 763.892857,860.000000"/>
	<polyline fill="none" stroke="rgb(0,0,0)" stroke-width="1" stroke-opacity="1" points="789.000000,856.000000 789.000000,860.000000"/>
	<polyline fill="none" stroke="rgb(0,0,0)" stroke-width="1" stroke-opacity="1" points="86.000000,856.000000 86.000000,862.400000"/>
	<text x="86" y="871" fill="rgb(0,0,0)" dominant-baseline="central" font-size="11" font-family="Arial" text-anchor="middle">0.0</text>
	<polyline fill="none" stroke="rgb(0,0,0)" stroke-width="1" stroke-opacity="1" points="211.535714,856.000000 211.535714,862.400000"/>
	<text x="211.536" y="871" fill="rgb(0,0,0)" dominant-baseline="central" font-size="11" font-family="Arial" text-anchor="middle">2.5</text>
	<polyline fill="none" stroke="rgb(0,0,0)" stroke-width="1" stroke-opacity="1" points="337.071429,856.000000 337.071429,862.400000"/>
	<text x="337.071" y="871" fill="rgb(0,0,0)" dominant-baseline="central" font-size="11" font-family="Arial" text-anchor="middle">5.0</text>
	<polyline fill="none" stroke="rgb(0,0,0)" stroke-width="1" stroke-opacity="1" points="462.607143,856.000000 462.607143,862.400000"/>
	<text x="462.607" y="871" fill="rgb(0,0,0)" dominant-baseline="central" font-size="11" font-family="Arial" text-anchor="middle">7.5</text>
	<polyline fill="none" stroke="rgb(0,0,0)" stroke-width="1" stroke-opacity="1" points="588.142857,856.000000 588.142857,862.400000"/>
	<text x="588.143" y="871" fill="rgb(0,0,0)" dominant-baseline="central" font-size="11" font-family="Arial" text-anchor="middle">10.0</text>
	<polyline fill="none" stroke="rgb(0,0,0)" stroke-width="1" stroke-opacity="1" points="713.678571,856.000000 713.678571,862.400000"/>
	<text x="713.679" y="871" fill="rgb(0,0,0)" dominant-baseline="central" font-size="11" font-family="Arial" text-anchor="middle">12.5</text>
	<polyline fill="none" stroke="rgb(0,0,0)" stroke-width="1" stroke-opacity="1" points="82.000000,856.000000 86.000000,856.000000"/>
	<polyline fill="none" stroke="rgb(0,0,0)" stroke-width="1" stroke-opacity="1" points="82.000000,811.500000 86.000000,811.500000"/>
	<polyline fill="none" stroke="rgb(0,0,0)" stroke-width="1" stroke-opacity="1" points="82.000000,767.000000 86.000000,767.000000"/>
	<polyline fill="none" stroke="rgb(0,0,0)" stroke-width="1" stroke-opacity="1" points="82.000000,722.500000 86.000000,722.500000"/>
	<polyline fill="none" stroke="rgb(0,0,0)" stroke-width="1" stroke-opacity="1" points="82.000000,678.000000 86.000000,678.000000"/>
	<polyline fill="none" stroke="rgb(0,0,0)" stroke-width="1" stroke-opacity="1" points="82.000000,633.500000 86.000000,633.500000"/>
	<polyline fill="none" stroke="rgb(0,0,0)" stroke-width="1" stroke-opacity="1" points="82.000000,589.000000 86.000000,589.000000"/>
	<polyline fill="none" stroke="rgb(0,0,0)" stroke-width="1" stroke-opacity="1" points="82.000000,544.500000 86.000000,544.500000"/>
	<polyline fill="none" stroke="rgb(0,0,0)" stroke-width="1" stroke-opacity="1" points="82.000000,500.000000 86.000000,500.000000"/>
	<rect fill="none" stroke="none" stroke-dasharray="none" stroke-width="1" stroke-opacity="1" x="27" y="849" width="51" height="14"/>
	<polyline fill="none" stroke="rgb(0,0,0)" stroke-width="1" stroke-opacity="1" points="79.600000,856.000000 86.000000,856.000000"/>
	<text x="78" y="856" fill="rgb(0,0,0)" dominant-baseline="central" font-size="11" font-family="Arial" text-anchor="end">2.20E4</text>
	<polyline fill="none" stroke="rgb(0,0,0)" stroke-width="1" stroke-opacity="1" points="79.600000,811.500000 86.000000,811.500000"/>
	<text x="78" y="811.5" fill="rgb(0,0,0)" dominant-baseline="central" font-size="11" font-family="Arial" text-anchor="end">2.25E4</text>
	<polyline fill="none" stroke="rgb(0,0,0)" stroke-width="1" stroke-opacity="1" points="79.600000,767.000000 86.000000,767.000000"/>
	<text x="78" y="767" fill="rgb(0,0,0)" dominant-baseline="central" font-size="11" font-family="Arial" text-anchor="end">2.30E4</text>
	<polyline fill="none" stroke="rgb(0,0,0)" stroke-width="1" stroke-opacity="1" points="79.600000,722.500000 86.000000,722.500000"/>
	<text x="78" y="722.5" fill="rgb(0,0,0)" dominant-baseline="central" font-size="11" font-family="Arial" text-anchor="end">2.35E4</text>
	<polyline fill="none" stroke="rgb(0,0,0)" stroke-width="1" stroke-opacity="1" points="79.600000,678.000000 86.000000,678.000000"/>
	<text x="78" y="678" fill="rgb(0,0,0)" dominant-baseline="central" font-size="11" font-family="Arial" text-anchor="end">2.40E4</text>
	<polyline fill="none" stroke="rgb(0,0,0)" stroke-width="1" stroke-opacity="1" points="79.600000,633.500000 86.000000,633.500000"/>
	<text x="78" y="633.5" fill="rgb(0,0,0)" dominant-baseline="central" font-size="11" font-family="Arial" text-anchor="end">2.45E4</text>
	<polyline fill="none" stroke="rgb(0,0,0)" stroke-width="1" stroke-opacity="1" points="79.600000,589.000000 86.000000,589.000000"/>
	<text x="78" y="589" fill="rgb(0,0,0)" dominant-baseline="central" font-size="11" font-family="Arial" text-anchor="end">2.50E4</text>
	<polyline fill="none" stroke="rgb(0,0,0)" stroke-width="1" stroke-opacity="1" points="79.600000,544.500000 86.000000,544.500000"/>
	<text x="78" y="544.5" fill="rgb(0,0,0)" dominant-baseline="central" font-size="11" font-family="Arial" text-anchor="end">2.55E4</text>
	<polyline fill="none" stroke="rgb(0,0,0)" stroke-width="1" stroke-opacity="1" points="79.600000,500.000000 86.000000,500.000000"/>
	<text x="78" y="500" fill="rgb(0,0,0)" dominant-baseline="central" font-size="11" font-family="Arial" text-anchor="end">2.60E4</text>
	<text x="25" y="678" fill="rgb(0,0,0)" dominant-baseline="central" transform="rotate(-90 25,678)" font-size="11" font-family="Arial" text-anchor="middle">EQ  [kg pollution unit/d]</text>
	<text x="437.5" y="890" fill="rgb(0,0,0)" dominant-baseline="central" font-size="11" font-family="Arial" text-anchor="middle">Days</text>
	<text x="437.5" y="464" fill="rgb(0,0,0)" dominant-baseline="central" font-size="11" font-family="Arial" text-anchor="middle">EQ for changes in Q_a and Q_r</text>
	<clipPath id="clipArea2">
		<rect x="86" y="500" width="703" height="356">
		</rect>
	</clipPath>
	<polyline fill="none" stroke="rgb(28,108,200)" stroke-width="1" stroke-opacity="1" clip-path="url(#clipArea2)" points="86.000000,535.510652 93.030000,537.527754 100.060000,540.012975 107.089999,542.303334 114.120000,543.553680 121.149999,545.355756 128.179999,547.300023 135.210001,549.028223 142.240000,551.042369 149.270000,553.587734 156.299999,556.061482 163.329998,557.323996 170.359997,559.008564 177.390003,560.938578 184.420002,562.600375 191.449995,564.500838 198.480000,566.914963 205.510006,569.351686 212.539999,570.800717 219.570004,572.485111 226.599998,574.468143 233.630003,576.268133 240.659996,578.118707 247.690001,580.537699 254.719995,583.009709 261.750000,584.625789 268.780005,586.199629 275.809999,588.100961 282.840004,589.894172 289.869997,591.650531 296.899990,593.945062 303.930008,596.344238 310.960001,598.121631 317.989994,599.703467 325.020011,601.659207 332.050005,603.504393 339.079998,605.378607 346.109991,607.671227 353.140009,610.059451 360.170002,612.191975 367.199995,614.078879 374.229989,616.190195 381.260006,618.271439 388.289999,620.312877 395.319992,622.522580 402.350010,624.915324 409.380003,627.147973 416.409996,628.939445 423.439989,630.974104 430.470007,633.021451 437.500000,634.955115 444.529993,636.946838 451.560011,639.236154 458.590004,641.358770 465.619997,642.563572 472.649990,644.221719 479.680008,646.007107 486.710001,647.607369 493.739994,649.454988 500.770011,651.764295 507.799981,654.018846 514.829998,655.228342 521.860015,656.782887 528.889985,658.552109 535.920002,660.091010 542.950019,661.834680 549.979989,664.028043 557.010006,666.245047 564.040023,667.607686 571.069992,669.157363 578.100010,670.968131 585.129979,672.620193 592.159996,674.315539 599.190013,676.507164 606.219983,678.749547 613.250000,680.250031 620.280017,681.693674 627.309987,683.423959 634.340004,685.060203 641.370021,686.662898 648.399990,688.740666 655.430008,690.914213 662.459977,692.545242 669.489994,693.989580 676.520011,695.762453 683.549981,697.438678 690.579998,699.139934 697.610015,701.213355 704.639985,703.374039 711.670002,705.311527 718.700019,707.025473 725.729989,708.936887 732.760006,710.821879 739.790023,712.670715 746.819992,714.668348 753.850010,716.830248 760.879979,718.851869 767.909996,720.476293 774.940013,722.314352 781.969983,724.164057 789.000000,725.911551 789.000000,725.911551"/>
	<polyline fill="none" stroke="rgb(238,46,47)" stroke-width="1" stroke-opacity="1" clip-path="url(#clipArea2)" points="86.000000,540.627109 93.030000,542.642646 100.060000,545.123695 107.089999,547.409361 114.120000,548.657447 121.149999,550.463000 128.179999,552.409006 135.210001,554.139291 142.240000,556.155523 149.270000,558.699672 156.299999,561.172725 163.329998,562.442365 170.359997,564.138059 177.390003,566.075547 184.420002,567.745861 191.449995,569.653104 198.480000,572.069662 205.510006,574.507949 212.539999,575.967062 219.570004,577.664146 226.599998,579.656391 233.630003,581.465594 240.659996,583.325555 247.690001,585.747328 254.719995,588.221076 261.750000,589.848107 268.780005,591.436723 275.809999,593.350049 282.840004,595.154211 289.869997,596.921521 296.899990,599.220920 303.930008,601.623225 310.960001,603.411047 317.989994,605.007311 325.020011,606.974350 332.050005,608.830660 339.079998,610.714783 346.109991,613.012443 353.140009,615.403971 360.170002,617.543447 367.199995,619.440607 374.229989,621.560615 381.260006,623.650377 388.289999,625.701027 395.319992,627.917336 402.350010,630.313730 409.380003,632.553158 416.409996,634.357668 423.439989,636.403451 430.470007,638.461229 437.500000,640.406887 444.529993,642.409387 451.560011,644.704439 458.590004,646.835920 465.619997,648.062277 472.649990,649.739023 479.680008,651.538840 486.710001,653.154225 493.739994,655.013316 500.770011,657.326621 507.799981,659.585691 514.829998,660.813961 521.860015,662.386584 528.889985,664.169018 535.920002,665.722520 542.950019,667.477662 549.979989,669.675719 557.010006,671.896895 564.040023,673.275004 571.069992,674.840848 578.100010,676.663436 585.129979,678.327318 592.159996,680.034484 599.190013,682.229760 606.219983,684.475271 613.250000,685.989314 620.280017,687.449645 627.309987,689.193141 634.340004,690.841727 641.370021,692.456590 648.399990,694.539920 655.430008,696.717117 662.459977,698.359967 669.489994,699.819428 676.520011,701.604295 683.549981,703.292340 690.579998,705.004199 697.610015,707.082662 704.639985,709.246822 711.670002,711.191611 718.700019,712.916160 725.729989,714.836266 732.760006,716.730297 739.790023,718.588172 746.819992,720.592410 753.850010,722.757787 760.879979,724.786014 767.909996,726.423475 774.940013,728.272484 781.969983,730.132619 789.000000,731.891934 789.000000,731.891934"/>
	<polyline fill="none" stroke="rgb(0,140,72)" stroke-width="1" stroke-opacity="1" clip-path="url(#clipArea2)" points="86.000000,626.529145 93.030000,628.466633 100.060000,630.855900 107.089999,633.067168 114.120000,634.318035 121.149999,636.093168 128.179999,637.998150 135.210001,639.705664 142.240000,641.682785 149.270000,644.153230 156.299999,646.558838 163.329998,647.841516 170.359997,649.508180 177.390003,651.397518 184.420002,653.039150 191.449995,654.906238 198.480000,657.252223 205.510006,659.619588 212.539999,661.072096 219.570004,662.736326 226.599998,664.674336 233.630003,666.441820 240.659996,668.260063 247.690001,670.606568 254.719995,673.003658 261.750000,674.609135 268.780005,676.166113 275.809999,678.024162 282.840004,679.780174 289.869997,681.505418 296.899990,683.733199 303.930008,686.059367 310.960001,687.810338 317.989994,689.372010 325.020011,691.279600 332.050005,693.082371 339.079998,694.913998 346.109991,697.137607 353.140009,699.451260 360.170002,701.528680 367.199995,703.374387 374.229989,705.428340 381.260006,707.453264 388.289999,709.440467 395.319992,711.584637 402.350010,713.899332 409.380003,716.066273 416.409996,717.819852 423.439989,719.798189 430.470007,721.787305 437.500000,723.669863 444.529993,725.606482 451.560011,727.821227 458.590004,729.881785 465.619997,731.080852 472.649990,732.698670 479.680008,734.430172 486.710001,735.990105 493.739994,737.786271 500.770011,740.015965 507.799981,742.195596 514.829998,743.397617 521.860015,744.916354 528.889985,746.630299 535.920002,748.129045 542.950019,749.824738 549.979989,751.943877 557.010006,754.085787 564.040023,755.428957 571.069992,756.942652 578.100010,758.696578 585.129979,760.300316 592.159996,761.949598 599.190013,764.065260 606.219983,766.229941 613.250000,767.701744 620.280017,769.113750 627.309987,770.790496 634.340004,772.376504 641.370021,773.935395 648.399990,775.942588 655.430008,778.040520 662.459977,779.631742 669.489994,781.043227 676.520011,782.760475 683.549981,784.384029 690.579998,786.034006 697.610015,788.035984 704.639985,790.121053 711.670002,791.998049 718.700019,793.663496 725.729989,795.513375 732.760006,797.337875 739.790023,799.127783 746.819992,801.058145 753.850010,803.142865 760.879979,805.097215 767.909996,806.676965 774.940013,808.455922 781.969983,810.244266 789.000000,811.936656 789.000000,811.936656"/>
	<rect fill="rgb(255,255,255)" stroke="none" stroke-opacity="0.7" x="86" y="475" width="329" height="17"/>
	<polyline fill="none" stroke="rgb(28,108,200)" stroke-width="1" stroke-opacity="1" points="86.000000,484.000000 116.000000,484.000000"/>
	<text x="121" y="484" fill="rgb(0,0,0)" dominant-baseline="central" font-size="11" font-family="Arial" text-anchor="start">Original values</text>
	<polyline fill="none" stroke="rgb(238,46,47)" stroke-width="1" stroke-opacity="1" points="202.000000,484.000000 232.000000,484.000000"/>
	<text x="237" y="484" fill="rgb(0,0,0)" dominant-baseline="central" font-size="11" font-family="Arial" text-anchor="start">Q_a = 38,737</text>
	<polyline fill="none" stroke="rgb(0,140,72)" stroke-width="1" stroke-opacity="1" points="312.000000,484.000000 342.000000,484.000000"/>
	<text x="347" y="484" fill="rgb(0,0,0)" dominant-baseline="central" font-size="11" font-family="Arial" text-anchor="start">Q_r = 12,912</text>
</svg>
