<?xml version="1.0" standalone="no"?>
<!DOCTYPE svg PUBLIC "-//W3C//DTD SVG 1.1//EN" "http://www.w3.org/Graphics/SVG/1.1/DTD/svg11.dtd">
<svg viewBox="0 0 814.000000 905.000000" version="1.1" xmlns="http://www.w3.org/2000/svg" xmlns:xlink="http://www.w3.org/1999/xlink">
	<polyline fill="none" stroke="rgb(229,229,229)" stroke-width="1" stroke-opacity="1" points="86.000000,48.000000 86.000000,400.000000"/>
	<polyline fill="none" stroke="rgb(229,229,229)" stroke-width="1" stroke-opacity="1" points="111.107143,48.000000 111.107143,400.000000"/>
	<polyline fill="none" stroke="rgb(229,229,229)" stroke-width="1" stroke-opacity="1" points="136.214286,48.000000 136.214286,400.000000"/>
	<polyline fill="none" stroke="rgb(229,229,229)" stroke-width="1" stroke-opacity="1" points="161.321429,48.000000 161.321429,400.000000"/>
	<polyline fill="none" stroke="rgb(229,229,229)" stroke-width="1" stroke-opacity="1" points="186.428571,48.000000 186.428571,400.000000"/>
	<polyline fill="none" stroke="rgb(229,229,229)" stroke-width="1" stroke-opacity="1" points="211.535714,48.000000 211.535714,400.000000"/>
	<polyline fill="none" stroke="rgb(229,229,229)" stroke-width="1" stroke-opacity="1" points="236.642857,48.000000 236.642857,400.000000"/>
	<polyline fill="none" stroke="rgb(229,229,229)" stroke-width="1" stroke-opacity="1" points="261.750000,48.000000 261.750000,400.000000"/>
	<polyline fill="none" stroke="rgb(229,229,229)" stroke-width="1" stroke-opacity="1" points="286.857143,48.000000 286.857143,400.000000"/>
	<polyline fill="none" stroke="rgb(229,229,229)" stroke-width="1" stroke-opacity="1" points="311.964286,48.000000 311.964286,400.000000"/>
	<polyline fill="none" stroke="rgb(229,229,229)" stroke-width="1" stroke-opacity="1" points="337.071429,48.000000 337.071429,400.000000"/>
	<polyline fill="none" stroke="rgb(229,229,229)" stroke-width="1" stroke-opacity="1" points="362.178571,48.000000 362.178571,400.000000"/>
	<polyline fill="none" stroke="rgb(229,229,229)" stroke-width="1" stroke-opacity="1" points="387.285714,48.000000 387.285714,400.000000"/>
	<polyline fill="none" stroke="rgb(229,229,229)" stroke-width="1" stroke-opacity="1" points="412.392857,48.000000 412.392857,400.000000"/>
	<polyline fill="none" stroke="rgb(229,229,229)" stroke-width="1" stroke-opacity="1" points="437.500000,48.000000 437.500000,400.000000"/>
	<polyline fill="none" stroke="rgb(229,229,229)" stroke-width="1" stroke-opacity="1" points="462.607143,48.000000 462.607143,400.000000"/>
	<polyline fill="none" stroke="rgb(229,229,229)" stroke-width="1" stroke-opacity="1" points="487.714286,48.000000 487.714286,400.000000"/>
	<polyline fill="none" stroke="rgb(229,229,229)" stroke-width="1" stroke-opacity="1" points="512.821429,48.000000 512.821429,400.000000"/>
	<polyline fill="none" stroke="rgb(229,229,229)" stroke-width="1" stroke-opacity="1" points="537.928571,48.000000 537.928571,400.000000"/>
	<polyline fill="none" stroke="rgb(229,229,229)" stroke-width="1" stroke-opacity="1" points="563.035714,48.000000 563.035714,400.000000"/>
	<polyline fill="none" stroke="rgb(229,229,229)" stroke-width="1" stroke-opacity="1" points="588.142857,48.000000 588.142857,400.000000"/>
	<polyline fill="none" stroke="rgb(229,229,229)" stroke-width="1" stroke-opacity="1" points="613.250000,48.000000 613.250000,400.000000"/>
	<polyline fill="none" stroke="rgb(229,229,229)" stroke-width="1" stroke-opacity="1" points="638.357143,48.000000 638.357143,400.000000"/>
	<polyline fill="none" stroke="rgb(229,229,229)" stroke-width="1" stroke-opacity="1" points="663.464286,48.000000 663.464286,400.000000"/>
	<polyline fill="none" stroke="rgb(229,229,229)" stroke-width="1" stroke-opacity="1" points="688.571429,48.000000 688.571429,400.000000"/>
	<polyline fill="none" stroke="rgb(229,229,229)" stroke-width="1" stroke-opacity="1" points="713.678571,48.000000 713.678571,400.000000"/>
	<polyline fill="none" stroke="rgb(229,229,229)" stroke-width="1" stroke-opacity="1" points="738.785714,48.000000 738.785714,400.000000"/>
	<polyline fill="none" stroke="rgb(229,229,229)" stroke-width="1" stroke-opacity="1" points="763.892857,48.000000 763.892857,400.000000"/>
	<polyline fill="none" stroke="rgb(229,229,229)" stroke-width="1" stroke-opacity="1" points="789.000000,48.000000 789.000000,400.000000"/>
	<polyline fill="none" stroke="rgb(229,229,229)" stroke-width="1" stroke-opacity="1" points="86.000000,400.000000 789.000000,400.000000"/>
	<polyline fill="none" stroke="rgb(229,229,229)" stroke-width="1" stroke-opacity="1" points="86.000000,360.888889 789.000000,360.888889"/>
	<polyline fill="none" stroke="rgb(229,229,229)" stroke-width="1" stroke-opacity="1" points="86.000000,321.777778 789.000000,321.777778"/>
	<polyline fill="none" stroke="rgb(229,229,229)" stroke-width="1" stroke-opacity="1" points="86.000000,282.666667 789.000000,282.666667"/>
	<polyline fill="none" stroke="rgb(229,229,229)" stroke-width="1" stroke-opacity="1" points="86.000000,243.555556 789.000000,243.555556"/>
	<polyline fill="none" stroke="rgb(229,229,229)" stroke-width="1" stroke-opacity="1" points="86.000000,204.444444 789.000000,204.444444"/>
	<polyline fill="none" stroke="rgb(229,229,229)" stroke-width="1" stroke-opacity="1" points="86.000000,165.333333 789.000000,165.333333"/>
	<polyline fill="none" stroke="rgb(229,229,229)" stroke-width="1" stroke-opacity="1" points="86.000000,126.222222 789.000000,126.222222"/>
	<polyline fill="none" stroke="rgb(229,229,229)" stroke-width="1" stroke-opacity="1" points="86.000000,87.111111 789.000000,87.111111"/>
	<polyline fill="none" stroke="rgb(229,229,229)" stroke-width="1" stroke-opacity="1" points="86.000000,48.000000 789.000000,48.000000"/>
	<polyline fill="none" stroke="rgb(0,0,0)" stroke-width="1" stroke-opacity="1" points="86.000000,400.000000 789.000000,400.000000"/>
	<polyline fill="none" stroke="rgb(0,0,0)" stroke-width="1" stroke-opacity="1" points="789.000000,400.000000 789.000000,48.000000"/>
	<polyline fill="none" stroke="rgb(0,0,0)" stroke-width="1" stroke-opacity="1" points="789.000000,48.000000 86.000000,48.000000"/>
	<polyline fill="none" stroke="rgb(0,0,0)" stroke-width="1" stroke-opacity="1" points="86.000000,48.000000 86.000000,400.000000"/>
	<polyline fill="none" stroke="rgb(0,0,0)" stroke-width="1" stroke-opacity="1" points="86.000000,400.000000 86.000000,404.000000"/>
	<polyline fill="none" stroke="rgb(0,0,0)" stroke-width="1" stroke-opacity="1" points="111.107143,400.000000 111.107143,404.000000"/>
	<polyline fill="none" stroke="rgb(0,0,0)" stroke-width="1" stroke-opacity="1" points="136.214286,400.000000 136.214286,404.000000"/>
	<polyline fill="none" stroke="rgb(0,0,0)" stroke-width="1" stroke-opacity="1" points="161.321429,400.000000 161.321429,404.000000"/>
	<polyline fill="none" stroke="rgb(0,0,0)" stroke-width="1" stroke-opacity="1" points="186.428571,400.000000 186.428571,404.000000"/>
	<polyline fill="none" stroke="rgb(0,0,0)" stroke-width="1" stroke-opacity="1" points="211.535714,400.000000 211.535714,404.000000"/>
	<polyline fill="none" stroke="rgb(0,0,0)" stroke-width="1" stroke-opacity="1" points="236.642857,400.000000 236.642857,404.000000"/>
	<polyline fill="none" stroke="rgb(0,0,0)" stroke-width="1" stroke-opacity="1" points="261.750000,400.000000 261.750000,404.000000"/>
	<polyline fill="none" stroke="rgb(0,0,0)" stroke-width="1" stroke-opacity="1" points="286.857143,400.000000 286.857143,404.000000"/>
	<polyline fill="none" stroke="rgb(0,0,0)" stroke-width="1" stroke-opacity="1" points="311.964286,400.000000 311.964286,404.000000"/>
	<polyline fill="none" stroke="rgb(0,0,0)" stroke-width="1" stroke-opacity="1" points="337.071429,400.000000 337.071429,404.000000"/>
	<polyline fill="none" stroke="rgb(0,0,0)" stroke-width="1" stroke-opacity="1" points="362.178571,400.000000 362.178571,404.000000"/>
	<polyline fill="none" stroke="rgb(0,0,0)" stroke-width="1" stroke-opacity="1" points="387.285714,400.000000 387.285714,404.000000"/>
	<polyline fill="none" stroke="rgb(0,0,0)" stroke-width="1" stroke-opacity="1" points="412.392857,400.000000 412.392857,404.000000"/>
	<polyline fill="none" stroke="rgb(0,0,0)" stroke-width="1" stroke-opacity="1" points="437.500000,400.000000 437.500000,404.000000"/>
	<polyline fill="none" stroke="rgb(0,0,0)" stroke-width="1" stroke-opacity="1" points="462.607143,400.000000 462.607143,404.000000"/>
	<polyline fill="none" stroke="rgb(0,0,0)" stroke-width="1" stroke-opacity="1" points="487.714286,400.000000 487.714286,404.000000"/>
	<polyline fill="none" stroke="rgb(0,0,0)" stroke-width="1" stroke-opacity="1" points="512.821429,400.000000 512.821429,404.000000"/>
	<polyline fill="none" stroke="rgb(0,0,0)" stroke-width="1" stroke-opacity="1" points="537.928571,400.000000 537.928571,404.000000"/>
	<polyline fill="none" stroke="rgb(0,0,0)" stroke-width="1" stroke-opacity="1" points="563.035714,400.000000 563.035714,404.000000"/>
	<polyline fill="none" stroke="rgb(0,0,0)" stroke-width="1" stroke-opacity="1" points="588.142857,400.000000 588.142857,404.000000"/>
	<polyline fill="none" stroke="rgb(0,0,0)" stroke-width="1" stroke-opacity="1" points="613.250000,400.000000 613.250000,404.000000"/>
	<polyline fill="none" stroke="rgb(0,0,0)" stroke-width="1" stroke-opacity="1" points="638.357143,400.000000 638.357143,404.000000"/>
	<polyline fill="none" stroke="rgb(0,0,0)" stroke-width="1" stroke-opacity="1" points="663.464286,400.000000 663.464286,404.000000"/>
	<polyline fill="none" stroke="rgb(0,0,0)" stroke-width="1" stroke-opacity="1" points="688.571429,400.000000 688.571429,404.000000"/>
	<polyline fill="none" stroke="rgb(0,0,0)" stroke-width="1" stroke-opacity="1" points="713.678571,400.000000 713.678571,404.000000"/>
	<polyline fill="none" stroke="rgb(0,0,0)" stroke-width="1" stroke-opacity="1" points="738.785714,400.000000 738.785714,404.000000"/>
	<polyline fill="none" stroke="rgb(0,0,0)" stroke-width="1" stroke-opacity="1" points="763.892857,400.000000 763.892857,404.000000"/>
	<polyline fill="none" stroke="rgb(0,0,0)" stroke-width="1" stroke-opacity="1" points="789.000000,400.000000 789.000000,404.000000"/>
	<polyline fill="none" stroke="rgb(0,0,0)" stroke-width="1" stroke-opacity="1" points="86.000000,400.000000 86.000000,406.400000"/>
	<text x="86" y="415" fill="rgb(0,0,0)" dominant-baseline="central" font-size="11" font-family="Arial" text-anchor="middle">0.0</text>
	<polyline fill="none" stroke="rgb(0,0,0)" stroke-width="1" stroke-opacity="1" points="211.535714,400.000000 211.535714,406.400000"/>
	<text x="211.536" y="415" fill="rgb(0,0,0)" dominant-baseline="central" font-size="11" font-family="Arial" text-anchor="middle">2.5</text>
	<polyline fill="none" stroke="rgb(0,0,0)" stroke-width="1" stroke-opacity="1" points="337.071429,400.000000 337.071429,406.400000"/>
	<text x="337.071" y="415" fill="rgb(0,0,0)" dominant-baseline="central" font-size="11" font-family="Arial" text-anchor="middle">5.0</text>
	<polyline fill="none" stroke="rgb(0,0,0)" stroke-width="1" stroke-opacity="1" points="462.607143,400.000000 462.607143,406.400000"/>
	<text x="462.607" y="415" fill="rgb(0,0,0)" dominant-baseline="central" font-size="11" font-family="Arial" text-anchor="middle">7.5</text>
	<polyline fill="none" stroke="rgb(0,0,0)" stroke-width="1" stroke-opacity="1" points="588.142857,400.000000 588.142857,406.400000"/>
	<text x="588.143" y="415" fill="rgb(0,0,0)" dominant-baseline="central" font-size="11" font-family="Arial" text-anchor="middle">10.0</text>
	<polyline fill="none" stroke="rgb(0,0,0)" stroke-width="1" stroke-opacity="1" points="713.678571,400.000000 713.678571,406.400000"/>
	<text x="713.679" y="415" fill="rgb(0,0,0)" dominant-baseline="central" font-size="11" font-family="Arial" text-anchor="middle">12.5</text>
	<polyline fill="none" stroke="rgb(0,0,0)" stroke-width="1" stroke-opacity="1" points="82.000000,400.000000 86.000000,400.000000"/>
	<polyline fill="none" stroke="rgb(0,0,0)" stroke-width="1" stroke-opacity="1" points="82.000000,360.888889 86.000000,360.888889"/>
	<polyline fill="none" stroke="rgb(0,0,0)" stroke-width="1" stroke-opacity="1" points="82.000000,321.777778 86.000000,321.777778"/>
	<polyline fill="none" stroke="rgb(0,0,0)" stroke-width="1" stroke-opacity="1" points="82.000000,282.666667 86.000000,282.666667"/>
	<polyline fill="none" stroke="rgb(0,0,0)" stroke-width="1" stroke-opacity="1" points="82.000000,243.555556 86.000000,243.555556"/>
	<polyline fill="none" stroke="rgb(0,0,0)" stroke-width="1" stroke-opacity="1" points="82.000000,204.444444 86.000000,204.444444"/>
	<polyline fill="none" stroke="rgb(0,0,0)" stroke-width="1" stroke-opacity="1" points="82.000000,165.333333 86.000000,165.333333"/>
	<polyline fill="none" stroke="rgb(0,0,0)" stroke-width="1" stroke-opacity="1" points="82.000000,126.222222 86.000000,126.222222"/>
	<polyline fill="none" stroke="rgb(0,0,0)" stroke-width="1" stroke-opacity="1" points="82.000000,87.111111 86.000000,87.111111"/>
	<polyline fill="none" stroke="rgb(0,0,0)" stroke-width="1" stroke-opacity="1" points="82.000000,48.000000 86.000000,48.000000"/>
	<rect fill="none" stroke="none" stroke-dasharray="none" stroke-width="1" stroke-opacity="1" x="27" y="393" width="51" height="14"/>
	<polyline fill="none" stroke="rgb(0,0,0)" stroke-width="1" stroke-opacity="1" points="79.600000,400.000000 86.000000,400.000000"/>
	<text x="78" y="400" fill="rgb(0,0,0)" dominant-baseline="central" font-size="11" font-family="Arial" text-anchor="end">2.2E4</text>
	<polyline fill="none" stroke="rgb(0,0,0)" stroke-width="1" stroke-opacity="1" points="79.600000,360.888889 86.000000,360.888889"/>
	<text x="78" y="360.889" fill="rgb(0,0,0)" dominant-baseline="central" font-size="11" font-family="Arial" text-anchor="end">2.4E4</text>
	<polyline fill="none" stroke="rgb(0,0,0)" stroke-width="1" stroke-opacity="1" points="79.600000,321.777778 86.000000,321.777778"/>
	<text x="78" y="321.778" fill="rgb(0,0,0)" dominant-baseline="central" font-size="11" font-family="Arial" text-anchor="end">2.6E4</text>
	<polyline fill="none" stroke="rgb(0,0,0)" stroke-width="1" stroke-opacity="1" points="79.600000,282.666667 86.000000,282.666667"/>
	<text x="78" y="282.667" fill="rgb(0,0,0)" dominant-baseline="central" font-size="11" font-family="Arial" text-anchor="end">2.8E4</text>
	<polyline fill="none" stroke="rgb(0,0,0)" stroke-width="1" stroke-opacity="1" points="79.600000,243.555556 86.000000,243.555556"/>
	<text x="78" y="243.556" fill="rgb(0,0,0)" dominant-baseline="central" font-size="11" font-family="Arial" text-anchor="end">3.0E4</text>
	<polyline fill="none" stroke="rgb(0,0,0)" stroke-width="1" stroke-opacity="1" points="79.600000,204.444444 86.000000,204.444444"/>
	<text x="78" y="204.444" fill="rgb(0,0,0)" dominant-baseline="central" font-size="11" font-family="Arial" text-anchor="end">3.2E4</text>
	<polyline fill="none" stroke="rgb(0,0,0)" stroke-width="1" stroke-opacity="1" points="79.600000,165.333333 86.000000,165.333333"/>
	<text x="78" y="165.333" fill="rgb(0,0,0)" dominant-baseline="central" font-size="11" font-family="Arial" text-anchor="end">3.4E4</text>
	<polyline fill="none" stroke="rgb(0,0,0)" stroke-width="1" stroke-opacity="1" points="79.600000,126.222222 86.000000,126.222222"/>
	<text x="78" y="126.222" fill="rgb(0,0,0)" dominant-baseline="central" font-size="11" font-family="Arial" text-anchor="end">3.6E4</text>
	<polyline fill="none" stroke="rgb(0,0,0)" stroke-width="1" stroke-opacity="1" points="79.600000,87.111111 86.000000,87.111111"/>
	<text x="78" y="87.1111" fill="rgb(0,0,0)" dominant-baseline="central" font-size="11" font-family="Arial" text-anchor="end">3.8E4</text>
	<polyline fill="none" stroke="rgb(0,0,0)" stroke-width="1" stroke-opacity="1" points="79.600000,48.000000 86.000000,48.000000"/>
	<text x="78" y="48" fill="rgb(0,0,0)" dominant-baseline="central" font-size="11" font-family="Arial" text-anchor="end">4.0E4</text>
	<text x="25" y="224" fill="rgb(0,0,0)" dominant-baseline="central" transform="rotate(-90 25,224)" font-size="11" font-family="Arial" text-anchor="middle">EQ [kg pollution unit/d]</text>
	<text x="437.5" y="434" fill="rgb(0,0,0)" dominant-baseline="central" font-size="11" font-family="Arial" text-anchor="middle">Days</text>
	<text x="437.5" y="12" fill="rgb(0,0,0)" dominant-baseline="central" font-size="11" font-family="Arial" text-anchor="middle">EQ for changes in Y_h</text>
	<clipPath id="clipArea1">
		<rect x="86" y="48" width="703" height="352">
		</rect>
	</clipPath>
	<polyline fill="none" stroke="rgb(28,108,200)" stroke-width="1" stroke-opacity="1" clip-path="url(#clipArea1)" points="86.000000,329.580368 93.030000,330.023576 100.060000,330.569642 107.089999,331.072892 114.120000,331.347625 121.149999,331.743587 128.179999,332.170792 135.210001,332.550521 142.240000,332.993080 149.270000,333.552361 156.299999,334.095906 163.329998,334.373312 170.359997,334.743455 177.390003,335.167528 184.420002,335.532667 191.449995,335.950247 198.480000,336.480691 205.510006,337.016101 212.539999,337.334490 219.570004,337.704594 226.599998,338.140316 233.630003,338.535819 240.659996,338.942437 247.690001,339.473951 254.719995,340.017115 261.750000,340.372208 268.780005,340.718021 275.809999,341.135792 282.840004,341.529806 289.869997,341.915722 296.899990,342.419889 303.930008,342.947049 310.960001,343.337587 317.989994,343.685156 325.020011,344.114882 332.050005,344.520316 339.079998,344.932128 346.109991,345.435875 353.140009,345.960628 360.170002,346.429198 367.199995,346.843799 374.229989,347.307708 381.260006,347.765010 388.289999,348.213566 395.319992,348.699094 402.350010,349.224840 409.380003,349.715410 416.409996,350.109042 423.439989,350.556108 430.470007,351.005962 437.500000,351.430837 444.529993,351.868469 451.560011,352.371490 458.590004,352.837882 465.619997,353.102608 472.649990,353.466944 479.680008,353.859240 486.710001,354.210858 493.739994,354.616826 500.770011,355.124240 507.799981,355.619622 514.829998,355.885378 521.860015,356.226951 528.889985,356.615694 535.920002,356.953830 542.950019,357.336958 549.979989,357.818896 557.010006,358.306028 564.040023,358.605434 571.069992,358.945938 578.100010,359.343809 585.129979,359.706809 592.159996,360.079319 599.190013,360.560875 606.219983,361.053583 613.250000,361.383278 620.280017,361.700483 627.309987,362.080670 634.340004,362.440194 641.370021,362.792347 648.399990,363.248885 655.430008,363.726469 662.459977,364.084847 669.489994,364.402205 676.520011,364.791750 683.549981,365.160059 690.579998,365.533868 697.610015,365.989451 704.639985,366.464208 711.670002,366.889924 718.700019,367.266521 725.729989,367.686507 732.760006,368.100687 739.790023,368.506924 746.819992,368.945854 753.850010,369.420878 760.879979,369.865080 767.909996,370.222007 774.940013,370.625875 781.969983,371.032302 789.000000,371.416271 789.000000,371.416271"/>
	<polyline fill="none" stroke="rgb(238,46,47)" stroke-width="1" stroke-opacity="1" clip-path="url(#clipArea1)" points="86.000000,289.435410 93.030000,289.912115 100.060000,290.500309 107.089999,291.048323 114.120000,291.406014 121.149999,291.903420 128.179999,292.436042 135.210001,292.937802 142.240000,293.495250 149.270000,294.146122 156.299999,294.788743 163.329998,295.227865 170.359997,295.729472 177.390003,296.271872 184.420002,296.770042 191.449995,297.308927 198.480000,297.936194 205.510006,298.569229 212.539999,299.039632 219.570004,299.540476 226.599998,300.091125 233.630003,300.611181 240.659996,301.140250 247.690001,301.763469 254.719995,302.398108 261.750000,302.894712 268.780005,303.372257 275.809999,303.904458 282.840004,304.418670 289.869997,304.925931 296.899990,305.524094 303.930008,306.141583 310.960001,306.659691 317.989994,307.135250 325.020011,307.672608 332.050005,308.191976 339.079998,308.715469 346.109991,309.309583 353.140009,309.920962 360.170002,310.492885 367.199995,311.019549 374.229989,311.581847 381.260006,312.139448 388.289999,312.689104 395.319992,313.265420 402.350010,313.872292 409.380003,314.454604 416.409996,314.960031 423.439989,315.503042 430.470007,316.048382 437.500000,316.573861 444.529993,317.107247 451.560011,317.690934 458.590004,318.248917 465.619997,318.644802 472.649990,319.113142 479.680008,319.603559 486.710001,320.062427 493.739994,320.564455 500.770011,321.146309 507.799981,321.721441 514.829998,322.118167 521.860015,322.566302 528.889985,323.050799 535.920002,323.496031 542.950019,323.976250 549.979989,324.535149 557.010006,325.099740 564.040023,325.520337 571.069992,325.965799 578.100010,326.455872 585.129979,326.918597 592.159996,327.388924 599.190013,327.943583 606.219983,328.509052 613.250000,328.951535 620.280017,329.375035 627.309987,329.847500 634.340004,330.303694 641.370021,330.753434 648.399990,331.285406 655.430008,331.835330 662.459977,332.296222 669.489994,332.717507 676.520011,333.194479 683.549981,333.655219 690.579998,334.119587 697.610015,334.648312 704.639985,335.193042 711.670002,335.702479 718.700019,336.170514 725.729989,336.670708 732.760006,337.166701 739.790023,337.655399 746.819992,338.168389 753.850010,338.709413 760.879979,339.228399 767.909996,339.677108 774.940013,340.159771 781.969983,340.644573 789.000000,341.111194 789.000000,341.111194"/>
	<polyline fill="none" stroke="rgb(0,140,72)" stroke-width="1" stroke-opacity="1" clip-path="url(#clipArea1)" points="86.000000,88.102333 88.708594,88.294222 93.030000,88.706646 100.060000,89.449146 107.089999,90.064076 114.120000,90.293396 121.149999,90.783965 128.179999,91.307993 135.210001,91.744403 142.240000,92.297764 149.270000,93.046528 156.299999,93.733417 163.329998,93.928972 170.359997,94.375007 177.390003,94.902014 184.420002,95.313979 191.449995,95.831437 198.480000,96.531847 205.510006,97.215375 212.539999,97.483424 219.570004,97.922431 226.599998,98.465479 233.630003,98.925417 240.659996,99.411632 247.690001,100.122736 254.719995,100.828111 261.750000,101.150243 268.780005,101.546472 275.809999,102.066069 282.840004,102.529292 289.869997,102.989229 296.899990,103.655951 303.930008,104.340701 310.960001,104.739375 317.989994,105.133312 325.020011,105.676056 332.050005,106.157458 339.079998,106.657958 346.109991,107.321319 353.140009,108.005764 360.170002,108.560882 367.199995,109.045722 374.229989,109.631778 381.260006,110.195299 388.289999,110.747667 395.319992,111.374819 402.350010,112.070264 409.380003,112.679160 416.409996,113.124583 423.439989,113.691542 430.470007,114.254222 437.500000,114.771833 444.529993,115.324813 451.560011,115.992451 458.590004,116.568576 465.619997,116.816764 472.649990,117.279299 479.680008,117.771625 486.710001,118.191306 493.739994,118.712125 500.770011,119.403368 507.799981,120.048625 514.829998,120.283750 521.860015,120.714583 528.889985,121.213097 535.920002,121.615743 542.950019,122.108069 549.979989,122.759590 557.010006,123.402250 564.040023,123.701389 571.069992,124.130160 578.100010,124.646396 585.129979,125.094188 592.159996,125.563903 599.190013,126.224972 606.219983,126.886958 613.250000,127.238882 620.280017,127.635188 627.309987,128.131715 634.340004,128.581646 641.370021,129.027299 648.399990,129.649792 655.430008,130.293597 662.459977,130.707243 669.489994,131.103243 676.520011,131.619937 683.549981,132.085986 690.579998,132.568076 697.610015,133.189347 704.639985,133.834451 711.670002,134.378340 718.700019,134.858292 725.729989,135.418681 732.760006,135.962569 739.790023,136.496986 746.819992,137.092819 753.850010,137.747625 760.879979,138.336049 767.909996,138.786285 774.940013,139.330403 781.969983,139.872382 789.000000,140.377389 789.000000,140.377389"/>
	<rect fill="rgb(255,255,255)" stroke="none" stroke-opacity="0.7" x="86" y="23" width="295" height="17"/>
	<polyline fill="none" stroke="rgb(28,108,200)" stroke-width="1" stroke-opacity="1" points="86.000000,32.000000 116.000000,32.000000"/>
	<text x="121" y="32" fill="rgb(0,0,0)" dominant-baseline="central" font-size="11" font-family="Arial" text-anchor="start">Original value</text>
	<polyline fill="none" stroke="rgb(238,46,47)" stroke-width="1" stroke-opacity="1" points="196.000000,32.000000 226.000000,32.000000"/>
	<text x="231" y="32" fill="rgb(0,0,0)" dominant-baseline="central" font-size="11" font-family="Arial" text-anchor="start">Y_h = 0.4</text>
	<polyline fill="none" stroke="rgb(0,140,72)" stroke-width="1" stroke-opacity="1" points="288.000000,32.000000 318.000000,32.000000"/>
	<text x="323" y="32" fill="rgb(0,0,0)" dominant-baseline="central" font-size="11" font-family="Arial" text-anchor="start">Y_h = 0.94</text>
	<polyline fill="none" stroke="rgb(229,229,229)" stroke-width="1" stroke-opacity="1" points="86.000000,500.000000 86.000000,852.000000"/>
	<polyline fill="none" stroke="rgb(229,229,229)" stroke-width="1" stroke-opacity="1" points="111.107143,500.000000 111.107143,852.000000"/>
	<polyline fill="none" stroke="rgb(229,229,229)" stroke-width="1" stroke-opacity="1" points="136.214286,500.000000 136.214286,852.000000"/>
	<polyline fill="none" stroke="rgb(229,229,229)" stroke-width="1" stroke-opacity="1" points="161.321429,500.000000 161.321429,852.000000"/>
	<polyline fill="none" stroke="rgb(229,229,229)" stroke-width="1" stroke-opacity="1" points="186.428571,500.000000 186.428571,852.000000"/>
	<polyline fill="none" stroke="rgb(229,229,229)" stroke-width="1" stroke-opacity="1" points="211.535714,500.000000 211.535714,852.000000"/>
	<polyline fill="none" stroke="rgb(229,229,229)" stroke-width="1" stroke-opacity="1" points="236.642857,500.000000 236.642857,852.000000"/>
	<polyline fill="none" stroke="rgb(229,229,229)" stroke-width="1" stroke-opacity="1" points="261.750000,500.000000 261.750000,852.000000"/>
	<polyline fill="none" stroke="rgb(229,229,229)" stroke-width="1" stroke-opacity="1" points="286.857143,500.000000 286.857143,852.000000"/>
	<polyline fill="none" stroke="rgb(229,229,229)" stroke-width="1" stroke-opacity="1" points="311.964286,500.000000 311.964286,852.000000"/>
	<polyline fill="none" stroke="rgb(229,229,229)" stroke-width="1" stroke-opacity="1" points="337.071429,500.000000 337.071429,852.000000"/>
	<polyline fill="none" stroke="rgb(229,229,229)" stroke-width="1" stroke-opacity="1" points="362.178571,500.000000 362.178571,852.000000"/>
	<polyline fill="none" stroke="rgb(229,229,229)" stroke-width="1" stroke-opacity="1" points="387.285714,500.000000 387.285714,852.000000"/>
	<polyline fill="none" stroke="rgb(229,229,229)" stroke-width="1" stroke-opacity="1" points="412.392857,500.000000 412.392857,852.000000"/>
	<polyline fill="none" stroke="rgb(229,229,229)" stroke-width="1" stroke-opacity="1" points="437.500000,500.000000 437.500000,852.000000"/>
	<polyline fill="none" stroke="rgb(229,229,229)" stroke-width="1" stroke-opacity="1" points="462.607143,500.000000 462.607143,852.000000"/>
	<polyline fill="none" stroke="rgb(229,229,229)" stroke-width="1" stroke-opacity="1" points="487.714286,500.000000 487.714286,852.000000"/>
	<polyline fill="none" stroke="rgb(229,229,229)" stroke-width="1" stroke-opacity="1" points="512.821429,500.000000 512.821429,852.000000"/>
	<polyline fill="none" stroke="rgb(229,229,229)" stroke-width="1" stroke-opacity="1" points="537.928571,500.000000 537.928571,852.000000"/>
	<polyline fill="none" stroke="rgb(229,229,229)" stroke-width="1" stroke-opacity="1" points="563.035714,500.000000 563.035714,852.000000"/>
	<polyline fill="none" stroke="rgb(229,229,229)" stroke-width="1" stroke-opacity="1" points="588.142857,500.000000 588.142857,852.000000"/>
	<polyline fill="none" stroke="rgb(229,229,229)" stroke-width="1" stroke-opacity="1" points="613.250000,500.000000 613.250000,852.000000"/>
	<polyline fill="none" stroke="rgb(229,229,229)" stroke-width="1" stroke-opacity="1" points="638.357143,500.000000 638.357143,852.000000"/>
	<polyline fill="none" stroke="rgb(229,229,229)" stroke-width="1" stroke-opacity="1" points="663.464286,500.000000 663.464286,852.000000"/>
	<polyline fill="none" stroke="rgb(229,229,229)" stroke-width="1" stroke-opacity="1" points="688.571429,500.000000 688.571429,852.000000"/>
	<polyline fill="none" stroke="rgb(229,229,229)" stroke-width="1" stroke-opacity="1" points="713.678571,500.000000 713.678571,852.000000"/>
	<polyline fill="none" stroke="rgb(229,229,229)" stroke-width="1" stroke-opacity="1" points="738.785714,500.000000 738.785714,852.000000"/>
	<polyline fill="none" stroke="rgb(229,229,229)" stroke-width="1" stroke-opacity="1" points="763.892857,500.000000 763.892857,852.000000"/>
	<polyline fill="none" stroke="rgb(229,229,229)" stroke-width="1" stroke-opacity="1" points="789.000000,500.000000 789.000000,852.000000"/>
	<polyline fill="none" stroke="rgb(229,229,229)" stroke-width="1" stroke-opacity="1" points="86.000000,852.000000 789.000000,852.000000"/>
	<polyline fill="none" stroke="rgb(229,229,229)" stroke-width="1" stroke-opacity="1" points="86.000000,801.714286 789.000000,801.714286"/>
	<polyline fill="none" stroke="rgb(229,229,229)" stroke-width="1" stroke-opacity="1" points="86.000000,751.428571 789.000000,751.428571"/>
	<polyline fill="none" stroke="rgb(229,229,229)" stroke-width="1" stroke-opacity="1" points="86.000000,701.142857 789.000000,701.142857"/>
	<polyline fill="none" stroke="rgb(229,229,229)" stroke-width="1" stroke-opacity="1" points="86.000000,650.857143 789.000000,650.857143"/>
	<polyline fill="none" stroke="rgb(229,229,229)" stroke-width="1" stroke-opacity="1" points="86.000000,600.571429 789.000000,600.571429"/>
	<polyline fill="none" stroke="rgb(229,229,229)" stroke-width="1" stroke-opacity="1" points="86.000000,550.285714 789.000000,550.285714"/>
	<polyline fill="none" stroke="rgb(229,229,229)" stroke-width="1" stroke-opacity="1" points="86.000000,500.000000 789.000000,500.000000"/>
	<polyline fill="none" stroke="rgb(0,0,0)" stroke-width="1" stroke-opacity="1" points="86.000000,852.000000 789.000000,852.000000"/>
	<polyline fill="none" stroke="rgb(0,0,0)" stroke-width="1" stroke-opacity="1" points="789.000000,852.000000 789.000000,500.000000"/>
	<polyline fill="none" stroke="rgb(0,0,0)" stroke-width="1" stroke-opacity="1" points="789.000000,500.000000 86.000000,500.000000"/>
	<polyline fill="none" stroke="rgb(0,0,0)" stroke-width="1" stroke-opacity="1" points="86.000000,500.000000 86.000000,852.000000"/>
	<polyline fill="none" stroke="rgb(0,0,0)" stroke-width="1" stroke-opacity="1" points="86.000000,852.000000 86.000000,856.000000"/>
	<polyline fill="none" stroke="rgb(0,0,0)" stroke-width="1" stroke-opacity="1" points="111.107143,852.000000 111.107143,856.000000"/>
	<polyline fill="none" stroke="rgb(0,0,0)" stroke-width="1" stroke-opacity="1" points="136.214286,852.000000 136.214286,856.000000"/>
	<polyline fill="none" stroke="rgb(0,0,0)" stroke-width="1" stroke-opacity="1" points="161.321429,852.000000 161.321429,856.000000"/>
	<polyline fill="none" stroke="rgb(0,0,0)" stroke-width="1" stroke-opacity="1" points="186.428571,852.000000 186.428571,856.000000"/>
	<polyline fill="none" stroke="rgb(0,0,0)" stroke-width="1" stroke-opacity="1" points="211.535714,852.000000 211.535714,856.000000"/>
	<polyline fill="none" stroke="rgb(0,0,0)" stroke-width="1" stroke-opacity="1" points="236.642857,852.000000 236.642857,856.000000"/>
	<polyline fill="none" stroke="rgb(0,0,0)" stroke-width="1" stroke-opacity="1" points="261.750000,852.000000 261.750000,856.000000"/>
	<polyline fill="none" stroke="rgb(0,0,0)" stroke-width="1" stroke-opacity="1" points="286.857143,852.000000 286.857143,856.000000"/>
	<polyline fill="none" stroke="rgb(0,0,0)" stroke-width="1" stroke-opacity="1" points="311.964286,852.000000 311.964286,856.000000"/>
	<polyline fill="none" stroke="rgb(0,0,0)" stroke-width="1" stroke-opacity="1" points="337.071429,852.000000 337.071429,856.000000"/>
	<polyline fill="none" stroke="rgb(0,0,0)" stroke-width="1" stroke-opacity="1" points="362.178571,852.000000 362.178571,856.000000"/>
	<polyline fill="none" stroke="rgb(0,0,0)" stroke-width="1" stroke-opacity="1" points="387.285714,852.000000 387.285714,856.000000"/>
	<polyline fill="none" stroke="rgb(0,0,0)" stroke-width="1" stroke-opacity="1" points="412.392857,852.000000 412.392857,856.000000"/>
	<polyline fill="none" stroke="rgb(0,0,0)" stroke-width="1" stroke-opacity="1" points="437.500000,852.000000 437.500000,856.000000"/>
	<polyline fill="none" stroke="rgb(0,0,0)" stroke-width="1" stroke-opacity="1" points="462.607143,852.000000 462.607143,856.000000"/>
	<polyline fill="none" stroke="rgb(0,0,0)" stroke-width="1" stroke-opacity="1" points="487.714286,852.000000 487.714286,856.000000"/>
	<polyline fill="none" stroke="rgb(0,0,0)" stroke-width="1" stroke-opacity="1" points="512.821429,852.000000 512.821429,856.000000"/>
	<polyline fill="none" stroke="rgb(0,0,0)" stroke-width="1" stroke-opacity="1" points="537.928571,852.000000 537.928571,856.000000"/>
	<polyline fill="none" stroke="rgb(0,0,0)" stroke-width="1" stroke-opacity="1" points="563.035714,852.000000 563.035714,856.000000"/>
	<polyline fill="none" stroke="rgb(0,0,0)" stroke-width="1" stroke-opacity="1" points="588.142857,852.000000 588.142857,856.000000"/>
	<polyline fill="none" stroke="rgb(0,0,0)" stroke-width="1" stroke-opacity="1" points="613.250000,852.000000 613.250000,856.000000"/>
	<polyline fill="none" stroke="rgb(0,0,0)" stroke-width="1" stroke-opacity="1" points="638.357143,852.000000 638.357143,856.000000"/>
	<polyline fill="none" stroke="rgb(0,0,0)" stroke-width="1" stroke-opacity="1" points="663.464286,852.000000 663.464286,856.000000"/>
	<polyline fill="none" stroke="rgb(0,0,0)" stroke-width="1" stroke-opacity="1" points="688.571429,852.000000 688.571429,856.000000"/>
	<polyline fill="none" stroke="rgb(0,0,0)" stroke-width="1" stroke-opacity="1" points="713.678571,852.000000 713.678571,856.000000"/>
	<polyline fill="none" stroke="rgb(0,0,0)" stroke-width="1" stroke-opacity="1" points="738.785714,852.000000 738.785714,856.000000"/>
	<polyline fill="none" stroke="rgb(0,0,0)" stroke-width="1" stroke-opacity="1" points="763.892857,852.000000 763.892857,856.000000"/>
	<polyline fill="none" stroke="rgb(0,0,0)" stroke-width="1" stroke-opacity="1" points="789.000000,852.000000 789.000000,856.000000"/>
	<polyline fill="none" stroke="rgb(0,0,0)" stroke-width="1" stroke-opacity="1" points="86.000000,852.000000 86.000000,858.400000"/>
	<text x="86" y="867" fill="rgb(0,0,0)" dominant-baseline="central" font-size="11" font-family="Arial" text-anchor="middle">0.0</text>
	<polyline fill="none" stroke="rgb(0,0,0)" stroke-width="1" stroke-opacity="1" points="211.535714,852.000000 211.535714,858.400000"/>
	<text x="211.536" y="867" fill="rgb(0,0,0)" dominant-baseline="central" font-size="11" font-family="Arial" text-anchor="middle">2.5</text>
	<polyline fill="none" stroke="rgb(0,0,0)" stroke-width="1" stroke-opacity="1" points="337.071429,852.000000 337.071429,858.400000"/>
	<text x="337.071" y="867" fill="rgb(0,0,0)" dominant-baseline="central" font-size="11" font-family="Arial" text-anchor="middle">5.0</text>
	<polyline fill="none" stroke="rgb(0,0,0)" stroke-width="1" stroke-opacity="1" points="462.607143,852.000000 462.607143,858.400000"/>
	<text x="462.607" y="867" fill="rgb(0,0,0)" dominant-baseline="central" font-size="11" font-family="Arial" text-anchor="middle">7.5</text>
	<polyline fill="none" stroke="rgb(0,0,0)" stroke-width="1" stroke-opacity="1" points="588.142857,852.000000 588.142857,858.400000"/>
	<text x="588.143" y="867" fill="rgb(0,0,0)" dominant-baseline="central" font-size="11" font-family="Arial" text-anchor="middle">10.0</text>
	<polyline fill="none" stroke="rgb(0,0,0)" stroke-width="1" stroke-opacity="1" points="713.678571,852.000000 713.678571,858.400000"/>
	<text x="713.679" y="867" fill="rgb(0,0,0)" dominant-baseline="central" font-size="11" font-family="Arial" text-anchor="middle">12.5</text>
	<polyline fill="none" stroke="rgb(0,0,0)" stroke-width="1" stroke-opacity="1" points="82.000000,852.000000 86.000000,852.000000"/>
	<polyline fill="none" stroke="rgb(0,0,0)" stroke-width="1" stroke-opacity="1" points="82.000000,801.714286 86.000000,801.714286"/>
	<polyline fill="none" stroke="rgb(0,0,0)" stroke-width="1" stroke-opacity="1" points="82.000000,751.428571 86.000000,751.428571"/>
	<polyline fill="none" stroke="rgb(0,0,0)" stroke-width="1" stroke-opacity="1" points="82.000000,701.142857 86.000000,701.142857"/>
	<polyline fill="none" stroke="rgb(0,0,0)" stroke-width="1" stroke-opacity="1" points="82.000000,650.857143 86.000000,650.857143"/>
	<polyline fill="none" stroke="rgb(0,0,0)" stroke-width="1" stroke-opacity="1" points="82.000000,600.571429 86.000000,600.571429"/>
	<polyline fill="none" stroke="rgb(0,0,0)" stroke-width="1" stroke-opacity="1" points="82.000000,550.285714 86.000000,550.285714"/>
	<polyline fill="none" stroke="rgb(0,0,0)" stroke-width="1" stroke-opacity="1" points="82.000000,500.000000 86.000000,500.000000"/>
	<rect fill="none" stroke="none" stroke-dasharray="none" stroke-width="1" stroke-opacity="1" x="27" y="845" width="51" height="14"/>
	<polyline fill="none" stroke="rgb(0,0,0)" stroke-width="1" stroke-opacity="1" points="79.600000,852.000000 86.000000,852.000000"/>
	<text x="78" y="852" fill="rgb(0,0,0)" dominant-baseline="central" font-size="11" font-family="Arial" text-anchor="end">2.30E4</text>
	<polyline fill="none" stroke="rgb(0,0,0)" stroke-width="1" stroke-opacity="1" points="79.600000,801.714286 86.000000,801.714286"/>
	<text x="78" y="801.714" fill="rgb(0,0,0)" dominant-baseline="central" font-size="11" font-family="Arial" text-anchor="end">2.35E4</text>
	<polyline fill="none" stroke="rgb(0,0,0)" stroke-width="1" stroke-opacity="1" points="79.600000,751.428571 86.000000,751.428571"/>
	<text x="78" y="751.429" fill="rgb(0,0,0)" dominant-baseline="central" font-size="11" font-family="Arial" text-anchor="end">2.40E4</text>
	<polyline fill="none" stroke="rgb(0,0,0)" stroke-width="1" stroke-opacity="1" points="79.600000,701.142857 86.000000,701.142857"/>
	<text x="78" y="701.143" fill="rgb(0,0,0)" dominant-baseline="central" font-size="11" font-family="Arial" text-anchor="end">2.45E4</text>
	<polyline fill="none" stroke="rgb(0,0,0)" stroke-width="1" stroke-opacity="1" points="79.600000,650.857143 86.000000,650.857143"/>
	<text x="78" y="650.857" fill="rgb(0,0,0)" dominant-baseline="central" font-size="11" font-family="Arial" text-anchor="end">2.50E4</text>
	<polyline fill="none" stroke="rgb(0,0,0)" stroke-width="1" stroke-opacity="1" points="79.600000,600.571429 86.000000,600.571429"/>
	<text x="78" y="600.571" fill="rgb(0,0,0)" dominant-baseline="central" font-size="11" font-family="Arial" text-anchor="end">2.55E4</text>
	<polyline fill="none" stroke="rgb(0,0,0)" stroke-width="1" stroke-opacity="1" points="79.600000,550.285714 86.000000,550.285714"/>
	<text x="78" y="550.286" fill="rgb(0,0,0)" dominant-baseline="central" font-size="11" font-family="Arial" text-anchor="end">2.60E4</text>
	<polyline fill="none" stroke="rgb(0,0,0)" stroke-width="1" stroke-opacity="1" points="79.600000,500.000000 86.000000,500.000000"/>
	<text x="78" y="500" fill="rgb(0,0,0)" dominant-baseline="central" font-size="11" font-family="Arial" text-anchor="end">2.65E4</text>
	<text x="25" y="676" fill="rgb(0,0,0)" dominant-baseline="central" transform="rotate(-90 25,676)" font-size="11" font-family="Arial" text-anchor="middle">EQ [kg pollution unit/d]</text>
	<text x="437.5" y="886" fill="rgb(0,0,0)" dominant-baseline="central" font-size="11" font-family="Arial" text-anchor="middle">Days</text>
	<text x="437.5" y="464" fill="rgb(0,0,0)" dominant-baseline="central" font-size="11" font-family="Arial" text-anchor="middle">EQ for changes in Y_a</text>
	<clipPath id="clipArea2">
		<rect x="86" y="500" width="703" height="352">
		</rect>
	</clipPath>
	<polyline fill="none" stroke="rgb(28,108,200)" stroke-width="1" stroke-opacity="1" clip-path="url(#clipArea2)" points="86.000000,590.413321 93.030000,592.692679 100.060000,595.501018 107.089999,598.089161 114.120000,599.502071 121.149999,601.538446 128.179999,603.735500 135.210001,605.688393 142.240000,607.964411 149.270000,610.840714 156.299999,613.636089 163.329998,615.062750 170.359997,616.966339 177.390003,619.147286 184.420002,621.025143 191.449995,623.172696 198.480000,625.900696 205.510006,628.654232 212.539999,630.291661 219.570004,632.195054 226.599998,634.435911 233.630003,636.469929 240.659996,638.561107 247.690001,641.294607 254.719995,644.088018 261.750000,645.914214 268.780005,647.692679 275.809999,649.841214 282.840004,651.867571 289.869997,653.852286 296.899990,656.445143 303.930008,659.156250 310.960001,661.164732 317.989994,662.952232 325.020011,665.162250 332.050005,667.247339 339.079998,669.365232 346.109991,671.955929 353.140009,674.654661 360.170002,677.064446 367.199995,679.196679 374.229989,681.582500 381.260006,683.934339 388.289999,686.241196 395.319992,688.738196 402.350010,691.442036 409.380003,693.964964 416.409996,695.989357 423.439989,698.288554 430.470007,700.602089 437.500000,702.787161 444.529993,705.037839 451.560011,707.624804 458.590004,710.023393 465.619997,711.384839 472.649990,713.258571 479.680008,715.276089 486.710001,717.084411 493.739994,719.172250 500.770011,721.781804 507.799981,724.329482 514.829998,725.696232 521.860015,727.452893 528.889985,729.452143 535.920002,731.191125 542.950019,733.161500 549.979989,735.640036 557.010006,738.145286 564.040023,739.685089 571.069992,741.436250 578.100010,743.482446 585.129979,745.349304 592.159996,747.265071 599.190013,749.741643 606.219983,752.275571 613.250000,753.971143 620.280017,755.602482 627.309987,757.557732 634.340004,759.406714 641.370021,761.217786 648.399990,763.565696 655.430008,766.021839 662.459977,767.864929 669.489994,769.497054 676.520011,771.500429 683.549981,773.394589 690.579998,775.317036 697.610015,777.660036 704.639985,780.101643 711.670002,782.291036 718.700019,784.227821 725.729989,786.387750 732.760006,788.517821 739.790023,790.607036 746.819992,792.864393 753.850010,795.307375 760.879979,797.591839 767.909996,799.427464 774.940013,801.504500 781.969983,803.594696 789.000000,805.569393 789.000000,805.569393"/>
	<polyline fill="none" stroke="rgb(238,46,47)" stroke-width="1" stroke-opacity="1" clip-path="url(#clipArea2)" points="86.000000,620.640929 93.030000,622.887089 100.060000,625.660661 107.089999,628.217571 114.120000,629.610054 121.149999,631.620107 128.179999,633.789857 135.210001,635.718000 142.240000,637.966125 149.270000,640.809232 156.299999,643.572786 163.329998,644.980196 170.359997,646.857268 177.390003,649.009929 184.420002,650.862446 191.449995,652.982304 198.480000,655.678286 205.510006,658.399804 212.539999,660.015429 219.570004,661.892304 226.599998,664.104286 233.630003,666.111393 240.659996,668.175464 247.690001,670.876357 254.719995,673.637161 261.750000,675.439982 268.780005,677.192518 275.809999,679.312571 282.840004,681.311821 289.869997,683.269429 296.899990,685.830661 303.930008,688.509750 310.960001,690.493089 317.989994,692.254857 325.020011,694.435804 332.050005,696.493393 339.079998,698.583196 346.109991,701.142464 353.140009,703.809375 360.170002,706.190286 367.199995,708.294625 374.229989,710.650786 381.260006,712.973161 388.289999,715.250946 395.319992,717.717304 402.350010,720.388929 409.380003,722.881607 416.409996,724.879089 423.439989,727.148821 430.470007,729.432696 437.500000,731.589482 444.529993,733.811089 451.560011,736.366429 458.590004,738.735554 465.619997,740.074214 472.649990,741.920446 479.680008,743.909875 486.710001,745.691679 493.739994,747.751429 500.770011,750.329161 507.799981,752.846196 514.829998,754.190946 521.860015,755.921089 528.889985,757.892250 535.920002,759.605500 542.950019,761.548571 549.979989,763.996464 557.010006,766.471464 564.040023,767.988286 571.069992,769.713321 578.100010,771.731625 585.129979,773.571768 592.159996,775.461214 599.190013,777.906946 606.219983,780.410625 613.250000,782.082429 620.280017,783.688625 627.309987,785.616571 634.340004,787.439232 641.370021,789.224375 648.399990,791.542821 655.430008,793.969107 662.459977,795.787446 669.489994,797.394821 676.520011,799.370696 683.549981,801.238536 690.579998,803.134268 697.610015,805.448196 704.639985,807.860143 711.670002,810.022429 718.700019,811.932893 725.729989,814.064929 732.760006,816.167696 739.790023,818.229607 746.819992,820.458679 753.850010,822.872000 760.879979,825.128571 767.909996,826.938661 774.940013,828.988393 781.969983,831.051286 789.000000,832.999661 789.000000,832.999661"/>
	<polyline fill="none" stroke="rgb(0,140,72)" stroke-width="1" stroke-opacity="1" clip-path="url(#clipArea2)" points="86.000000,555.395607 93.030000,557.712089 100.060000,560.556768 107.089999,563.175946 114.120000,564.605161 121.149999,566.667661 128.179999,568.892018 135.210001,570.869071 142.240000,573.173964 149.270000,576.086607 156.299999,578.915964 163.329998,580.360304 170.359997,582.290607 177.390003,584.501214 184.420002,586.404804 191.449995,588.581625 198.480000,591.345179 205.510006,594.133875 212.539999,595.792911 219.570004,597.724000 226.599998,599.996089 233.630003,602.058589 240.659996,604.179232 247.690001,606.949464 254.719995,609.779018 261.750000,611.629768 268.780005,613.435732 275.809999,615.615696 282.840004,617.671518 289.869997,619.685500 296.899990,622.313911 303.930008,625.060768 310.960001,627.096750 317.989994,628.912339 325.020011,631.154571 332.050005,633.270304 339.079998,635.419036 346.109991,638.045286 353.140009,640.780357 360.170002,643.222554 367.199995,645.385429 374.229989,647.805036 381.260006,650.189679 388.289999,652.529536 395.319992,655.061500 402.350010,657.802071 409.380003,660.359179 416.409996,662.413625 423.439989,664.746411 430.470007,667.093143 437.500000,669.310429 444.529993,671.594304 451.560011,674.217214 458.590004,676.649393 465.619997,678.036179 472.649990,679.941143 479.680008,681.990875 486.710001,683.829250 493.739994,685.949500 500.770011,688.595589 507.799981,691.178429 514.829998,692.569929 521.860015,694.356839 528.889985,696.388304 535.920002,698.156750 542.950019,700.158750 549.979989,702.672446 557.010006,705.212661 564.040023,706.778589 571.069992,708.559804 578.100010,710.638214 585.129979,712.535518 592.159996,714.482125 599.190013,716.993857 606.219983,719.563143 613.250000,721.285821 620.280017,722.946232 627.309987,724.933304 634.340004,726.812732 641.370021,728.653857 648.399990,731.036143 655.430008,733.526661 662.459977,735.398429 669.489994,737.059429 676.520011,739.094625 683.549981,741.019625 690.579998,742.972714 697.610015,745.349696 704.639985,747.825679 711.670002,750.046696 718.700019,752.013929 725.729989,754.206071 732.760006,756.368357 739.790023,758.489196 746.819992,760.779750 753.850010,763.257107 760.879979,765.574375 767.909996,767.439464 774.940013,769.548321 781.969983,771.670536 789.000000,773.676268 789.000000,773.676268"/>
	<rect fill="rgb(255,255,255)" stroke="none" stroke-opacity="0.7" x="86" y="475" width="301" height="17"/>
	<polyline fill="none" stroke="rgb(28,108,200)" stroke-width="1" stroke-opacity="1" points="86.000000,484.000000 116.000000,484.000000"/>
	<text x="121" y="484" fill="rgb(0,0,0)" dominant-baseline="central" font-size="11" font-family="Arial" text-anchor="start">Original value</text>
	<polyline fill="none" stroke="rgb(238,46,47)" stroke-width="1" stroke-opacity="1" points="196.000000,484.000000 226.000000,484.000000"/>
	<text x="231" y="484" fill="rgb(0,0,0)" dominant-baseline="central" font-size="11" font-family="Arial" text-anchor="start">Y_a = 0.14</text>
	<polyline fill="none" stroke="rgb(0,140,72)" stroke-width="1" stroke-opacity="1" points="294.000000,484.000000 324.000000,484.000000"/>
	<text x="329" y="484" fill="rgb(0,0,0)" dominant-baseline="central" font-size="11" font-family="Arial" text-anchor="start">Y_a = 0.34</text>
</svg>
