<?xml version="1.0" standalone="no"?>
<!DOCTYPE svg PUBLIC "-//W3C//DTD SVG 1.1//EN" "http://www.w3.org/Graphics/SVG/1.1/DTD/svg11.dtd">
<svg viewBox="0 0 814.000000 905.000000" version="1.1" xmlns="http://www.w3.org/2000/svg" xmlns:xlink="http://www.w3.org/1999/xlink">
	<polyline fill="none" stroke="rgb(229,229,229)" stroke-width="1" stroke-opacity="1" points="86.000000,48.000000 86.000000,400.000000"/>
	<polyline fill="none" stroke="rgb(229,229,229)" stroke-width="1" stroke-opacity="1" points="111.107143,48.000000 111.107143,400.000000"/>
	<polyline fill="none" stroke="rgb(229,229,229)" stroke-width="1" stroke-opacity="1" points="136.214286,48.000000 136.214286,400.000000"/>
	<polyline fill="none" stroke="rgb(229,229,229)" stroke-width="1" stroke-opacity="1" points="161.321429,48.000000 161.321429,400.000000"/>
	<polyline fill="none" stroke="rgb(229,229,229)" stroke-width="1" stroke-opacity="1" points="186.428571,48.000000 186.428571,400.000000"/>
	<polyline fill="none" stroke="rgb(229,229,229)" stroke-width="1" stroke-opacity="1" points="211.535714,48.000000 211.535714,400.000000"/>
	<polyline fill="none" stroke="rgb(229,229,229)" stroke-width="1" stroke-opacity="1" points="236.642857,48.000000 236.642857,400.000000"/>
	<polyline fill="none" stroke="rgb(229,229,229)" stroke-width="1" stroke-opacity="1" points="261.750000,48.000000 261.750000,400.000000"/>
	<polyline fill="none" stroke="rgb(229,229,229)" stroke-width="1" stroke-opacity="1" points="286.857143,48.000000 286.857143,400.000000"/>
	<polyline fill="none" stroke="rgb(229,229,229)" stroke-width="1" stroke-opacity="1" points="311.964286,48.000000 311.964286,400.000000"/>
	<polyline fill="none" stroke="rgb(229,229,229)" stroke-width="1" stroke-opacity="1" points="337.071429,48.000000 337.071429,400.000000"/>
	<polyline fill="none" stroke="rgb(229,229,229)" stroke-width="1" stroke-opacity="1" points="362.178571,48.000000 362.178571,400.000000"/>
	<polyline fill="none" stroke="rgb(229,229,229)" stroke-width="1" stroke-opacity="1" points="387.285714,48.000000 387.285714,400.000000"/>
	<polyline fill="none" stroke="rgb(229,229,229)" stroke-width="1" stroke-opacity="1" points="412.392857,48.000000 412.392857,400.000000"/>
	<polyline fill="none" stroke="rgb(229,229,229)" stroke-width="1" stroke-opacity="1" points="437.500000,48.000000 437.500000,400.000000"/>
	<polyline fill="none" stroke="rgb(229,229,229)" stroke-width="1" stroke-opacity="1" points="462.607143,48.000000 462.607143,400.000000"/>
	<polyline fill="none" stroke="rgb(229,229,229)" stroke-width="1" stroke-opacity="1" points="487.714286,48.000000 487.714286,400.000000"/>
	<polyline fill="none" stroke="rgb(229,229,229)" stroke-width="1" stroke-opacity="1" points="512.821429,48.000000 512.821429,400.000000"/>
	<polyline fill="none" stroke="rgb(229,229,229)" stroke-width="1" stroke-opacity="1" points="537.928571,48.000000 537.928571,400.000000"/>
	<polyline fill="none" stroke="rgb(229,229,229)" stroke-width="1" stroke-opacity="1" points="563.035714,48.000000 563.035714,400.000000"/>
	<polyline fill="none" stroke="rgb(229,229,229)" stroke-width="1" stroke-opacity="1" points="588.142857,48.000000 588.142857,400.000000"/>
	<polyline fill="none" stroke="rgb(229,229,229)" stroke-width="1" stroke-opacity="1" points="613.250000,48.000000 613.250000,400.000000"/>
	<polyline fill="none" stroke="rgb(229,229,229)" stroke-width="1" stroke-opacity="1" points="638.357143,48.000000 638.357143,400.000000"/>
	<polyline fill="none" stroke="rgb(229,229,229)" stroke-width="1" stroke-opacity="1" points="663.464286,48.000000 663.464286,400.000000"/>
	<polyline fill="none" stroke="rgb(229,229,229)" stroke-width="1" stroke-opacity="1" points="688.571429,48.000000 688.571429,400.000000"/>
	<polyline fill="none" stroke="rgb(229,229,229)" stroke-width="1" stroke-opacity="1" points="713.678571,48.000000 713.678571,400.000000"/>
	<polyline fill="none" stroke="rgb(229,229,229)" stroke-width="1" stroke-opacity="1" points="738.785714,48.000000 738.785714,400.000000"/>
	<polyline fill="none" stroke="rgb(229,229,229)" stroke-width="1" stroke-opacity="1" points="763.892857,48.000000 763.892857,400.000000"/>
	<polyline fill="none" stroke="rgb(229,229,229)" stroke-width="1" stroke-opacity="1" points="789.000000,48.000000 789.000000,400.000000"/>
	<polyline fill="none" stroke="rgb(229,229,229)" stroke-width="1" stroke-opacity="1" points="86.000000,400.000000 789.000000,400.000000"/>
	<polyline fill="none" stroke="rgb(229,229,229)" stroke-width="1" stroke-opacity="1" points="86.000000,370.666667 789.000000,370.666667"/>
	<polyline fill="none" stroke="rgb(229,229,229)" stroke-width="1" stroke-opacity="1" points="86.000000,341.333333 789.000000,341.333333"/>
	<polyline fill="none" stroke="rgb(229,229,229)" stroke-width="1" stroke-opacity="1" points="86.000000,312.000000 789.000000,312.000000"/>
	<polyline fill="none" stroke="rgb(229,229,229)" stroke-width="1" stroke-opacity="1" points="86.000000,282.666667 789.000000,282.666667"/>
	<polyline fill="none" stroke="rgb(229,229,229)" stroke-width="1" stroke-opacity="1" points="86.000000,253.333333 789.000000,253.333333"/>
	<polyline fill="none" stroke="rgb(229,229,229)" stroke-width="1" stroke-opacity="1" points="86.000000,224.000000 789.000000,224.000000"/>
	<polyline fill="none" stroke="rgb(229,229,229)" stroke-width="1" stroke-opacity="1" points="86.000000,194.666667 789.000000,194.666667"/>
	<polyline fill="none" stroke="rgb(229,229,229)" stroke-width="1" stroke-opacity="1" points="86.000000,165.333333 789.000000,165.333333"/>
	<polyline fill="none" stroke="rgb(229,229,229)" stroke-width="1" stroke-opacity="1" points="86.000000,136.000000 789.000000,136.000000"/>
	<polyline fill="none" stroke="rgb(229,229,229)" stroke-width="1" stroke-opacity="1" points="86.000000,106.666667 789.000000,106.666667"/>
	<polyline fill="none" stroke="rgb(229,229,229)" stroke-width="1" stroke-opacity="1" points="86.000000,77.333333 789.000000,77.333333"/>
	<polyline fill="none" stroke="rgb(229,229,229)" stroke-width="1" stroke-opacity="1" points="86.000000,48.000000 789.000000,48.000000"/>
	<polyline fill="none" stroke="rgb(0,0,0)" stroke-width="1" stroke-opacity="1" points="86.000000,400.000000 789.000000,400.000000"/>
	<polyline fill="none" stroke="rgb(0,0,0)" stroke-width="1" stroke-opacity="1" points="789.000000,400.000000 789.000000,48.000000"/>
	<polyline fill="none" stroke="rgb(0,0,0)" stroke-width="1" stroke-opacity="1" points="789.000000,48.000000 86.000000,48.000000"/>
	<polyline fill="none" stroke="rgb(0,0,0)" stroke-width="1" stroke-opacity="1" points="86.000000,48.000000 86.000000,400.000000"/>
	<polyline fill="none" stroke="rgb(0,0,0)" stroke-width="1" stroke-opacity="1" points="86.000000,400.000000 86.000000,404.000000"/>
	<polyline fill="none" stroke="rgb(0,0,0)" stroke-width="1" stroke-opacity="1" points="111.107143,400.000000 111.107143,404.000000"/>
	<polyline fill="none" stroke="rgb(0,0,0)" stroke-width="1" stroke-opacity="1" points="136.214286,400.000000 136.214286,404.000000"/>
	<polyline fill="none" stroke="rgb(0,0,0)" stroke-width="1" stroke-opacity="1" points="161.321429,400.000000 161.321429,404.000000"/>
	<polyline fill="none" stroke="rgb(0,0,0)" stroke-width="1" stroke-opacity="1" points="186.428571,400.000000 186.428571,404.000000"/>
	<polyline fill="none" stroke="rgb(0,0,0)" stroke-width="1" stroke-opacity="1" points="211.535714,400.000000 211.535714,404.000000"/>
	<polyline fill="none" stroke="rgb(0,0,0)" stroke-width="1" stroke-opacity="1" points="236.642857,400.000000 236.642857,404.000000"/>
	<polyline fill="none" stroke="rgb(0,0,0)" stroke-width="1" stroke-opacity="1" points="261.750000,400.000000 261.750000,404.000000"/>
	<polyline fill="none" stroke="rgb(0,0,0)" stroke-width="1" stroke-opacity="1" points="286.857143,400.000000 286.857143,404.000000"/>
	<polyline fill="none" stroke="rgb(0,0,0)" stroke-width="1" stroke-opacity="1" points="311.964286,400.000000 311.964286,404.000000"/>
	<polyline fill="none" stroke="rgb(0,0,0)" stroke-width="1" stroke-opacity="1" points="337.071429,400.000000 337.071429,404.000000"/>
	<polyline fill="none" stroke="rgb(0,0,0)" stroke-width="1" stroke-opacity="1" points="362.178571,400.000000 362.178571,404.000000"/>
	<polyline fill="none" stroke="rgb(0,0,0)" stroke-width="1" stroke-opacity="1" points="387.285714,400.000000 387.285714,404.000000"/>
	<polyline fill="none" stroke="rgb(0,0,0)" stroke-width="1" stroke-opacity="1" points="412.392857,400.000000 412.392857,404.000000"/>
	<polyline fill="none" stroke="rgb(0,0,0)" stroke-width="1" stroke-opacity="1" points="437.500000,400.000000 437.500000,404.000000"/>
	<polyline fill="none" stroke="rgb(0,0,0)" stroke-width="1" stroke-opacity="1" points="462.607143,400.000000 462.607143,404.000000"/>
	<polyline fill="none" stroke="rgb(0,0,0)" stroke-width="1" stroke-opacity="1" points="487.714286,400.000000 487.714286,404.000000"/>
	<polyline fill="none" stroke="rgb(0,0,0)" stroke-width="1" stroke-opacity="1" points="512.821429,400.000000 512.821429,404.000000"/>
	<polyline fill="none" stroke="rgb(0,0,0)" stroke-width="1" stroke-opacity="1" points="537.928571,400.000000 537.928571,404.000000"/>
	<polyline fill="none" stroke="rgb(0,0,0)" stroke-width="1" stroke-opacity="1" points="563.035714,400.000000 563.035714,404.000000"/>
	<polyline fill="none" stroke="rgb(0,0,0)" stroke-width="1" stroke-opacity="1" points="588.142857,400.000000 588.142857,404.000000"/>
	<polyline fill="none" stroke="rgb(0,0,0)" stroke-width="1" stroke-opacity="1" points="613.250000,400.000000 613.250000,404.000000"/>
	<polyline fill="none" stroke="rgb(0,0,0)" stroke-width="1" stroke-opacity="1" points="638.357143,400.000000 638.357143,404.000000"/>
	<polyline fill="none" stroke="rgb(0,0,0)" stroke-width="1" stroke-opacity="1" points="663.464286,400.000000 663.464286,404.000000"/>
	<polyline fill="none" stroke="rgb(0,0,0)" stroke-width="1" stroke-opacity="1" points="688.571429,400.000000 688.571429,404.000000"/>
	<polyline fill="none" stroke="rgb(0,0,0)" stroke-width="1" stroke-opacity="1" points="713.678571,400.000000 713.678571,404.000000"/>
	<polyline fill="none" stroke="rgb(0,0,0)" stroke-width="1" stroke-opacity="1" points="738.785714,400.000000 738.785714,404.000000"/>
	<polyline fill="none" stroke="rgb(0,0,0)" stroke-width="1" stroke-opacity="1" points="763.892857,400.000000 763.892857,404.000000"/>
	<polyline fill="none" stroke="rgb(0,0,0)" stroke-width="1" stroke-opacity="1" points="789.000000,400.000000 789.000000,404.000000"/>
	<polyline fill="none" stroke="rgb(0,0,0)" stroke-width="1" stroke-opacity="1" points="86.000000,400.000000 86.000000,406.400000"/>
	<text x="86" y="415" fill="rgb(0,0,0)" dominant-baseline="central" font-size="11" font-family="Arial" text-anchor="middle">0.0</text>
	<polyline fill="none" stroke="rgb(0,0,0)" stroke-width="1" stroke-opacity="1" points="211.535714,400.000000 211.535714,406.400000"/>
	<text x="211.536" y="415" fill="rgb(0,0,0)" dominant-baseline="central" font-size="11" font-family="Arial" text-anchor="middle">2.5</text>
	<polyline fill="none" stroke="rgb(0,0,0)" stroke-width="1" stroke-opacity="1" points="337.071429,400.000000 337.071429,406.400000"/>
	<text x="337.071" y="415" fill="rgb(0,0,0)" dominant-baseline="central" font-size="11" font-family="Arial" text-anchor="middle">5.0</text>
	<polyline fill="none" stroke="rgb(0,0,0)" stroke-width="1" stroke-opacity="1" points="462.607143,400.000000 462.607143,406.400000"/>
	<text x="462.607" y="415" fill="rgb(0,0,0)" dominant-baseline="central" font-size="11" font-family="Arial" text-anchor="middle">7.5</text>
	<polyline fill="none" stroke="rgb(0,0,0)" stroke-width="1" stroke-opacity="1" points="588.142857,400.000000 588.142857,406.400000"/>
	<text x="588.143" y="415" fill="rgb(0,0,0)" dominant-baseline="central" font-size="11" font-family="Arial" text-anchor="middle">10.0</text>
	<polyline fill="none" stroke="rgb(0,0,0)" stroke-width="1" stroke-opacity="1" points="713.678571,400.000000 713.678571,406.400000"/>
	<text x="713.679" y="415" fill="rgb(0,0,0)" dominant-baseline="central" font-size="11" font-family="Arial" text-anchor="middle">12.5</text>
	<polyline fill="none" stroke="rgb(0,0,0)" stroke-width="1" stroke-opacity="1" points="82.000000,400.000000 86.000000,400.000000"/>
	<polyline fill="none" stroke="rgb(0,0,0)" stroke-width="1" stroke-opacity="1" points="82.000000,370.666667 86.000000,370.666667"/>
	<polyline fill="none" stroke="rgb(0,0,0)" stroke-width="1" stroke-opacity="1" points="82.000000,341.333333 86.000000,341.333333"/>
	<polyline fill="none" stroke="rgb(0,0,0)" stroke-width="1" stroke-opacity="1" points="82.000000,312.000000 86.000000,312.000000"/>
	<polyline fill="none" stroke="rgb(0,0,0)" stroke-width="1" stroke-opacity="1" points="82.000000,282.666667 86.000000,282.666667"/>
	<polyline fill="none" stroke="rgb(0,0,0)" stroke-width="1" stroke-opacity="1" points="82.000000,253.333333 86.000000,253.333333"/>
	<polyline fill="none" stroke="rgb(0,0,0)" stroke-width="1" stroke-opacity="1" points="82.000000,224.000000 86.000000,224.000000"/>
	<polyline fill="none" stroke="rgb(0,0,0)" stroke-width="1" stroke-opacity="1" points="82.000000,194.666667 86.000000,194.666667"/>
	<polyline fill="none" stroke="rgb(0,0,0)" stroke-width="1" stroke-opacity="1" points="82.000000,165.333333 86.000000,165.333333"/>
	<polyline fill="none" stroke="rgb(0,0,0)" stroke-width="1" stroke-opacity="1" points="82.000000,136.000000 86.000000,136.000000"/>
	<polyline fill="none" stroke="rgb(0,0,0)" stroke-width="1" stroke-opacity="1" points="82.000000,106.666667 86.000000,106.666667"/>
	<polyline fill="none" stroke="rgb(0,0,0)" stroke-width="1" stroke-opacity="1" points="82.000000,77.333333 86.000000,77.333333"/>
	<polyline fill="none" stroke="rgb(0,0,0)" stroke-width="1" stroke-opacity="1" points="82.000000,48.000000 86.000000,48.000000"/>
	<rect fill="none" stroke="none" stroke-dasharray="none" stroke-width="1" stroke-opacity="1" x="27" y="363.667" width="51" height="14"/>
	<polyline fill="none" stroke="rgb(0,0,0)" stroke-width="1" stroke-opacity="1" points="79.600000,370.666667 86.000000,370.666667"/>
	<text x="78" y="370.667" fill="rgb(0,0,0)" dominant-baseline="central" font-size="11" font-family="Arial" text-anchor="end">1.2E4</text>
	<polyline fill="none" stroke="rgb(0,0,0)" stroke-width="1" stroke-opacity="1" points="79.600000,312.000000 86.000000,312.000000"/>
	<text x="78" y="312" fill="rgb(0,0,0)" dominant-baseline="central" font-size="11" font-family="Arial" text-anchor="end">1.4E4</text>
	<polyline fill="none" stroke="rgb(0,0,0)" stroke-width="1" stroke-opacity="1" points="79.600000,253.333333 86.000000,253.333333"/>
	<text x="78" y="253.333" fill="rgb(0,0,0)" dominant-baseline="central" font-size="11" font-family="Arial" text-anchor="end">1.6E4</text>
	<polyline fill="none" stroke="rgb(0,0,0)" stroke-width="1" stroke-opacity="1" points="79.600000,194.666667 86.000000,194.666667"/>
	<text x="78" y="194.667" fill="rgb(0,0,0)" dominant-baseline="central" font-size="11" font-family="Arial" text-anchor="end">1.8E4</text>
	<polyline fill="none" stroke="rgb(0,0,0)" stroke-width="1" stroke-opacity="1" points="79.600000,136.000000 86.000000,136.000000"/>
	<text x="78" y="136" fill="rgb(0,0,0)" dominant-baseline="central" font-size="11" font-family="Arial" text-anchor="end">2.0E4</text>
	<polyline fill="none" stroke="rgb(0,0,0)" stroke-width="1" stroke-opacity="1" points="79.600000,77.333333 86.000000,77.333333"/>
	<text x="78" y="77.3333" fill="rgb(0,0,0)" dominant-baseline="central" font-size="11" font-family="Arial" text-anchor="end">2.2E4</text>
	<text x="25" y="224" fill="rgb(0,0,0)" dominant-baseline="central" transform="rotate(-90 25,224)" font-size="11" font-family="Arial" text-anchor="middle">OCI</text>
	<text x="437.5" y="434" fill="rgb(0,0,0)" dominant-baseline="central" font-size="11" font-family="Arial" text-anchor="middle">Days</text>
	<text x="437.5" y="12" fill="rgb(0,0,0)" dominant-baseline="central" font-size="11" font-family="Arial" text-anchor="middle">OCI for changes in Y_h</text>
	<clipPath id="clipArea1">
		<rect x="86" y="48" width="703" height="352">
		</rect>
	</clipPath>
	<polyline fill="none" stroke="rgb(28,108,200)" stroke-width="1" stroke-opacity="1" clip-path="url(#clipArea1)" points="86.000000,245.635424 93.030000,245.720961 100.060000,245.864419 107.089999,246.007448 114.120000,246.071786 121.149999,246.164341 128.179999,246.274714 135.210001,246.372396 142.240000,246.480992 149.270000,246.640320 156.299999,246.804547 163.329998,246.891315 170.359997,246.991232 177.390003,247.111831 184.420002,247.221630 191.449995,247.335669 198.480000,247.494510 205.510006,247.662576 212.539999,247.772719 219.570004,247.884180 226.599998,248.020648 233.630003,248.145372 240.659996,248.272445 247.690001,248.437990 254.719995,248.619203 261.750000,248.756646 268.780005,248.870914 275.809999,249.011794 282.840004,249.148206 289.869997,249.276596 296.899990,249.442914 303.930008,249.625417 310.960001,249.778958 317.989994,249.902336 325.020011,250.051982 332.050005,250.200253 339.079998,250.344484 346.109991,250.519826 353.140009,250.709260 360.170002,250.888956 367.199995,251.042211 374.229989,251.213771 381.260006,251.388138 388.289999,251.558581 395.319992,251.740797 402.350010,251.943151 409.380003,252.141380 416.409996,252.303773 423.439989,252.482008 430.470007,252.666458 437.500000,252.843289 444.529993,253.020693 451.560011,253.223104 458.590004,253.424542 465.619997,253.568000 472.649990,253.729505 479.680008,253.902526 486.710001,254.064690 493.739994,254.233242 500.770011,254.438060 507.799981,254.645943 514.829998,254.795674 521.860015,254.952969 528.889985,255.124214 535.920002,255.286177 542.950019,255.449773 549.979989,255.646255 557.010006,255.849154 564.040023,256.007393 571.069992,256.164945 578.100010,256.340487 585.129979,256.505802 592.159996,256.671833 599.190013,256.866625 606.219983,257.073190 613.250000,257.245323 620.280017,257.397977 627.309987,257.570253 634.340004,257.738031 641.370021,257.898477 648.399990,258.087997 655.430008,258.289951 662.459977,258.468586 669.489994,258.621984 676.520011,258.795349 683.549981,258.966880 690.579998,259.134315 697.610015,259.326128 704.639985,259.528940 711.670002,259.723646 718.700019,259.896352 725.729989,260.083180 732.760006,260.271841 739.790023,260.456779 746.819992,260.650768 753.850010,260.860914 760.879979,261.067451 767.909996,261.244167 774.940013,261.433201 781.969983,261.626961 789.000000,261.813932 789.000000,261.813932"/>
	<polyline fill="none" stroke="rgb(238,46,47)" stroke-width="1" stroke-opacity="1" clip-path="url(#clipArea1)" points="86.000000,368.446185 93.030000,368.510581 100.060000,368.613391 107.089999,368.717060 114.120000,368.771115 121.149999,368.842185 128.179999,368.924771 135.210001,368.999594 142.240000,369.080977 149.270000,369.194701 156.299999,369.312206 163.329998,369.381586 170.359997,369.457898 177.390003,369.547245 184.420002,369.630060 191.449995,369.715109 198.480000,369.828547 205.510006,369.948401 212.539999,370.032505 219.570004,370.116352 226.599998,370.215753 233.630003,370.308049 240.659996,370.401578 247.690001,370.519083 254.719995,370.647102 261.750000,370.748422 268.780005,370.834130 275.809999,370.936167 282.840004,371.035510 289.869997,371.129555 296.899990,371.247260 303.930008,371.375680 310.960001,371.486568 317.989994,371.577547 325.020011,371.684625 332.050005,371.791044 339.079998,371.894742 346.109991,372.017919 353.140009,372.150406 360.170002,372.277250 367.199995,372.387250 374.229989,372.508565 381.260006,372.631828 388.289999,372.752628 395.319992,372.880674 402.350010,373.021612 409.380003,373.160372 416.409996,373.276589 423.439989,373.402344 430.470007,373.532167 437.500000,373.657177 444.529993,373.782273 451.560011,373.923068 458.590004,374.063719 465.619997,374.167818 472.649990,374.282057 479.680008,374.403430 486.710001,374.518042 493.739994,374.636062 500.770011,374.776971 507.799981,374.920286 514.829998,375.027336 521.860015,375.137708 528.889985,375.256703 535.920002,375.369883 542.950019,375.483578 549.979989,375.618099 557.010006,375.757060 564.040023,375.868292 571.069992,375.977977 578.100010,376.098661 585.129979,376.213188 592.159996,376.327799 599.190013,376.460430 606.219983,376.601052 613.250000,376.720448 620.280017,376.826437 627.309987,376.944516 634.340004,377.059815 641.370021,377.170130 648.399990,377.298807 655.430008,377.435849 662.459977,377.558596 669.489994,377.664385 676.520011,377.782521 683.549981,377.899654 690.579998,378.014008 697.610015,378.143859 704.639985,378.281102 711.670002,378.413617 718.700019,378.531896 725.729989,378.658997 732.760006,378.787474 739.790023,378.913544 746.819992,379.045315 753.850010,379.187570 760.879979,379.327878 767.909996,379.449221 774.940013,379.578042 781.969983,379.709984 789.000000,379.837659 789.000000,379.837659"/>
	<polyline fill="none" stroke="rgb(0,140,72)" stroke-width="1" stroke-opacity="1" clip-path="url(#clipArea1)" points="86.000000,61.000625 88.708594,60.982292 93.030000,60.955021 100.060000,60.927922 107.089999,60.923568 114.120000,60.916234 121.149999,60.894635 128.179999,60.876760 135.210001,60.862151 142.240000,60.846854 149.270000,60.841010 156.299999,60.856766 163.329998,60.866391 170.359997,60.853328 177.390003,60.840781 184.420002,60.831615 191.449995,60.821073 198.480000,60.820901 205.510006,60.840953 212.539999,60.858656 219.570004,60.852927 226.599998,60.848974 233.630003,60.852068 240.659996,60.852927 247.690001,60.862667 254.719995,60.894349 261.750000,60.930385 268.780005,60.934797 275.809999,60.939323 282.840004,60.951583 289.869997,60.960578 296.899990,60.976333 303.930008,61.015005 310.960001,61.060724 317.989994,61.077224 325.020011,61.092177 332.050005,61.114693 339.079998,61.136177 346.109991,61.166255 353.140009,61.224234 360.170002,61.289891 367.199995,61.327474 374.229989,61.367234 381.260006,61.418797 388.289999,61.468411 395.319992,61.522839 402.350010,61.597948 409.380003,61.682224 416.409996,61.742380 423.439989,61.796063 430.470007,61.860573 437.500000,61.924510 444.529993,61.983865 451.560011,62.060635 458.590004,62.149781 465.619997,62.205411 472.649990,62.244026 479.680008,62.300687 486.710001,62.355917 493.739994,62.410344 500.770011,62.489807 507.799981,62.598089 514.829998,62.673599 521.860015,62.719719 528.889985,62.781021 535.920002,62.844958 542.950019,62.903339 549.979989,62.985380 557.010006,63.097729 564.040023,63.184526 571.069992,63.242620 578.100010,63.313661 585.129979,63.388885 592.159996,63.461130 599.190013,63.552453 606.219983,63.683995 613.250000,63.793078 620.280017,63.858161 627.309987,63.932927 634.340004,64.014510 641.370021,64.090594 648.399990,64.186672 655.430008,64.320849 662.459977,64.440589 669.489994,64.515182 676.520011,64.597797 683.549981,64.691469 690.579998,64.778896 697.610015,64.897661 704.639985,65.044099 711.670002,65.188417 718.700019,65.292172 725.729989,65.411052 732.760006,65.540589 739.790023,65.664510 746.819992,65.798229 753.850010,65.960078 760.879979,66.125823 767.909996,66.247969 774.940013,66.376474 781.969983,66.518328 789.000000,66.653995 789.000000,66.653995"/>
	<rect fill="rgb(255,255,255)" stroke="none" stroke-opacity="0.7" x="86" y="23" width="295" height="17"/>
	<polyline fill="none" stroke="rgb(28,108,200)" stroke-width="1" stroke-opacity="1" points="86.000000,32.000000 116.000000,32.000000"/>
	<text x="121" y="32" fill="rgb(0,0,0)" dominant-baseline="central" font-size="11" font-family="Arial" text-anchor="start">Original value</text>
	<polyline fill="none" stroke="rgb(238,46,47)" stroke-width="1" stroke-opacity="1" points="196.000000,32.000000 226.000000,32.000000"/>
	<text x="231" y="32" fill="rgb(0,0,0)" dominant-baseline="central" font-size="11" font-family="Arial" text-anchor="start">Y_h = 0.4</text>
	<polyline fill="none" stroke="rgb(0,140,72)" stroke-width="1" stroke-opacity="1" points="288.000000,32.000000 318.000000,32.000000"/>
	<text x="323" y="32" fill="rgb(0,0,0)" dominant-baseline="central" font-size="11" font-family="Arial" text-anchor="start">Y_h = 0.94</text>
	<polyline fill="none" stroke="rgb(229,229,229)" stroke-width="1" stroke-opacity="1" points="86.000000,500.000000 86.000000,852.000000"/>
	<polyline fill="none" stroke="rgb(229,229,229)" stroke-width="1" stroke-opacity="1" points="111.107143,500.000000 111.107143,852.000000"/>
	<polyline fill="none" stroke="rgb(229,229,229)" stroke-width="1" stroke-opacity="1" points="136.214286,500.000000 136.214286,852.000000"/>
	<polyline fill="none" stroke="rgb(229,229,229)" stroke-width="1" stroke-opacity="1" points="161.321429,500.000000 161.321429,852.000000"/>
	<polyline fill="none" stroke="rgb(229,229,229)" stroke-width="1" stroke-opacity="1" points="186.428571,500.000000 186.428571,852.000000"/>
	<polyline fill="none" stroke="rgb(229,229,229)" stroke-width="1" stroke-opacity="1" points="211.535714,500.000000 211.535714,852.000000"/>
	<polyline fill="none" stroke="rgb(229,229,229)" stroke-width="1" stroke-opacity="1" points="236.642857,500.000000 236.642857,852.000000"/>
	<polyline fill="none" stroke="rgb(229,229,229)" stroke-width="1" stroke-opacity="1" points="261.750000,500.000000 261.750000,852.000000"/>
	<polyline fill="none" stroke="rgb(229,229,229)" stroke-width="1" stroke-opacity="1" points="286.857143,500.000000 286.857143,852.000000"/>
	<polyline fill="none" stroke="rgb(229,229,229)" stroke-width="1" stroke-opacity="1" points="311.964286,500.000000 311.964286,852.000000"/>
	<polyline fill="none" stroke="rgb(229,229,229)" stroke-width="1" stroke-opacity="1" points="337.071429,500.000000 337.071429,852.000000"/>
	<polyline fill="none" stroke="rgb(229,229,229)" stroke-width="1" stroke-opacity="1" points="362.178571,500.000000 362.178571,852.000000"/>
	<polyline fill="none" stroke="rgb(229,229,229)" stroke-width="1" stroke-opacity="1" points="387.285714,500.000000 387.285714,852.000000"/>
	<polyline fill="none" stroke="rgb(229,229,229)" stroke-width="1" stroke-opacity="1" points="412.392857,500.000000 412.392857,852.000000"/>
	<polyline fill="none" stroke="rgb(229,229,229)" stroke-width="1" stroke-opacity="1" points="437.500000,500.000000 437.500000,852.000000"/>
	<polyline fill="none" stroke="rgb(229,229,229)" stroke-width="1" stroke-opacity="1" points="462.607143,500.000000 462.607143,852.000000"/>
	<polyline fill="none" stroke="rgb(229,229,229)" stroke-width="1" stroke-opacity="1" points="487.714286,500.000000 487.714286,852.000000"/>
	<polyline fill="none" stroke="rgb(229,229,229)" stroke-width="1" stroke-opacity="1" points="512.821429,500.000000 512.821429,852.000000"/>
	<polyline fill="none" stroke="rgb(229,229,229)" stroke-width="1" stroke-opacity="1" points="537.928571,500.000000 537.928571,852.000000"/>
	<polyline fill="none" stroke="rgb(229,229,229)" stroke-width="1" stroke-opacity="1" points="563.035714,500.000000 563.035714,852.000000"/>
	<polyline fill="none" stroke="rgb(229,229,229)" stroke-width="1" stroke-opacity="1" points="588.142857,500.000000 588.142857,852.000000"/>
	<polyline fill="none" stroke="rgb(229,229,229)" stroke-width="1" stroke-opacity="1" points="613.250000,500.000000 613.250000,852.000000"/>
	<polyline fill="none" stroke="rgb(229,229,229)" stroke-width="1" stroke-opacity="1" points="638.357143,500.000000 638.357143,852.000000"/>
	<polyline fill="none" stroke="rgb(229,229,229)" stroke-width="1" stroke-opacity="1" points="663.464286,500.000000 663.464286,852.000000"/>
	<polyline fill="none" stroke="rgb(229,229,229)" stroke-width="1" stroke-opacity="1" points="688.571429,500.000000 688.571429,852.000000"/>
	<polyline fill="none" stroke="rgb(229,229,229)" stroke-width="1" stroke-opacity="1" points="713.678571,500.000000 713.678571,852.000000"/>
	<polyline fill="none" stroke="rgb(229,229,229)" stroke-width="1" stroke-opacity="1" points="738.785714,500.000000 738.785714,852.000000"/>
	<polyline fill="none" stroke="rgb(229,229,229)" stroke-width="1" stroke-opacity="1" points="763.892857,500.000000 763.892857,852.000000"/>
	<polyline fill="none" stroke="rgb(229,229,229)" stroke-width="1" stroke-opacity="1" points="789.000000,500.000000 789.000000,852.000000"/>
	<polyline fill="none" stroke="rgb(229,229,229)" stroke-width="1" stroke-opacity="1" points="86.000000,852.000000 789.000000,852.000000"/>
	<polyline fill="none" stroke="rgb(229,229,229)" stroke-width="1" stroke-opacity="1" points="86.000000,816.800000 789.000000,816.800000"/>
	<polyline fill="none" stroke="rgb(229,229,229)" stroke-width="1" stroke-opacity="1" points="86.000000,781.600000 789.000000,781.600000"/>
	<polyline fill="none" stroke="rgb(229,229,229)" stroke-width="1" stroke-opacity="1" points="86.000000,746.400000 789.000000,746.400000"/>
	<polyline fill="none" stroke="rgb(229,229,229)" stroke-width="1" stroke-opacity="1" points="86.000000,711.200000 789.000000,711.200000"/>
	<polyline fill="none" stroke="rgb(229,229,229)" stroke-width="1" stroke-opacity="1" points="86.000000,676.000000 789.000000,676.000000"/>
	<polyline fill="none" stroke="rgb(229,229,229)" stroke-width="1" stroke-opacity="1" points="86.000000,640.800000 789.000000,640.800000"/>
	<polyline fill="none" stroke="rgb(229,229,229)" stroke-width="1" stroke-opacity="1" points="86.000000,605.600000 789.000000,605.600000"/>
	<polyline fill="none" stroke="rgb(229,229,229)" stroke-width="1" stroke-opacity="1" points="86.000000,570.400000 789.000000,570.400000"/>
	<polyline fill="none" stroke="rgb(229,229,229)" stroke-width="1" stroke-opacity="1" points="86.000000,535.200000 789.000000,535.200000"/>
	<polyline fill="none" stroke="rgb(229,229,229)" stroke-width="1" stroke-opacity="1" points="86.000000,500.000000 789.000000,500.000000"/>
	<polyline fill="none" stroke="rgb(0,0,0)" stroke-width="1" stroke-opacity="1" points="86.000000,852.000000 789.000000,852.000000"/>
	<polyline fill="none" stroke="rgb(0,0,0)" stroke-width="1" stroke-opacity="1" points="789.000000,852.000000 789.000000,500.000000"/>
	<polyline fill="none" stroke="rgb(0,0,0)" stroke-width="1" stroke-opacity="1" points="789.000000,500.000000 86.000000,500.000000"/>
	<polyline fill="none" stroke="rgb(0,0,0)" stroke-width="1" stroke-opacity="1" points="86.000000,500.000000 86.000000,852.000000"/>
	<polyline fill="none" stroke="rgb(0,0,0)" stroke-width="1" stroke-opacity="1" points="86.000000,852.000000 86.000000,856.000000"/>
	<polyline fill="none" stroke="rgb(0,0,0)" stroke-width="1" stroke-opacity="1" points="111.107143,852.000000 111.107143,856.000000"/>
	<polyline fill="none" stroke="rgb(0,0,0)" stroke-width="1" stroke-opacity="1" points="136.214286,852.000000 136.214286,856.000000"/>
	<polyline fill="none" stroke="rgb(0,0,0)" stroke-width="1" stroke-opacity="1" points="161.321429,852.000000 161.321429,856.000000"/>
	<polyline fill="none" stroke="rgb(0,0,0)" stroke-width="1" stroke-opacity="1" points="186.428571,852.000000 186.428571,856.000000"/>
	<polyline fill="none" stroke="rgb(0,0,0)" stroke-width="1" stroke-opacity="1" points="211.535714,852.000000 211.535714,856.000000"/>
	<polyline fill="none" stroke="rgb(0,0,0)" stroke-width="1" stroke-opacity="1" points="236.642857,852.000000 236.642857,856.000000"/>
	<polyline fill="none" stroke="rgb(0,0,0)" stroke-width="1" stroke-opacity="1" points="261.750000,852.000000 261.750000,856.000000"/>
	<polyline fill="none" stroke="rgb(0,0,0)" stroke-width="1" stroke-opacity="1" points="286.857143,852.000000 286.857143,856.000000"/>
	<polyline fill="none" stroke="rgb(0,0,0)" stroke-width="1" stroke-opacity="1" points="311.964286,852.000000 311.964286,856.000000"/>
	<polyline fill="none" stroke="rgb(0,0,0)" stroke-width="1" stroke-opacity="1" points="337.071429,852.000000 337.071429,856.000000"/>
	<polyline fill="none" stroke="rgb(0,0,0)" stroke-width="1" stroke-opacity="1" points="362.178571,852.000000 362.178571,856.000000"/>
	<polyline fill="none" stroke="rgb(0,0,0)" stroke-width="1" stroke-opacity="1" points="387.285714,852.000000 387.285714,856.000000"/>
	<polyline fill="none" stroke="rgb(0,0,0)" stroke-width="1" stroke-opacity="1" points="412.392857,852.000000 412.392857,856.000000"/>
	<polyline fill="none" stroke="rgb(0,0,0)" stroke-width="1" stroke-opacity="1" points="437.500000,852.000000 437.500000,856.000000"/>
	<polyline fill="none" stroke="rgb(0,0,0)" stroke-width="1" stroke-opacity="1" points="462.607143,852.000000 462.607143,856.000000"/>
	<polyline fill="none" stroke="rgb(0,0,0)" stroke-width="1" stroke-opacity="1" points="487.714286,852.000000 487.714286,856.000000"/>
	<polyline fill="none" stroke="rgb(0,0,0)" stroke-width="1" stroke-opacity="1" points="512.821429,852.000000 512.821429,856.000000"/>
	<polyline fill="none" stroke="rgb(0,0,0)" stroke-width="1" stroke-opacity="1" points="537.928571,852.000000 537.928571,856.000000"/>
	<polyline fill="none" stroke="rgb(0,0,0)" stroke-width="1" stroke-opacity="1" points="563.035714,852.000000 563.035714,856.000000"/>
	<polyline fill="none" stroke="rgb(0,0,0)" stroke-width="1" stroke-opacity="1" points="588.142857,852.000000 588.142857,856.000000"/>
	<polyline fill="none" stroke="rgb(0,0,0)" stroke-width="1" stroke-opacity="1" points="613.250000,852.000000 613.250000,856.000000"/>
	<polyline fill="none" stroke="rgb(0,0,0)" stroke-width="1" stroke-opacity="1" points="638.357143,852.000000 638.357143,856.000000"/>
	<polyline fill="none" stroke="rgb(0,0,0)" stroke-width="1" stroke-opacity="1" points="663.464286,852.000000 663.464286,856.000000"/>
	<polyline fill="none" stroke="rgb(0,0,0)" stroke-width="1" stroke-opacity="1" points="688.571429,852.000000 688.571429,856.000000"/>
	<polyline fill="none" stroke="rgb(0,0,0)" stroke-width="1" stroke-opacity="1" points="713.678571,852.000000 713.678571,856.000000"/>
	<polyline fill="none" stroke="rgb(0,0,0)" stroke-width="1" stroke-opacity="1" points="738.785714,852.000000 738.785714,856.000000"/>
	<polyline fill="none" stroke="rgb(0,0,0)" stroke-width="1" stroke-opacity="1" points="763.892857,852.000000 763.892857,856.000000"/>
	<polyline fill="none" stroke="rgb(0,0,0)" stroke-width="1" stroke-opacity="1" points="789.000000,852.000000 789.000000,856.000000"/>
	<polyline fill="none" stroke="rgb(0,0,0)" stroke-width="1" stroke-opacity="1" points="86.000000,852.000000 86.000000,858.400000"/>
	<text x="86" y="867" fill="rgb(0,0,0)" dominant-baseline="central" font-size="11" font-family="Arial" text-anchor="middle">0.0</text>
	<polyline fill="none" stroke="rgb(0,0,0)" stroke-width="1" stroke-opacity="1" points="211.535714,852.000000 211.535714,858.400000"/>
	<text x="211.536" y="867" fill="rgb(0,0,0)" dominant-baseline="central" font-size="11" font-family="Arial" text-anchor="middle">2.5</text>
	<polyline fill="none" stroke="rgb(0,0,0)" stroke-width="1" stroke-opacity="1" points="337.071429,852.000000 337.071429,858.400000"/>
	<text x="337.071" y="867" fill="rgb(0,0,0)" dominant-baseline="central" font-size="11" font-family="Arial" text-anchor="middle">5.0</text>
	<polyline fill="none" stroke="rgb(0,0,0)" stroke-width="1" stroke-opacity="1" points="462.607143,852.000000 462.607143,858.400000"/>
	<text x="462.607" y="867" fill="rgb(0,0,0)" dominant-baseline="central" font-size="11" font-family="Arial" text-anchor="middle">7.5</text>
	<polyline fill="none" stroke="rgb(0,0,0)" stroke-width="1" stroke-opacity="1" points="588.142857,852.000000 588.142857,858.400000"/>
	<text x="588.143" y="867" fill="rgb(0,0,0)" dominant-baseline="central" font-size="11" font-family="Arial" text-anchor="middle">10.0</text>
	<polyline fill="none" stroke="rgb(0,0,0)" stroke-width="1" stroke-opacity="1" points="713.678571,852.000000 713.678571,858.400000"/>
	<text x="713.679" y="867" fill="rgb(0,0,0)" dominant-baseline="central" font-size="11" font-family="Arial" text-anchor="middle">12.5</text>
	<polyline fill="none" stroke="rgb(0,0,0)" stroke-width="1" stroke-opacity="1" points="82.000000,852.000000 86.000000,852.000000"/>
	<polyline fill="none" stroke="rgb(0,0,0)" stroke-width="1" stroke-opacity="1" points="82.000000,816.800000 86.000000,816.800000"/>
	<polyline fill="none" stroke="rgb(0,0,0)" stroke-width="1" stroke-opacity="1" points="82.000000,781.600000 86.000000,781.600000"/>
	<polyline fill="none" stroke="rgb(0,0,0)" stroke-width="1" stroke-opacity="1" points="82.000000,746.400000 86.000000,746.400000"/>
	<polyline fill="none" stroke="rgb(0,0,0)" stroke-width="1" stroke-opacity="1" points="82.000000,711.200000 86.000000,711.200000"/>
	<polyline fill="none" stroke="rgb(0,0,0)" stroke-width="1" stroke-opacity="1" points="82.000000,676.000000 86.000000,676.000000"/>
	<polyline fill="none" stroke="rgb(0,0,0)" stroke-width="1" stroke-opacity="1" points="82.000000,640.800000 86.000000,640.800000"/>
	<polyline fill="none" stroke="rgb(0,0,0)" stroke-width="1" stroke-opacity="1" points="82.000000,605.600000 86.000000,605.600000"/>
	<polyline fill="none" stroke="rgb(0,0,0)" stroke-width="1" stroke-opacity="1" points="82.000000,570.400000 86.000000,570.400000"/>
	<polyline fill="none" stroke="rgb(0,0,0)" stroke-width="1" stroke-opacity="1" points="82.000000,535.200000 86.000000,535.200000"/>
	<polyline fill="none" stroke="rgb(0,0,0)" stroke-width="1" stroke-opacity="1" points="82.000000,500.000000 86.000000,500.000000"/>
	<rect fill="none" stroke="none" stroke-dasharray="none" stroke-width="1" stroke-opacity="1" x="27" y="845" width="51" height="14"/>
	<polyline fill="none" stroke="rgb(0,0,0)" stroke-width="1" stroke-opacity="1" points="79.600000,852.000000 86.000000,852.000000"/>
	<text x="78" y="852" fill="rgb(0,0,0)" dominant-baseline="central" font-size="11" font-family="Arial" text-anchor="end">1.55E4</text>
	<polyline fill="none" stroke="rgb(0,0,0)" stroke-width="1" stroke-opacity="1" points="79.600000,816.800000 86.000000,816.800000"/>
	<text x="78" y="816.8" fill="rgb(0,0,0)" dominant-baseline="central" font-size="11" font-family="Arial" text-anchor="end">1.56E4</text>
	<polyline fill="none" stroke="rgb(0,0,0)" stroke-width="1" stroke-opacity="1" points="79.600000,781.600000 86.000000,781.600000"/>
	<text x="78" y="781.6" fill="rgb(0,0,0)" dominant-baseline="central" font-size="11" font-family="Arial" text-anchor="end">1.57E4</text>
	<polyline fill="none" stroke="rgb(0,0,0)" stroke-width="1" stroke-opacity="1" points="79.600000,746.400000 86.000000,746.400000"/>
	<text x="78" y="746.4" fill="rgb(0,0,0)" dominant-baseline="central" font-size="11" font-family="Arial" text-anchor="end">1.58E4</text>
	<polyline fill="none" stroke="rgb(0,0,0)" stroke-width="1" stroke-opacity="1" points="79.600000,711.200000 86.000000,711.200000"/>
	<text x="78" y="711.2" fill="rgb(0,0,0)" dominant-baseline="central" font-size="11" font-family="Arial" text-anchor="end">1.59E4</text>
	<polyline fill="none" stroke="rgb(0,0,0)" stroke-width="1" stroke-opacity="1" points="79.600000,676.000000 86.000000,676.000000"/>
	<text x="78" y="676" fill="rgb(0,0,0)" dominant-baseline="central" font-size="11" font-family="Arial" text-anchor="end">1.60E4</text>
	<polyline fill="none" stroke="rgb(0,0,0)" stroke-width="1" stroke-opacity="1" points="79.600000,640.800000 86.000000,640.800000"/>
	<text x="78" y="640.8" fill="rgb(0,0,0)" dominant-baseline="central" font-size="11" font-family="Arial" text-anchor="end">1.61E4</text>
	<polyline fill="none" stroke="rgb(0,0,0)" stroke-width="1" stroke-opacity="1" points="79.600000,605.600000 86.000000,605.600000"/>
	<text x="78" y="605.6" fill="rgb(0,0,0)" dominant-baseline="central" font-size="11" font-family="Arial" text-anchor="end">1.62E4</text>
	<polyline fill="none" stroke="rgb(0,0,0)" stroke-width="1" stroke-opacity="1" points="79.600000,570.400000 86.000000,570.400000"/>
	<text x="78" y="570.4" fill="rgb(0,0,0)" dominant-baseline="central" font-size="11" font-family="Arial" text-anchor="end">1.63E4</text>
	<polyline fill="none" stroke="rgb(0,0,0)" stroke-width="1" stroke-opacity="1" points="79.600000,535.200000 86.000000,535.200000"/>
	<text x="78" y="535.2" fill="rgb(0,0,0)" dominant-baseline="central" font-size="11" font-family="Arial" text-anchor="end">1.64E4</text>
	<polyline fill="none" stroke="rgb(0,0,0)" stroke-width="1" stroke-opacity="1" points="79.600000,500.000000 86.000000,500.000000"/>
	<text x="78" y="500" fill="rgb(0,0,0)" dominant-baseline="central" font-size="11" font-family="Arial" text-anchor="end">1.65E4</text>
	<text x="25" y="676" fill="rgb(0,0,0)" dominant-baseline="central" transform="rotate(-90 25,676)" font-size="11" font-family="Arial" text-anchor="middle">OCI</text>
	<text x="437.5" y="886" fill="rgb(0,0,0)" dominant-baseline="central" font-size="11" font-family="Arial" text-anchor="middle">Days</text>
	<text x="437.5" y="464" fill="rgb(0,0,0)" dominant-baseline="central" font-size="11" font-family="Arial" text-anchor="middle">OCI for changes in Y_a</text>
	<clipPath id="clipArea2">
		<rect x="86" y="500" width="703" height="352">
		</rect>
	</clipPath>
	<polyline fill="none" stroke="rgb(28,108,200)" stroke-width="1" stroke-opacity="1" clip-path="url(#clipArea2)" points="86.000000,583.625094 93.030000,584.651531 100.060000,586.373031 107.089999,588.089375 114.120000,588.861437 121.149999,589.972094 128.179999,591.296562 135.210001,592.468750 142.240000,593.771906 149.270000,595.683844 156.299999,597.654562 163.329998,598.695781 170.359997,599.894781 177.390003,601.341969 184.420002,602.659562 191.449995,604.028031 198.480000,605.934125 205.510006,607.950906 212.539999,609.272625 219.570004,610.610156 226.599998,612.247781 233.630003,613.744469 240.659996,615.269344 247.690001,617.255875 254.719995,619.430438 261.750000,621.079750 268.780005,622.450969 275.809999,624.141531 282.840004,625.778469 289.869997,627.319156 296.899990,629.314969 303.930008,631.505000 310.960001,633.347500 317.989994,634.828031 325.020011,636.623781 332.050005,638.403031 339.079998,640.133812 346.109991,642.237906 353.140009,644.511125 360.170002,646.667469 367.199995,648.506531 374.229989,650.565250 381.260006,652.657656 388.289999,654.702969 395.319992,656.889563 402.350010,659.317812 409.380003,661.696563 416.409996,663.645281 423.439989,665.784094 430.470007,667.997500 437.500000,670.119469 444.529993,672.248312 451.560011,674.677250 458.590004,677.094500 465.619997,678.816000 472.649990,680.754063 479.680008,682.830312 486.710001,684.776281 493.739994,686.798906 500.770011,689.256719 507.799981,691.751313 514.829998,693.548094 521.860015,695.435625 528.889985,697.490563 535.920002,699.434125 542.950019,701.397281 549.979989,703.755063 557.010006,706.189844 564.040023,708.088719 571.069992,709.979344 578.100010,712.085844 585.129979,714.069625 592.159996,716.062000 599.190013,718.399500 606.219983,720.878281 613.250000,722.943875 620.280017,724.775719 627.309987,726.843031 634.340004,728.856375 641.370021,730.781719 648.399990,733.055969 655.430008,735.479406 662.459977,737.623031 669.489994,739.463813 676.520011,741.544188 683.549981,743.602562 690.579998,745.611781 697.610015,747.913531 704.639985,750.347281 711.670002,752.683750 718.700019,754.756219 725.729989,756.998156 732.760006,759.262094 739.790023,761.481344 746.819992,763.809219 753.850010,766.330969 760.879979,768.809406 767.909996,770.930000 774.940013,773.198406 781.969983,775.523531 789.000000,777.767187 789.000000,777.767187"/>
	<polyline fill="none" stroke="rgb(238,46,47)" stroke-width="1" stroke-opacity="1" clip-path="url(#clipArea2)" points="86.000000,651.401938 93.030000,652.420469 100.060000,654.122719 107.089999,655.820844 114.120000,656.591188 121.149999,657.693937 128.179999,659.007063 135.210001,660.170656 142.240000,661.463156 149.270000,663.353094 156.299999,665.301469 163.329998,666.338219 170.359997,667.528969 177.390003,668.963094 184.420002,670.270375 191.449995,671.627844 198.480000,673.512625 205.510006,675.507063 212.539999,676.819500 219.570004,678.147062 226.599998,679.768875 233.630003,681.252844 240.659996,682.764312 247.690001,684.728844 254.719995,686.878312 261.750000,688.512844 268.780005,689.874094 275.809999,691.549188 282.840004,693.170313 289.869997,694.697938 296.899990,696.671750 303.930008,698.836688 310.960001,700.660969 317.989994,702.129813 325.020011,703.907688 332.050005,705.669406 339.079998,707.383344 346.109991,709.464062 353.140009,711.710469 360.170002,713.842750 367.199995,715.664281 374.229989,717.701000 381.260006,719.771062 388.289999,721.794719 395.319992,723.957250 402.350010,726.357313 409.380003,728.708906 416.409996,730.638719 423.439989,732.754844 430.470007,734.944875 437.500000,737.044500 444.529993,739.151344 451.560011,741.552437 458.590004,743.942531 465.619997,745.650281 472.649990,747.569438 479.680008,749.623000 486.710001,751.550750 493.739994,753.552406 500.770011,755.980656 507.799981,758.445688 514.829998,760.226656 521.860015,762.095969 528.889985,764.128906 535.920002,766.052531 542.950019,767.995063 549.979989,770.324656 557.010006,772.730219 564.040023,774.610187 571.069992,776.481906 578.100010,778.563656 585.129979,780.526813 592.159996,782.497875 599.190013,784.807188 606.219983,787.254688 613.250000,789.297937 620.280017,791.111562 627.309987,793.155500 634.340004,795.146500 641.370021,797.051219 648.399990,799.297625 655.430008,801.690812 662.459977,803.809687 669.489994,805.631219 676.520011,807.687531 683.549981,809.721500 690.579998,811.708031 697.610015,813.980906 704.639985,816.384063 711.670002,818.692000 718.700019,820.740406 725.729989,822.955875 732.760006,825.192656 739.790023,827.385438 746.819992,829.684781 753.850010,832.174562 760.879979,834.622406 767.909996,836.718938 774.940013,838.960531 781.969983,841.258156 789.000000,843.475344 789.000000,843.475344"/>
	<polyline fill="none" stroke="rgb(0,140,72)" stroke-width="1" stroke-opacity="1" clip-path="url(#clipArea2)" points="86.000000,520.868375 93.030000,521.816438 100.060000,523.516625 107.089999,525.212000 114.120000,525.938688 121.149999,527.013937 128.179999,528.309188 135.210001,529.448375 142.240000,530.723000 149.270000,532.621188 156.299999,534.579875 163.329998,535.585687 170.359997,536.754437 177.390003,538.177563 184.420002,539.469375 191.449995,540.813437 198.480000,542.708875 205.510006,544.717750 212.539999,546.014031 219.570004,547.327156 226.599998,548.948969 233.630003,550.426406 240.659996,551.933750 247.690001,553.914094 254.719995,556.086594 261.750000,557.721125 268.780005,559.071031 275.809999,560.749906 282.840004,562.373094 289.869997,563.899000 296.899990,565.891031 303.930008,568.082094 310.960001,569.916688 317.989994,571.381750 325.020011,573.170281 332.050005,574.941625 339.079998,576.664500 346.109991,578.769969 353.140009,581.048000 360.170002,583.206063 367.199995,585.039625 374.229989,587.098344 381.260006,589.191438 388.289999,591.236750 395.319992,593.426781 402.350010,595.864313 409.380003,598.250625 416.409996,600.196937 423.439989,602.338156 430.470007,604.556375 437.500000,606.680406 444.529993,608.812000 451.560011,611.250906 458.590004,613.678125 465.619997,615.393094 472.649990,617.330469 479.680008,619.408781 486.710001,621.356469 493.739994,623.382187 500.770011,625.853063 507.799981,628.361750 514.829998,630.156469 521.860015,632.044688 528.889985,634.105469 535.920002,636.052125 542.950019,638.019750 549.979989,640.390594 557.010006,642.840844 564.040023,644.742469 571.069992,646.636531 578.100010,648.751625 585.129979,650.741937 592.159996,652.741531 599.190013,655.094156 606.219983,657.590812 613.250000,659.665000 620.280017,661.500625 627.309987,663.577906 634.340004,665.600187 641.370021,667.533094 648.399990,669.822813 655.430008,672.264813 662.459977,674.420469 669.489994,676.267781 676.520011,678.359844 683.549981,680.429906 690.579998,682.450125 697.610015,684.769406 704.639985,687.223438 711.670002,689.577437 718.700019,691.661938 725.729989,693.920375 732.760006,696.200812 739.790023,698.435531 746.819992,700.781625 753.850010,703.325719 760.879979,705.825125 767.909996,707.959125 774.940013,710.244375 781.969983,712.587719 789.000000,714.847531 789.000000,714.847531"/>
	<rect fill="rgb(255,255,255)" stroke="none" stroke-opacity="0.7" x="86" y="475" width="301" height="17"/>
	<polyline fill="none" stroke="rgb(28,108,200)" stroke-width="1" stroke-opacity="1" points="86.000000,484.000000 116.000000,484.000000"/>
	<text x="121" y="484" fill="rgb(0,0,0)" dominant-baseline="central" font-size="11" font-family="Arial" text-anchor="start">Original value</text>
	<polyline fill="none" stroke="rgb(238,46,47)" stroke-width="1" stroke-opacity="1" points="196.000000,484.000000 226.000000,484.000000"/>
	<text x="231" y="484" fill="rgb(0,0,0)" dominant-baseline="central" font-size="11" font-family="Arial" text-anchor="start">Y_a = 0.14</text>
	<polyline fill="none" stroke="rgb(0,140,72)" stroke-width="1" stroke-opacity="1" points="294.000000,484.000000 324.000000,484.000000"/>
	<text x="329" y="484" fill="rgb(0,0,0)" dominant-baseline="central" font-size="11" font-family="Arial" text-anchor="start">Y_a = 0.34</text>
</svg>
