<?xml version="1.0" standalone="no"?>
<!DOCTYPE svg PUBLIC "-//W3C//DTD SVG 1.1//EN" "http://www.w3.org/Graphics/SVG/1.1/DTD/svg11.dtd">
<svg viewBox="0 0 814.000000 905.000000" version="1.1" xmlns="http://www.w3.org/2000/svg" xmlns:xlink="http://www.w3.org/1999/xlink">
	<polyline fill="none" stroke="rgb(229,229,229)" stroke-width="1" stroke-opacity="1" points="74.000000,48.000000 74.000000,400.000000"/>
	<polyline fill="none" stroke="rgb(229,229,229)" stroke-width="1" stroke-opacity="1" points="99.535714,48.000000 99.535714,400.000000"/>
	<polyline fill="none" stroke="rgb(229,229,229)" stroke-width="1" stroke-opacity="1" points="125.071429,48.000000 125.071429,400.000000"/>
	<polyline fill="none" stroke="rgb(229,229,229)" stroke-width="1" stroke-opacity="1" points="150.607143,48.000000 150.607143,400.000000"/>
	<polyline fill="none" stroke="rgb(229,229,229)" stroke-width="1" stroke-opacity="1" points="176.142857,48.000000 176.142857,400.000000"/>
	<polyline fill="none" stroke="rgb(229,229,229)" stroke-width="1" stroke-opacity="1" points="201.678571,48.000000 201.678571,400.000000"/>
	<polyline fill="none" stroke="rgb(229,229,229)" stroke-width="1" stroke-opacity="1" points="227.214286,48.000000 227.214286,400.000000"/>
	<polyline fill="none" stroke="rgb(229,229,229)" stroke-width="1" stroke-opacity="1" points="252.750000,48.000000 252.750000,400.000000"/>
	<polyline fill="none" stroke="rgb(229,229,229)" stroke-width="1" stroke-opacity="1" points="278.285714,48.000000 278.285714,400.000000"/>
	<polyline fill="none" stroke="rgb(229,229,229)" stroke-width="1" stroke-opacity="1" points="303.821429,48.000000 303.821429,400.000000"/>
	<polyline fill="none" stroke="rgb(229,229,229)" stroke-width="1" stroke-opacity="1" points="329.357143,48.000000 329.357143,400.000000"/>
	<polyline fill="none" stroke="rgb(229,229,229)" stroke-width="1" stroke-opacity="1" points="354.892857,48.000000 354.892857,400.000000"/>
	<polyline fill="none" stroke="rgb(229,229,229)" stroke-width="1" stroke-opacity="1" points="380.428571,48.000000 380.428571,400.000000"/>
	<polyline fill="none" stroke="rgb(229,229,229)" stroke-width="1" stroke-opacity="1" points="405.964286,48.000000 405.964286,400.000000"/>
	<polyline fill="none" stroke="rgb(229,229,229)" stroke-width="1" stroke-opacity="1" points="431.500000,48.000000 431.500000,400.000000"/>
	<polyline fill="none" stroke="rgb(229,229,229)" stroke-width="1" stroke-opacity="1" points="457.035714,48.000000 457.035714,400.000000"/>
	<polyline fill="none" stroke="rgb(229,229,229)" stroke-width="1" stroke-opacity="1" points="482.571429,48.000000 482.571429,400.000000"/>
	<polyline fill="none" stroke="rgb(229,229,229)" stroke-width="1" stroke-opacity="1" points="508.107143,48.000000 508.107143,400.000000"/>
	<polyline fill="none" stroke="rgb(229,229,229)" stroke-width="1" stroke-opacity="1" points="533.642857,48.000000 533.642857,400.000000"/>
	<polyline fill="none" stroke="rgb(229,229,229)" stroke-width="1" stroke-opacity="1" points="559.178571,48.000000 559.178571,400.000000"/>
	<polyline fill="none" stroke="rgb(229,229,229)" stroke-width="1" stroke-opacity="1" points="584.714286,48.000000 584.714286,400.000000"/>
	<polyline fill="none" stroke="rgb(229,229,229)" stroke-width="1" stroke-opacity="1" points="610.250000,48.000000 610.250000,400.000000"/>
	<polyline fill="none" stroke="rgb(229,229,229)" stroke-width="1" stroke-opacity="1" points="635.785714,48.000000 635.785714,400.000000"/>
	<polyline fill="none" stroke="rgb(229,229,229)" stroke-width="1" stroke-opacity="1" points="661.321429,48.000000 661.321429,400.000000"/>
	<polyline fill="none" stroke="rgb(229,229,229)" stroke-width="1" stroke-opacity="1" points="686.857143,48.000000 686.857143,400.000000"/>
	<polyline fill="none" stroke="rgb(229,229,229)" stroke-width="1" stroke-opacity="1" points="712.392857,48.000000 712.392857,400.000000"/>
	<polyline fill="none" stroke="rgb(229,229,229)" stroke-width="1" stroke-opacity="1" points="737.928571,48.000000 737.928571,400.000000"/>
	<polyline fill="none" stroke="rgb(229,229,229)" stroke-width="1" stroke-opacity="1" points="763.464286,48.000000 763.464286,400.000000"/>
	<polyline fill="none" stroke="rgb(229,229,229)" stroke-width="1" stroke-opacity="1" points="789.000000,48.000000 789.000000,400.000000"/>
	<polyline fill="none" stroke="rgb(229,229,229)" stroke-width="1" stroke-opacity="1" points="74.000000,400.000000 789.000000,400.000000"/>
	<polyline fill="none" stroke="rgb(229,229,229)" stroke-width="1" stroke-opacity="1" points="74.000000,370.666667 789.000000,370.666667"/>
	<polyline fill="none" stroke="rgb(229,229,229)" stroke-width="1" stroke-opacity="1" points="74.000000,341.333333 789.000000,341.333333"/>
	<polyline fill="none" stroke="rgb(229,229,229)" stroke-width="1" stroke-opacity="1" points="74.000000,312.000000 789.000000,312.000000"/>
	<polyline fill="none" stroke="rgb(229,229,229)" stroke-width="1" stroke-opacity="1" points="74.000000,282.666667 789.000000,282.666667"/>
	<polyline fill="none" stroke="rgb(229,229,229)" stroke-width="1" stroke-opacity="1" points="74.000000,253.333333 789.000000,253.333333"/>
	<polyline fill="none" stroke="rgb(229,229,229)" stroke-width="1" stroke-opacity="1" points="74.000000,224.000000 789.000000,224.000000"/>
	<polyline fill="none" stroke="rgb(229,229,229)" stroke-width="1" stroke-opacity="1" points="74.000000,194.666667 789.000000,194.666667"/>
	<polyline fill="none" stroke="rgb(229,229,229)" stroke-width="1" stroke-opacity="1" points="74.000000,165.333333 789.000000,165.333333"/>
	<polyline fill="none" stroke="rgb(229,229,229)" stroke-width="1" stroke-opacity="1" points="74.000000,136.000000 789.000000,136.000000"/>
	<polyline fill="none" stroke="rgb(229,229,229)" stroke-width="1" stroke-opacity="1" points="74.000000,106.666667 789.000000,106.666667"/>
	<polyline fill="none" stroke="rgb(229,229,229)" stroke-width="1" stroke-opacity="1" points="74.000000,77.333333 789.000000,77.333333"/>
	<polyline fill="none" stroke="rgb(229,229,229)" stroke-width="1" stroke-opacity="1" points="74.000000,48.000000 789.000000,48.000000"/>
	<polyline fill="none" stroke="rgb(0,0,0)" stroke-width="1" stroke-opacity="1" points="74.000000,400.000000 789.000000,400.000000"/>
	<polyline fill="none" stroke="rgb(0,0,0)" stroke-width="1" stroke-opacity="1" points="789.000000,400.000000 789.000000,48.000000"/>
	<polyline fill="none" stroke="rgb(0,0,0)" stroke-width="1" stroke-opacity="1" points="789.000000,48.000000 74.000000,48.000000"/>
	<polyline fill="none" stroke="rgb(0,0,0)" stroke-width="1" stroke-opacity="1" points="74.000000,48.000000 74.000000,400.000000"/>
	<polyline fill="none" stroke="rgb(0,0,0)" stroke-width="1" stroke-opacity="1" points="74.000000,400.000000 74.000000,404.000000"/>
	<polyline fill="none" stroke="rgb(0,0,0)" stroke-width="1" stroke-opacity="1" points="99.535714,400.000000 99.535714,404.000000"/>
	<polyline fill="none" stroke="rgb(0,0,0)" stroke-width="1" stroke-opacity="1" points="125.071429,400.000000 125.071429,404.000000"/>
	<polyline fill="none" stroke="rgb(0,0,0)" stroke-width="1" stroke-opacity="1" points="150.607143,400.000000 150.607143,404.000000"/>
	<polyline fill="none" stroke="rgb(0,0,0)" stroke-width="1" stroke-opacity="1" points="176.142857,400.000000 176.142857,404.000000"/>
	<polyline fill="none" stroke="rgb(0,0,0)" stroke-width="1" stroke-opacity="1" points="201.678571,400.000000 201.678571,404.000000"/>
	<polyline fill="none" stroke="rgb(0,0,0)" stroke-width="1" stroke-opacity="1" points="227.214286,400.000000 227.214286,404.000000"/>
	<polyline fill="none" stroke="rgb(0,0,0)" stroke-width="1" stroke-opacity="1" points="252.750000,400.000000 252.750000,404.000000"/>
	<polyline fill="none" stroke="rgb(0,0,0)" stroke-width="1" stroke-opacity="1" points="278.285714,400.000000 278.285714,404.000000"/>
	<polyline fill="none" stroke="rgb(0,0,0)" stroke-width="1" stroke-opacity="1" points="303.821429,400.000000 303.821429,404.000000"/>
	<polyline fill="none" stroke="rgb(0,0,0)" stroke-width="1" stroke-opacity="1" points="329.357143,400.000000 329.357143,404.000000"/>
	<polyline fill="none" stroke="rgb(0,0,0)" stroke-width="1" stroke-opacity="1" points="354.892857,400.000000 354.892857,404.000000"/>
	<polyline fill="none" stroke="rgb(0,0,0)" stroke-width="1" stroke-opacity="1" points="380.428571,400.000000 380.428571,404.000000"/>
	<polyline fill="none" stroke="rgb(0,0,0)" stroke-width="1" stroke-opacity="1" points="405.964286,400.000000 405.964286,404.000000"/>
	<polyline fill="none" stroke="rgb(0,0,0)" stroke-width="1" stroke-opacity="1" points="431.500000,400.000000 431.500000,404.000000"/>
	<polyline fill="none" stroke="rgb(0,0,0)" stroke-width="1" stroke-opacity="1" points="457.035714,400.000000 457.035714,404.000000"/>
	<polyline fill="none" stroke="rgb(0,0,0)" stroke-width="1" stroke-opacity="1" points="482.571429,400.000000 482.571429,404.000000"/>
	<polyline fill="none" stroke="rgb(0,0,0)" stroke-width="1" stroke-opacity="1" points="508.107143,400.000000 508.107143,404.000000"/>
	<polyline fill="none" stroke="rgb(0,0,0)" stroke-width="1" stroke-opacity="1" points="533.642857,400.000000 533.642857,404.000000"/>
	<polyline fill="none" stroke="rgb(0,0,0)" stroke-width="1" stroke-opacity="1" points="559.178571,400.000000 559.178571,404.000000"/>
	<polyline fill="none" stroke="rgb(0,0,0)" stroke-width="1" stroke-opacity="1" points="584.714286,400.000000 584.714286,404.000000"/>
	<polyline fill="none" stroke="rgb(0,0,0)" stroke-width="1" stroke-opacity="1" points="610.250000,400.000000 610.250000,404.000000"/>
	<polyline fill="none" stroke="rgb(0,0,0)" stroke-width="1" stroke-opacity="1" points="635.785714,400.000000 635.785714,404.000000"/>
	<polyline fill="none" stroke="rgb(0,0,0)" stroke-width="1" stroke-opacity="1" points="661.321429,400.000000 661.321429,404.000000"/>
	<polyline fill="none" stroke="rgb(0,0,0)" stroke-width="1" stroke-opacity="1" points="686.857143,400.000000 686.857143,404.000000"/>
	<polyline fill="none" stroke="rgb(0,0,0)" stroke-width="1" stroke-opacity="1" points="712.392857,400.000000 712.392857,404.000000"/>
	<polyline fill="none" stroke="rgb(0,0,0)" stroke-width="1" stroke-opacity="1" points="737.928571,400.000000 737.928571,404.000000"/>
	<polyline fill="none" stroke="rgb(0,0,0)" stroke-width="1" stroke-opacity="1" points="763.464286,400.000000 763.464286,404.000000"/>
	<polyline fill="none" stroke="rgb(0,0,0)" stroke-width="1" stroke-opacity="1" points="789.000000,400.000000 789.000000,404.000000"/>
	<polyline fill="none" stroke="rgb(0,0,0)" stroke-width="1" stroke-opacity="1" points="74.000000,400.000000 74.000000,406.400000"/>
	<text x="74" y="415" fill="rgb(0,0,0)" dominant-baseline="central" font-size="11" font-family="Arial" text-anchor="middle">0.0</text>
	<polyline fill="none" stroke="rgb(0,0,0)" stroke-width="1" stroke-opacity="1" points="201.678571,400.000000 201.678571,406.400000"/>
	<text x="201.679" y="415" fill="rgb(0,0,0)" dominant-baseline="central" font-size="11" font-family="Arial" text-anchor="middle">2.5</text>
	<polyline fill="none" stroke="rgb(0,0,0)" stroke-width="1" stroke-opacity="1" points="329.357143,400.000000 329.357143,406.400000"/>
	<text x="329.357" y="415" fill="rgb(0,0,0)" dominant-baseline="central" font-size="11" font-family="Arial" text-anchor="middle">5.0</text>
	<polyline fill="none" stroke="rgb(0,0,0)" stroke-width="1" stroke-opacity="1" points="457.035714,400.000000 457.035714,406.400000"/>
	<text x="457.036" y="415" fill="rgb(0,0,0)" dominant-baseline="central" font-size="11" font-family="Arial" text-anchor="middle">7.5</text>
	<polyline fill="none" stroke="rgb(0,0,0)" stroke-width="1" stroke-opacity="1" points="584.714286,400.000000 584.714286,406.400000"/>
	<text x="584.714" y="415" fill="rgb(0,0,0)" dominant-baseline="central" font-size="11" font-family="Arial" text-anchor="middle">10.0</text>
	<polyline fill="none" stroke="rgb(0,0,0)" stroke-width="1" stroke-opacity="1" points="712.392857,400.000000 712.392857,406.400000"/>
	<text x="712.393" y="415" fill="rgb(0,0,0)" dominant-baseline="central" font-size="11" font-family="Arial" text-anchor="middle">12.5</text>
	<polyline fill="none" stroke="rgb(0,0,0)" stroke-width="1" stroke-opacity="1" points="70.000000,400.000000 74.000000,400.000000"/>
	<polyline fill="none" stroke="rgb(0,0,0)" stroke-width="1" stroke-opacity="1" points="70.000000,370.666667 74.000000,370.666667"/>
	<polyline fill="none" stroke="rgb(0,0,0)" stroke-width="1" stroke-opacity="1" points="70.000000,341.333333 74.000000,341.333333"/>
	<polyline fill="none" stroke="rgb(0,0,0)" stroke-width="1" stroke-opacity="1" points="70.000000,312.000000 74.000000,312.000000"/>
	<polyline fill="none" stroke="rgb(0,0,0)" stroke-width="1" stroke-opacity="1" points="70.000000,282.666667 74.000000,282.666667"/>
	<polyline fill="none" stroke="rgb(0,0,0)" stroke-width="1" stroke-opacity="1" points="70.000000,253.333333 74.000000,253.333333"/>
	<polyline fill="none" stroke="rgb(0,0,0)" stroke-width="1" stroke-opacity="1" points="70.000000,224.000000 74.000000,224.000000"/>
	<polyline fill="none" stroke="rgb(0,0,0)" stroke-width="1" stroke-opacity="1" points="70.000000,194.666667 74.000000,194.666667"/>
	<polyline fill="none" stroke="rgb(0,0,0)" stroke-width="1" stroke-opacity="1" points="70.000000,165.333333 74.000000,165.333333"/>
	<polyline fill="none" stroke="rgb(0,0,0)" stroke-width="1" stroke-opacity="1" points="70.000000,136.000000 74.000000,136.000000"/>
	<polyline fill="none" stroke="rgb(0,0,0)" stroke-width="1" stroke-opacity="1" points="70.000000,106.666667 74.000000,106.666667"/>
	<polyline fill="none" stroke="rgb(0,0,0)" stroke-width="1" stroke-opacity="1" points="70.000000,77.333333 74.000000,77.333333"/>
	<polyline fill="none" stroke="rgb(0,0,0)" stroke-width="1" stroke-opacity="1" points="70.000000,48.000000 74.000000,48.000000"/>
	<rect fill="none" stroke="none" stroke-dasharray="none" stroke-width="1" stroke-opacity="1" x="15" y="363.667" width="51" height="14"/>
	<polyline fill="none" stroke="rgb(0,0,0)" stroke-width="1" stroke-opacity="1" points="67.600000,370.666667 74.000000,370.666667"/>
	<text x="66" y="370.667" fill="rgb(0,0,0)" dominant-baseline="central" font-size="11" font-family="Arial" text-anchor="end">1600</text>
	<polyline fill="none" stroke="rgb(0,0,0)" stroke-width="1" stroke-opacity="1" points="67.600000,312.000000 74.000000,312.000000"/>
	<text x="66" y="312" fill="rgb(0,0,0)" dominant-baseline="central" font-size="11" font-family="Arial" text-anchor="end">2000</text>
	<polyline fill="none" stroke="rgb(0,0,0)" stroke-width="1" stroke-opacity="1" points="67.600000,253.333333 74.000000,253.333333"/>
	<text x="66" y="253.333" fill="rgb(0,0,0)" dominant-baseline="central" font-size="11" font-family="Arial" text-anchor="end">2400</text>
	<polyline fill="none" stroke="rgb(0,0,0)" stroke-width="1" stroke-opacity="1" points="67.600000,194.666667 74.000000,194.666667"/>
	<text x="66" y="194.667" fill="rgb(0,0,0)" dominant-baseline="central" font-size="11" font-family="Arial" text-anchor="end">2800</text>
	<polyline fill="none" stroke="rgb(0,0,0)" stroke-width="1" stroke-opacity="1" points="67.600000,136.000000 74.000000,136.000000"/>
	<text x="66" y="136" fill="rgb(0,0,0)" dominant-baseline="central" font-size="11" font-family="Arial" text-anchor="end">3200</text>
	<polyline fill="none" stroke="rgb(0,0,0)" stroke-width="1" stroke-opacity="1" points="67.600000,77.333333 74.000000,77.333333"/>
	<text x="66" y="77.3333" fill="rgb(0,0,0)" dominant-baseline="central" font-size="11" font-family="Arial" text-anchor="end">3600</text>
	<text x="25" y="224" fill="rgb(0,0,0)" dominant-baseline="central" transform="rotate(-90 25,224)" font-size="11" font-family="Arial" text-anchor="middle">SP [kg/d]</text>
	<text x="431.5" y="434" fill="rgb(0,0,0)" dominant-baseline="central" font-size="11" font-family="Arial" text-anchor="middle">Days</text>
	<text x="431.5" y="12" fill="rgb(0,0,0)" dominant-baseline="central" font-size="11" font-family="Arial" text-anchor="middle">SP for changes in Y_h</text>
	<clipPath id="clipArea1">
		<rect x="74" y="48" width="715" height="352">
		</rect>
	</clipPath>
	<polyline fill="none" stroke="rgb(28,108,200)" stroke-width="1" stroke-opacity="1" clip-path="url(#clipArea1)" points="74.000000,244.741266 81.150000,244.826774 88.300000,244.970254 95.449999,245.113304 102.600000,245.177614 109.749999,245.270176 116.899999,245.380534 124.050001,245.478216 131.200000,245.586855 138.350000,245.746162 145.499999,245.910374 152.649998,245.997171 159.799997,246.097109 166.950003,246.217673 174.100002,246.327493 181.249995,246.441540 188.400000,246.600345 195.550006,246.768460 202.699999,246.878604 209.850004,246.990036 216.999998,247.126497 224.150003,247.251214 231.299996,247.378330 238.450001,247.543867 245.599995,247.725052 252.750000,247.862516 259.900005,247.976777 267.049999,248.117679 274.200004,248.254069 281.349997,248.382474 288.499990,248.548799 295.650008,248.731309 302.800001,248.884850 309.949994,249.008242 317.100012,249.157881 324.250005,249.306123 331.399998,249.450391 338.549991,249.625739 345.700009,249.815160 352.850002,249.994840 359.999995,250.148096 367.149988,250.319684 374.300006,250.494030 381.449999,250.664473 388.599992,250.846696 395.750010,251.049043 402.900003,251.247272 410.049996,251.409694 417.199989,251.587907 424.350007,251.772386 431.500000,251.949202 438.649993,252.126592 445.800011,252.329010 452.950004,252.530462 460.099997,252.673906 467.249990,252.835433 474.400008,253.008418 481.550001,253.170625 488.699994,253.339170 495.850012,253.543988 502.999981,253.751849 510.149998,253.901595 517.300016,254.058896 524.449984,254.230163 531.600002,254.392083 538.750019,254.555723 545.899988,254.752161 553.050006,254.955081 560.200023,255.113314 567.349992,255.270866 574.500010,255.446429 581.649979,255.611715 588.799996,255.777790 595.950014,255.972581 603.099982,256.179118 610.250000,256.351279 617.400018,256.503926 624.549986,256.676195 631.700004,256.843988 638.850021,257.004440 645.999990,257.193968 653.150008,257.395921 660.299977,257.574528 667.449994,257.727962 674.600012,257.901305 681.749981,258.072822 688.899998,258.240257 696.050016,258.432077 703.199984,258.634889 710.350002,258.829609 717.500019,259.002308 724.649988,259.189150 731.800006,259.377819 738.950023,259.562764 746.099992,259.756732 753.250010,259.966885 760.399979,260.173421 767.549996,260.350130 774.700014,260.539193 781.849982,260.732946 789.000000,260.919896 789.000000,260.919896"/>
	<polyline fill="none" stroke="rgb(238,46,47)" stroke-width="1" stroke-opacity="1" clip-path="url(#clipArea1)" points="74.000000,367.552023 81.150000,367.616423 88.300000,367.719207 95.449999,367.822887 102.600000,367.876938 109.749999,367.948016 116.899999,368.030623 124.050001,368.105443 131.200000,368.186833 138.350000,368.300539 145.499999,368.418040 152.649998,368.487435 159.799997,368.563758 166.950003,368.653097 174.100002,368.735920 181.249995,368.820980 188.400000,368.934417 195.550006,369.054264 202.699999,369.138358 209.850004,369.222218 216.999998,369.321637 224.150003,369.413913 231.299996,369.507459 238.450001,369.624961 245.599995,369.752972 252.750000,369.854289 259.900005,369.939993 267.049999,370.042044 274.200004,370.141392 281.349997,370.235439 288.499990,370.353138 295.650008,370.481561 302.800001,370.592456 309.949994,370.683424 317.100012,370.790506 324.250005,370.896943 331.399998,371.000623 338.549991,371.123818 345.700009,371.256287 352.850002,371.383135 359.999995,371.493153 367.149988,371.614450 374.300006,371.737734 381.449999,371.858512 388.599992,371.986577 395.750010,372.127515 402.900003,372.266268 410.049996,372.382498 417.199989,372.508254 424.350007,372.638073 431.500000,372.763076 438.649993,372.888187 445.800011,373.028981 452.950004,373.169632 460.099997,373.273742 467.249990,373.387985 474.400008,373.509354 481.550001,373.623973 488.699994,373.741976 495.850012,373.882896 502.999981,374.026196 510.149998,374.133260 517.300016,374.243636 524.449984,374.362642 531.600002,374.475828 538.750019,374.589499 545.899988,374.724009 553.050006,374.862995 560.200023,374.974212 567.349992,375.083908 574.500010,375.204596 581.649979,375.319126 588.799996,375.433727 595.950014,375.566375 603.099982,375.706991 610.250000,375.826390 617.400018,375.932397 624.549986,376.050454 631.700004,376.165754 638.850021,376.276094 645.999990,376.404749 653.150008,376.541802 660.299977,376.664549 667.449994,376.770360 674.600012,376.888470 681.749981,377.005614 688.899998,377.119964 696.050016,377.249801 703.199984,377.387069 710.350002,377.519591 717.500019,377.637863 724.649988,377.764961 731.800006,377.893438 738.950023,378.019515 746.099992,378.151268 753.250010,378.293530 760.399979,378.433859 767.549996,378.555174 774.700014,378.684009 781.849982,378.815977 789.000000,378.943647 789.000000,378.943647"/>
	<polyline fill="none" stroke="rgb(0,140,72)" stroke-width="1" stroke-opacity="1" clip-path="url(#clipArea1)" points="74.000000,60.106481 76.754829,60.088112 81.150000,60.060863 88.300000,60.033792 95.449999,60.029388 102.600000,60.022048 109.749999,60.000456 116.899999,59.982624 124.050001,59.967979 131.200000,59.952725 138.350000,59.946852 145.499999,59.962607 152.649998,59.972240 159.799997,59.959206 166.950003,59.946637 174.100002,59.937435 181.249995,59.926908 188.400000,59.926764 195.550006,59.946781 202.699999,59.964541 209.850004,59.958776 216.999998,59.954801 224.150003,59.957917 231.299996,59.958812 238.450001,59.968551 245.599995,60.000205 252.750000,60.036263 259.900005,60.040632 267.049999,60.045179 274.200004,60.057425 281.349997,60.066484 288.499990,60.082168 295.650008,60.120911 302.800001,60.166637 309.949994,60.183073 317.100012,60.198040 324.250005,60.220563 331.399998,60.242048 338.549991,60.272161 345.700009,60.330133 352.850002,60.395768 359.999995,60.433330 367.149988,60.473148 374.300006,60.524674 381.449999,60.574303 388.599992,60.628730 395.750010,60.703854 402.900003,60.788109 410.049996,60.848265 417.199989,60.901976 424.350007,60.966501 431.500000,61.030417 438.649993,61.089785 445.800011,61.166556 452.950004,61.255716 460.099997,61.311325 467.249990,61.349925 474.400008,61.406608 481.550001,61.461823 488.699994,61.516250 495.850012,61.595706 502.999981,61.703988 510.149998,61.779505 517.300016,61.825625 524.449984,61.886927 531.600002,61.950879 538.750019,62.009245 545.899988,62.091279 553.050006,62.203643 560.200023,62.290475 567.349992,62.348555 574.500010,62.419596 581.649979,62.494827 588.799996,62.567087 595.950014,62.658395 603.099982,62.789915 610.250000,62.899020 617.400018,62.964082 624.549986,63.038848 631.700004,63.120417 638.850021,63.196543 645.999990,63.292614 653.150008,63.426820 660.299977,63.546559 667.449994,63.621146 674.600012,63.703753 681.749981,63.797425 688.899998,63.884867 696.050016,64.003639 703.199984,64.150055 710.350002,64.294359 717.500019,64.398128 724.649988,64.517008 731.800006,64.646559 738.950023,64.770488 746.099992,64.904193 753.250010,65.066042 760.399979,65.231794 767.549996,65.353932 774.700014,65.482409 781.849982,65.624277 789.000000,65.759951 789.000000,65.759951"/>
	<rect fill="rgb(255,255,255)" stroke="none" stroke-opacity="0.7" x="74" y="23" width="295" height="17"/>
	<polyline fill="none" stroke="rgb(28,108,200)" stroke-width="1" stroke-opacity="1" points="74.000000,32.000000 104.000000,32.000000"/>
	<text x="109" y="32" fill="rgb(0,0,0)" dominant-baseline="central" font-size="11" font-family="Arial" text-anchor="start">Original value</text>
	<polyline fill="none" stroke="rgb(238,46,47)" stroke-width="1" stroke-opacity="1" points="184.000000,32.000000 214.000000,32.000000"/>
	<text x="219" y="32" fill="rgb(0,0,0)" dominant-baseline="central" font-size="11" font-family="Arial" text-anchor="start">Y_h = 0.4</text>
	<polyline fill="none" stroke="rgb(0,140,72)" stroke-width="1" stroke-opacity="1" points="276.000000,32.000000 306.000000,32.000000"/>
	<text x="311" y="32" fill="rgb(0,0,0)" dominant-baseline="central" font-size="11" font-family="Arial" text-anchor="start">Y_h = 0.94</text>
	<polyline fill="none" stroke="rgb(229,229,229)" stroke-width="1" stroke-opacity="1" points="74.000000,500.000000 74.000000,852.000000"/>
	<polyline fill="none" stroke="rgb(229,229,229)" stroke-width="1" stroke-opacity="1" points="99.535714,500.000000 99.535714,852.000000"/>
	<polyline fill="none" stroke="rgb(229,229,229)" stroke-width="1" stroke-opacity="1" points="125.071429,500.000000 125.071429,852.000000"/>
	<polyline fill="none" stroke="rgb(229,229,229)" stroke-width="1" stroke-opacity="1" points="150.607143,500.000000 150.607143,852.000000"/>
	<polyline fill="none" stroke="rgb(229,229,229)" stroke-width="1" stroke-opacity="1" points="176.142857,500.000000 176.142857,852.000000"/>
	<polyline fill="none" stroke="rgb(229,229,229)" stroke-width="1" stroke-opacity="1" points="201.678571,500.000000 201.678571,852.000000"/>
	<polyline fill="none" stroke="rgb(229,229,229)" stroke-width="1" stroke-opacity="1" points="227.214286,500.000000 227.214286,852.000000"/>
	<polyline fill="none" stroke="rgb(229,229,229)" stroke-width="1" stroke-opacity="1" points="252.750000,500.000000 252.750000,852.000000"/>
	<polyline fill="none" stroke="rgb(229,229,229)" stroke-width="1" stroke-opacity="1" points="278.285714,500.000000 278.285714,852.000000"/>
	<polyline fill="none" stroke="rgb(229,229,229)" stroke-width="1" stroke-opacity="1" points="303.821429,500.000000 303.821429,852.000000"/>
	<polyline fill="none" stroke="rgb(229,229,229)" stroke-width="1" stroke-opacity="1" points="329.357143,500.000000 329.357143,852.000000"/>
	<polyline fill="none" stroke="rgb(229,229,229)" stroke-width="1" stroke-opacity="1" points="354.892857,500.000000 354.892857,852.000000"/>
	<polyline fill="none" stroke="rgb(229,229,229)" stroke-width="1" stroke-opacity="1" points="380.428571,500.000000 380.428571,852.000000"/>
	<polyline fill="none" stroke="rgb(229,229,229)" stroke-width="1" stroke-opacity="1" points="405.964286,500.000000 405.964286,852.000000"/>
	<polyline fill="none" stroke="rgb(229,229,229)" stroke-width="1" stroke-opacity="1" points="431.500000,500.000000 431.500000,852.000000"/>
	<polyline fill="none" stroke="rgb(229,229,229)" stroke-width="1" stroke-opacity="1" points="457.035714,500.000000 457.035714,852.000000"/>
	<polyline fill="none" stroke="rgb(229,229,229)" stroke-width="1" stroke-opacity="1" points="482.571429,500.000000 482.571429,852.000000"/>
	<polyline fill="none" stroke="rgb(229,229,229)" stroke-width="1" stroke-opacity="1" points="508.107143,500.000000 508.107143,852.000000"/>
	<polyline fill="none" stroke="rgb(229,229,229)" stroke-width="1" stroke-opacity="1" points="533.642857,500.000000 533.642857,852.000000"/>
	<polyline fill="none" stroke="rgb(229,229,229)" stroke-width="1" stroke-opacity="1" points="559.178571,500.000000 559.178571,852.000000"/>
	<polyline fill="none" stroke="rgb(229,229,229)" stroke-width="1" stroke-opacity="1" points="584.714286,500.000000 584.714286,852.000000"/>
	<polyline fill="none" stroke="rgb(229,229,229)" stroke-width="1" stroke-opacity="1" points="610.250000,500.000000 610.250000,852.000000"/>
	<polyline fill="none" stroke="rgb(229,229,229)" stroke-width="1" stroke-opacity="1" points="635.785714,500.000000 635.785714,852.000000"/>
	<polyline fill="none" stroke="rgb(229,229,229)" stroke-width="1" stroke-opacity="1" points="661.321429,500.000000 661.321429,852.000000"/>
	<polyline fill="none" stroke="rgb(229,229,229)" stroke-width="1" stroke-opacity="1" points="686.857143,500.000000 686.857143,852.000000"/>
	<polyline fill="none" stroke="rgb(229,229,229)" stroke-width="1" stroke-opacity="1" points="712.392857,500.000000 712.392857,852.000000"/>
	<polyline fill="none" stroke="rgb(229,229,229)" stroke-width="1" stroke-opacity="1" points="737.928571,500.000000 737.928571,852.000000"/>
	<polyline fill="none" stroke="rgb(229,229,229)" stroke-width="1" stroke-opacity="1" points="763.464286,500.000000 763.464286,852.000000"/>
	<polyline fill="none" stroke="rgb(229,229,229)" stroke-width="1" stroke-opacity="1" points="789.000000,500.000000 789.000000,852.000000"/>
	<polyline fill="none" stroke="rgb(229,229,229)" stroke-width="1" stroke-opacity="1" points="74.000000,852.000000 789.000000,852.000000"/>
	<polyline fill="none" stroke="rgb(229,229,229)" stroke-width="1" stroke-opacity="1" points="74.000000,816.800000 789.000000,816.800000"/>
	<polyline fill="none" stroke="rgb(229,229,229)" stroke-width="1" stroke-opacity="1" points="74.000000,781.600000 789.000000,781.600000"/>
	<polyline fill="none" stroke="rgb(229,229,229)" stroke-width="1" stroke-opacity="1" points="74.000000,746.400000 789.000000,746.400000"/>
	<polyline fill="none" stroke="rgb(229,229,229)" stroke-width="1" stroke-opacity="1" points="74.000000,711.200000 789.000000,711.200000"/>
	<polyline fill="none" stroke="rgb(229,229,229)" stroke-width="1" stroke-opacity="1" points="74.000000,676.000000 789.000000,676.000000"/>
	<polyline fill="none" stroke="rgb(229,229,229)" stroke-width="1" stroke-opacity="1" points="74.000000,640.800000 789.000000,640.800000"/>
	<polyline fill="none" stroke="rgb(229,229,229)" stroke-width="1" stroke-opacity="1" points="74.000000,605.600000 789.000000,605.600000"/>
	<polyline fill="none" stroke="rgb(229,229,229)" stroke-width="1" stroke-opacity="1" points="74.000000,570.400000 789.000000,570.400000"/>
	<polyline fill="none" stroke="rgb(229,229,229)" stroke-width="1" stroke-opacity="1" points="74.000000,535.200000 789.000000,535.200000"/>
	<polyline fill="none" stroke="rgb(229,229,229)" stroke-width="1" stroke-opacity="1" points="74.000000,500.000000 789.000000,500.000000"/>
	<polyline fill="none" stroke="rgb(0,0,0)" stroke-width="1" stroke-opacity="1" points="74.000000,852.000000 789.000000,852.000000"/>
	<polyline fill="none" stroke="rgb(0,0,0)" stroke-width="1" stroke-opacity="1" points="789.000000,852.000000 789.000000,500.000000"/>
	<polyline fill="none" stroke="rgb(0,0,0)" stroke-width="1" stroke-opacity="1" points="789.000000,500.000000 74.000000,500.000000"/>
	<polyline fill="none" stroke="rgb(0,0,0)" stroke-width="1" stroke-opacity="1" points="74.000000,500.000000 74.000000,852.000000"/>
	<polyline fill="none" stroke="rgb(0,0,0)" stroke-width="1" stroke-opacity="1" points="74.000000,852.000000 74.000000,856.000000"/>
	<polyline fill="none" stroke="rgb(0,0,0)" stroke-width="1" stroke-opacity="1" points="99.535714,852.000000 99.535714,856.000000"/>
	<polyline fill="none" stroke="rgb(0,0,0)" stroke-width="1" stroke-opacity="1" points="125.071429,852.000000 125.071429,856.000000"/>
	<polyline fill="none" stroke="rgb(0,0,0)" stroke-width="1" stroke-opacity="1" points="150.607143,852.000000 150.607143,856.000000"/>
	<polyline fill="none" stroke="rgb(0,0,0)" stroke-width="1" stroke-opacity="1" points="176.142857,852.000000 176.142857,856.000000"/>
	<polyline fill="none" stroke="rgb(0,0,0)" stroke-width="1" stroke-opacity="1" points="201.678571,852.000000 201.678571,856.000000"/>
	<polyline fill="none" stroke="rgb(0,0,0)" stroke-width="1" stroke-opacity="1" points="227.214286,852.000000 227.214286,856.000000"/>
	<polyline fill="none" stroke="rgb(0,0,0)" stroke-width="1" stroke-opacity="1" points="252.750000,852.000000 252.750000,856.000000"/>
	<polyline fill="none" stroke="rgb(0,0,0)" stroke-width="1" stroke-opacity="1" points="278.285714,852.000000 278.285714,856.000000"/>
	<polyline fill="none" stroke="rgb(0,0,0)" stroke-width="1" stroke-opacity="1" points="303.821429,852.000000 303.821429,856.000000"/>
	<polyline fill="none" stroke="rgb(0,0,0)" stroke-width="1" stroke-opacity="1" points="329.357143,852.000000 329.357143,856.000000"/>
	<polyline fill="none" stroke="rgb(0,0,0)" stroke-width="1" stroke-opacity="1" points="354.892857,852.000000 354.892857,856.000000"/>
	<polyline fill="none" stroke="rgb(0,0,0)" stroke-width="1" stroke-opacity="1" points="380.428571,852.000000 380.428571,856.000000"/>
	<polyline fill="none" stroke="rgb(0,0,0)" stroke-width="1" stroke-opacity="1" points="405.964286,852.000000 405.964286,856.000000"/>
	<polyline fill="none" stroke="rgb(0,0,0)" stroke-width="1" stroke-opacity="1" points="431.500000,852.000000 431.500000,856.000000"/>
	<polyline fill="none" stroke="rgb(0,0,0)" stroke-width="1" stroke-opacity="1" points="457.035714,852.000000 457.035714,856.000000"/>
	<polyline fill="none" stroke="rgb(0,0,0)" stroke-width="1" stroke-opacity="1" points="482.571429,852.000000 482.571429,856.000000"/>
	<polyline fill="none" stroke="rgb(0,0,0)" stroke-width="1" stroke-opacity="1" points="508.107143,852.000000 508.107143,856.000000"/>
	<polyline fill="none" stroke="rgb(0,0,0)" stroke-width="1" stroke-opacity="1" points="533.642857,852.000000 533.642857,856.000000"/>
	<polyline fill="none" stroke="rgb(0,0,0)" stroke-width="1" stroke-opacity="1" points="559.178571,852.000000 559.178571,856.000000"/>
	<polyline fill="none" stroke="rgb(0,0,0)" stroke-width="1" stroke-opacity="1" points="584.714286,852.000000 584.714286,856.000000"/>
	<polyline fill="none" stroke="rgb(0,0,0)" stroke-width="1" stroke-opacity="1" points="610.250000,852.000000 610.250000,856.000000"/>
	<polyline fill="none" stroke="rgb(0,0,0)" stroke-width="1" stroke-opacity="1" points="635.785714,852.000000 635.785714,856.000000"/>
	<polyline fill="none" stroke="rgb(0,0,0)" stroke-width="1" stroke-opacity="1" points="661.321429,852.000000 661.321429,856.000000"/>
	<polyline fill="none" stroke="rgb(0,0,0)" stroke-width="1" stroke-opacity="1" points="686.857143,852.000000 686.857143,856.000000"/>
	<polyline fill="none" stroke="rgb(0,0,0)" stroke-width="1" stroke-opacity="1" points="712.392857,852.000000 712.392857,856.000000"/>
	<polyline fill="none" stroke="rgb(0,0,0)" stroke-width="1" stroke-opacity="1" points="737.928571,852.000000 737.928571,856.000000"/>
	<polyline fill="none" stroke="rgb(0,0,0)" stroke-width="1" stroke-opacity="1" points="763.464286,852.000000 763.464286,856.000000"/>
	<polyline fill="none" stroke="rgb(0,0,0)" stroke-width="1" stroke-opacity="1" points="789.000000,852.000000 789.000000,856.000000"/>
	<polyline fill="none" stroke="rgb(0,0,0)" stroke-width="1" stroke-opacity="1" points="74.000000,852.000000 74.000000,858.400000"/>
	<text x="74" y="867" fill="rgb(0,0,0)" dominant-baseline="central" font-size="11" font-family="Arial" text-anchor="middle">0.0</text>
	<polyline fill="none" stroke="rgb(0,0,0)" stroke-width="1" stroke-opacity="1" points="201.678571,852.000000 201.678571,858.400000"/>
	<text x="201.679" y="867" fill="rgb(0,0,0)" dominant-baseline="central" font-size="11" font-family="Arial" text-anchor="middle">2.5</text>
	<polyline fill="none" stroke="rgb(0,0,0)" stroke-width="1" stroke-opacity="1" points="329.357143,852.000000 329.357143,858.400000"/>
	<text x="329.357" y="867" fill="rgb(0,0,0)" dominant-baseline="central" font-size="11" font-family="Arial" text-anchor="middle">5.0</text>
	<polyline fill="none" stroke="rgb(0,0,0)" stroke-width="1" stroke-opacity="1" points="457.035714,852.000000 457.035714,858.400000"/>
	<text x="457.036" y="867" fill="rgb(0,0,0)" dominant-baseline="central" font-size="11" font-family="Arial" text-anchor="middle">7.5</text>
	<polyline fill="none" stroke="rgb(0,0,0)" stroke-width="1" stroke-opacity="1" points="584.714286,852.000000 584.714286,858.400000"/>
	<text x="584.714" y="867" fill="rgb(0,0,0)" dominant-baseline="central" font-size="11" font-family="Arial" text-anchor="middle">10.0</text>
	<polyline fill="none" stroke="rgb(0,0,0)" stroke-width="1" stroke-opacity="1" points="712.392857,852.000000 712.392857,858.400000"/>
	<text x="712.393" y="867" fill="rgb(0,0,0)" dominant-baseline="central" font-size="11" font-family="Arial" text-anchor="middle">12.5</text>
	<polyline fill="none" stroke="rgb(0,0,0)" stroke-width="1" stroke-opacity="1" points="70.000000,852.000000 74.000000,852.000000"/>
	<polyline fill="none" stroke="rgb(0,0,0)" stroke-width="1" stroke-opacity="1" points="70.000000,816.800000 74.000000,816.800000"/>
	<polyline fill="none" stroke="rgb(0,0,0)" stroke-width="1" stroke-opacity="1" points="70.000000,781.600000 74.000000,781.600000"/>
	<polyline fill="none" stroke="rgb(0,0,0)" stroke-width="1" stroke-opacity="1" points="70.000000,746.400000 74.000000,746.400000"/>
	<polyline fill="none" stroke="rgb(0,0,0)" stroke-width="1" stroke-opacity="1" points="70.000000,711.200000 74.000000,711.200000"/>
	<polyline fill="none" stroke="rgb(0,0,0)" stroke-width="1" stroke-opacity="1" points="70.000000,676.000000 74.000000,676.000000"/>
	<polyline fill="none" stroke="rgb(0,0,0)" stroke-width="1" stroke-opacity="1" points="70.000000,640.800000 74.000000,640.800000"/>
	<polyline fill="none" stroke="rgb(0,0,0)" stroke-width="1" stroke-opacity="1" points="70.000000,605.600000 74.000000,605.600000"/>
	<polyline fill="none" stroke="rgb(0,0,0)" stroke-width="1" stroke-opacity="1" points="70.000000,570.400000 74.000000,570.400000"/>
	<polyline fill="none" stroke="rgb(0,0,0)" stroke-width="1" stroke-opacity="1" points="70.000000,535.200000 74.000000,535.200000"/>
	<polyline fill="none" stroke="rgb(0,0,0)" stroke-width="1" stroke-opacity="1" points="70.000000,500.000000 74.000000,500.000000"/>
	<rect fill="none" stroke="none" stroke-dasharray="none" stroke-width="1" stroke-opacity="1" x="15" y="845" width="51" height="14"/>
	<polyline fill="none" stroke="rgb(0,0,0)" stroke-width="1" stroke-opacity="1" points="67.600000,852.000000 74.000000,852.000000"/>
	<text x="66" y="852" fill="rgb(0,0,0)" dominant-baseline="central" font-size="11" font-family="Arial" text-anchor="end">2300</text>
	<polyline fill="none" stroke="rgb(0,0,0)" stroke-width="1" stroke-opacity="1" points="67.600000,816.800000 74.000000,816.800000"/>
	<text x="66" y="816.8" fill="rgb(0,0,0)" dominant-baseline="central" font-size="11" font-family="Arial" text-anchor="end">2320</text>
	<polyline fill="none" stroke="rgb(0,0,0)" stroke-width="1" stroke-opacity="1" points="67.600000,781.600000 74.000000,781.600000"/>
	<text x="66" y="781.6" fill="rgb(0,0,0)" dominant-baseline="central" font-size="11" font-family="Arial" text-anchor="end">2340</text>
	<polyline fill="none" stroke="rgb(0,0,0)" stroke-width="1" stroke-opacity="1" points="67.600000,746.400000 74.000000,746.400000"/>
	<text x="66" y="746.4" fill="rgb(0,0,0)" dominant-baseline="central" font-size="11" font-family="Arial" text-anchor="end">2360</text>
	<polyline fill="none" stroke="rgb(0,0,0)" stroke-width="1" stroke-opacity="1" points="67.600000,711.200000 74.000000,711.200000"/>
	<text x="66" y="711.2" fill="rgb(0,0,0)" dominant-baseline="central" font-size="11" font-family="Arial" text-anchor="end">2380</text>
	<polyline fill="none" stroke="rgb(0,0,0)" stroke-width="1" stroke-opacity="1" points="67.600000,676.000000 74.000000,676.000000"/>
	<text x="66" y="676" fill="rgb(0,0,0)" dominant-baseline="central" font-size="11" font-family="Arial" text-anchor="end">2400</text>
	<polyline fill="none" stroke="rgb(0,0,0)" stroke-width="1" stroke-opacity="1" points="67.600000,640.800000 74.000000,640.800000"/>
	<text x="66" y="640.8" fill="rgb(0,0,0)" dominant-baseline="central" font-size="11" font-family="Arial" text-anchor="end">2420</text>
	<polyline fill="none" stroke="rgb(0,0,0)" stroke-width="1" stroke-opacity="1" points="67.600000,605.600000 74.000000,605.600000"/>
	<text x="66" y="605.6" fill="rgb(0,0,0)" dominant-baseline="central" font-size="11" font-family="Arial" text-anchor="end">2440</text>
	<polyline fill="none" stroke="rgb(0,0,0)" stroke-width="1" stroke-opacity="1" points="67.600000,570.400000 74.000000,570.400000"/>
	<text x="66" y="570.4" fill="rgb(0,0,0)" dominant-baseline="central" font-size="11" font-family="Arial" text-anchor="end">2460</text>
	<polyline fill="none" stroke="rgb(0,0,0)" stroke-width="1" stroke-opacity="1" points="67.600000,535.200000 74.000000,535.200000"/>
	<text x="66" y="535.2" fill="rgb(0,0,0)" dominant-baseline="central" font-size="11" font-family="Arial" text-anchor="end">2480</text>
	<polyline fill="none" stroke="rgb(0,0,0)" stroke-width="1" stroke-opacity="1" points="67.600000,500.000000 74.000000,500.000000"/>
	<text x="66" y="500" fill="rgb(0,0,0)" dominant-baseline="central" font-size="11" font-family="Arial" text-anchor="end">2500</text>
	<text x="25" y="676" fill="rgb(0,0,0)" dominant-baseline="central" transform="rotate(-90 25,676)" font-size="11" font-family="Arial" text-anchor="middle">SP [kg/d]</text>
	<text x="431.5" y="886" fill="rgb(0,0,0)" dominant-baseline="central" font-size="11" font-family="Arial" text-anchor="middle">Days</text>
	<text x="431.5" y="464" fill="rgb(0,0,0)" dominant-baseline="central" font-size="11" font-family="Arial" text-anchor="middle">SP for changes in Y_a</text>
	<clipPath id="clipArea2">
		<rect x="74" y="500" width="715" height="352">
		</rect>
	</clipPath>
	<polyline fill="none" stroke="rgb(28,108,200)" stroke-width="1" stroke-opacity="1" clip-path="url(#clipArea2)" points="74.000000,572.895195 81.150000,573.921289 88.300000,575.643047 95.449999,577.359648 102.600000,578.131367 109.749999,579.242109 116.899999,580.566406 124.050001,581.738594 131.200000,583.042266 138.350000,584.953945 145.499999,586.924492 152.649998,587.966055 159.799997,589.165313 166.950003,590.612070 174.100002,591.929922 181.249995,593.298477 188.400000,595.204141 195.550006,597.221523 202.699999,598.543242 209.850004,599.880430 216.999998,601.517969 224.150003,603.014570 231.299996,604.539961 238.450001,606.526406 245.599995,608.700625 252.750000,610.350195 259.900005,611.721328 267.049999,613.412148 274.200004,615.048828 281.349997,616.589687 288.499990,618.585586 295.650008,620.775703 302.800001,622.618203 309.949994,624.098906 317.100012,625.894570 324.250005,627.673477 331.399998,629.404688 338.549991,631.508867 345.700009,633.781914 352.850002,635.938086 359.999995,637.777148 367.149988,639.836211 374.300006,641.928359 381.449999,643.973672 388.599992,646.160352 395.750010,648.588516 402.900003,650.967266 410.049996,652.916328 417.199989,655.054883 424.350007,657.268633 431.500000,659.390430 438.649993,661.519102 445.800011,663.948125 452.950004,666.365547 460.099997,668.086875 467.249990,670.025195 474.400008,672.101016 481.550001,674.047500 488.699994,676.070039 495.850012,678.527852 502.999981,681.022187 510.149998,682.819141 517.300016,684.706758 524.449984,686.761953 531.600002,688.705000 538.750019,690.668672 545.899988,693.025938 553.050006,695.460977 560.200023,697.359766 567.349992,699.250391 574.500010,701.357148 581.649979,703.340586 588.799996,705.333477 595.950014,707.670977 603.099982,710.149414 610.250000,712.215352 617.400018,714.047109 624.549986,716.114336 631.700004,718.127852 638.850021,720.053281 645.999990,722.327617 653.150008,724.751055 660.299977,726.894336 667.449994,728.735547 674.600012,730.815664 681.749981,732.873867 688.899998,734.883086 696.050016,737.184922 703.199984,739.618672 710.350002,741.955312 717.500019,744.027695 724.649988,746.269805 731.800006,748.533828 738.950023,750.753164 746.099992,753.080781 753.250010,755.602617 760.399979,758.081055 767.549996,760.201563 774.700014,762.470312 781.849982,764.795352 789.000000,767.038750 789.000000,767.038750"/>
	<polyline fill="none" stroke="rgb(238,46,47)" stroke-width="1" stroke-opacity="1" clip-path="url(#clipArea2)" points="74.000000,640.671953 81.150000,641.690742 88.300000,643.392734 95.449999,645.090859 102.600000,645.861289 109.749999,646.964297 116.899999,648.277422 124.050001,649.440586 131.200000,650.733086 138.350000,652.623281 145.499999,654.571914 152.649998,655.608320 159.799997,656.799414 166.950003,658.233281 174.100002,659.540820 181.249995,660.898203 188.400000,662.782812 195.550006,664.777422 202.699999,666.089687 209.850004,667.417422 216.999998,669.039492 224.150003,670.523203 231.299996,672.034844 238.450001,673.999375 245.599995,676.148672 252.750000,677.783203 259.900005,679.144453 267.049999,680.819375 274.200004,682.441016 281.349997,683.968555 288.499990,685.942109 295.650008,688.107305 302.800001,689.931758 309.949994,691.400430 317.100012,693.178477 324.250005,694.939766 331.399998,696.654219 338.549991,698.734766 345.700009,700.981172 352.850002,703.113711 359.999995,704.935156 367.149988,706.971875 374.300006,709.041680 381.449999,711.065508 388.599992,713.228125 395.750010,715.627930 402.900003,717.979609 410.049996,719.909766 417.199989,722.025977 424.350007,724.215664 431.500000,726.315547 438.649993,728.422305 445.800011,730.823398 452.950004,733.213320 460.099997,734.920898 467.249990,736.840742 474.400008,738.894219 481.550001,740.821797 488.699994,742.823281 495.850012,745.251875 502.999981,747.716563 510.149998,749.497617 517.300016,751.366758 524.449984,753.400039 531.600002,755.323750 538.750019,757.266367 545.899988,759.595703 553.050006,762.001094 560.200023,763.881406 567.349992,765.753125 574.500010,767.834531 581.649979,769.798203 588.799996,771.769180 595.950014,774.078320 603.099982,776.526250 610.250000,778.569414 617.400018,780.382695 624.549986,782.426719 631.700004,784.417891 638.850021,786.322266 645.999990,788.569102 653.150008,790.962031 660.299977,793.080820 667.449994,794.902695 674.600012,796.958750 681.749981,798.993320 688.899998,800.979336 696.050016,803.252383 703.199984,805.655625 710.350002,807.963477 717.500019,810.012227 724.649988,812.227266 731.800006,814.464219 738.950023,816.656914 746.099992,818.956602 753.250010,821.446211 760.399979,823.893711 767.549996,825.990586 774.700014,828.232266 781.849982,830.529805 789.000000,832.746992 789.000000,832.746992"/>
	<polyline fill="none" stroke="rgb(0,140,72)" stroke-width="1" stroke-opacity="1" clip-path="url(#clipArea2)" points="74.000000,510.138477 81.150000,511.086367 88.300000,512.786641 95.449999,514.481758 102.600000,515.208789 109.749999,516.283867 116.899999,517.578945 124.050001,518.718477 131.200000,519.993359 138.350000,521.891719 145.499999,523.850234 152.649998,524.856133 159.799997,526.024453 166.950003,527.448008 174.100002,528.739648 181.249995,530.083711 188.400000,531.979063 195.550006,533.988281 202.699999,535.284219 209.850004,536.597773 216.999998,538.219414 224.150003,539.697109 231.299996,541.204023 238.450001,543.184453 245.599995,545.356953 252.750000,546.991484 259.900005,548.341563 267.049999,550.020352 274.200004,551.643711 281.349997,553.169531 288.499990,555.161562 295.650008,557.352539 302.800001,559.187305 309.949994,560.652109 317.100012,562.440898 324.250005,564.212500 331.399998,565.935117 338.549991,568.040586 345.700009,570.318359 352.850002,572.476680 359.999995,574.310156 367.149988,576.369219 374.300006,578.462227 381.449999,580.507539 388.599992,582.697656 395.750010,585.134844 402.900003,587.521328 410.049996,589.467813 417.199989,591.608945 424.350007,593.827422 431.500000,595.951367 438.649993,598.083047 445.800011,600.521953 452.950004,602.948828 460.099997,604.663711 467.249990,606.601602 474.400008,608.680000 481.550001,610.627344 488.699994,612.653320 495.850012,615.124023 502.999981,617.632969 510.149998,619.427344 517.300016,621.315820 524.449984,623.376602 531.600002,625.323086 538.750019,627.290625 545.899988,629.662070 553.050006,632.111719 560.200023,634.013516 567.349992,635.907578 574.500010,638.022930 581.649979,640.013242 588.799996,642.012578 595.950014,644.365547 603.099982,646.862031 610.250000,648.936133 617.400018,650.771758 624.549986,652.849297 631.700004,654.871406 638.850021,656.804570 645.999990,659.094375 653.150008,661.536289 660.299977,663.691602 667.449994,665.539258 674.600012,667.631406 681.749981,669.701211 688.899998,671.721602 696.050016,674.040625 703.199984,676.495000 710.350002,678.849258 717.500019,680.933672 724.649988,683.191680 731.800006,685.472461 738.950023,687.707266 746.099992,690.053359 753.250010,692.597109 760.399979,695.097031 767.549996,697.230859 774.700014,699.515938 781.849982,701.859023 789.000000,704.119180 789.000000,704.119180"/>
	<rect fill="rgb(255,255,255)" stroke="none" stroke-opacity="0.7" x="74" y="475" width="301" height="17"/>
	<polyline fill="none" stroke="rgb(28,108,200)" stroke-width="1" stroke-opacity="1" points="74.000000,484.000000 104.000000,484.000000"/>
	<text x="109" y="484" fill="rgb(0,0,0)" dominant-baseline="central" font-size="11" font-family="Arial" text-anchor="start">Original value</text>
	<polyline fill="none" stroke="rgb(238,46,47)" stroke-width="1" stroke-opacity="1" points="184.000000,484.000000 214.000000,484.000000"/>
	<text x="219" y="484" fill="rgb(0,0,0)" dominant-baseline="central" font-size="11" font-family="Arial" text-anchor="start">Y_a = 0.14</text>
	<polyline fill="none" stroke="rgb(0,140,72)" stroke-width="1" stroke-opacity="1" points="282.000000,484.000000 312.000000,484.000000"/>
	<text x="317" y="484" fill="rgb(0,0,0)" dominant-baseline="central" font-size="11" font-family="Arial" text-anchor="start">Y_a = 0.34</text>
</svg>
